<?xml version="1.0" encoding="UTF-8"?>
<svg id="Graphic_4" data-name="Graphic 4" xmlns="http://www.w3.org/2000/svg" viewBox="0 0 960 960">
  <defs>
    <style>
      .cls-1 {
        fill: #fdc652;
      }

      .cls-2 {
        fill: #e26d6d;
      }

      .cls-3 {
        fill: #208184;
      }

      .cls-4 {
        fill: #fff;
      }

      .cls-5 {
        fill: #60c4cc;
      }

      .cls-6 {
        fill: #c13d3d;
      }
    </style>
  </defs>
  <path class="cls-6" d="M475.52,130.49c.8-.17,1.1-.02.89.45-9.9,4.35-19.82,8.6-29.43,13.6-28.25,14.7-53.66,33.78-76.49,55.89-18.67-4.88-39.05-14.15-42.53-35.37-.14-.82-.13-8.08,0-8.91,3.74-23.83,34.06-36.18,55.49-37.27,32.21-1.64,58.51,18.04,92.07,11.62Z"/>
  <path class="cls-3" d="M774.18,512.51c-2.01,3.58-19.12,35.89-21.4,37.93-15.73,20.75-33.82,38.8-57.27,57.33-5.34,3.93-10.3,8.54-16.06,12.04l1.14,5.79c48.42-18.31,86.38-61.91,104.31-109.73-2.08-.24-9.24-4.3-10.7-3.37Z"/>
  <path class="cls-2" d="M460.37,33.7c3.73-.17,8.32-.2,12.04,0,25,1.37,36.15,17.57,45.99,38.51.68,1.44,4.94,10.85,4.38,11.45-2.98-.68-5.68-2.26-8.57-3.24-35.87-12.21-78.53.3-110.3,18.33-2.74,1.55-13.42,9.42-14.73,9.79-1.99.57-8.06.35-10.6.55-1.54.12-3.35.6-4.94.74-4.48-8.79-4.48-22.39-.98-31.64,10.35-27.3,61.17-43.26,87.71-44.49Z"/>
  <path class="cls-5" d="M524.11,93.47c.42.08.42.38,0,.89-10.91,10.47-17.05,18.41-31.98,23.97-18.7,6.96-34.6,6.71-53.7,1.77-13.65-3.53-26.88-8.74-40.92-10.81.01-.92,5.3-3.71,6.39-4.31,25.91-14.32,61.26-24.47,90.95-20.82,10.2,1.25,20.19,4.6,29.26,9.3Z"/>
  <path class="cls-6" d="M528.12,89.01c4.2-5.51,8.26-8.08,14.25-11.38,9.82-5.4,25.05-12.05,36.33-10.91,17.49,1.77,8.65,32.43,3.29,42.09-.39.7-.73,1.72-1.59,1.98-27.56-.02-54.88,4.62-81.27,12.12,2.9-2.52,6.5-4.26,9.57-6.7,8.69-6.88,18.96-20.13,25.2-29.43.05-.34-.1-.49-.45-.45-1.56,1.11-2.94,2.42-4.46,3.57-2.75,2.95-3.73,1.75-.89-.89Z"/>
  <path class="cls-5" d="M438.52,233.08c-.04,6.01-1.04,11.55-.91,17.64.41,18.62,3.03,36.96-10.69,52.16-8.74,9.69-26.66,17.41-36.28,4.66-15.5-20.54,23.63-42.26,34.74-54.82,3.74-4.23,7.86-10.33,10.55-15.31.64-1.18.94-2.71,1.59-3.75.29-.46-.02-.78,1-.57Z"/>
  <path class="cls-3" d="M759.19,521.75c1.05-4.27,6.45-9.66,5.18-13.9-.21-1.1-7.4-3.39-9.82-3.83-10.43,22.3-25.26,44.63-41.88,62.05-9.85,11.46-25.04,22.94-37.04,32.52-.94.92.55,6.72,1.2,6.92,14.3-4.45,26.98-16.53,38.65-25.55-.05-.02-.09-.05-.14-.07,18.01-16.04,32.98-37.06,43.85-58.14Z"/>
  <path class="cls-3" d="M743.72,498.85c-2.95-1.09-6.59-4.4-8.44-.7-1.23,6.61-6.14,12.42-8.8,18.62-1.75,2.88-37.25,49.98-55.29,60.98,0,0,.47,4.59.47,4.59,10.96-1.01,25.17-14.06,32.1-19.85,7.72-3.68,51.55-60.41,39.97-63.64Z"/>
  <path class="cls-3" d="M720.24,487.78c9.87,4.08,8.08,2.83,3.95,12.2-10.82,21.1-32.25,51.32-56.99,57.38-1-4.49.51-3.75,2.9-6.24.58-.6,2.44-2.24,3.12-2.64,18.97-15.72,35.22-37.83,45.68-60.26.37-.49.01-1.14,1.34-.45Z"/>
  <path class="cls-3" d="M709.94,482.03c-5.21,18.62-24.1,43.03-41.24,52.52-4.06,1.94-5.76,2.59-4.83-3.05,16.01-15.14,30.27-32.39,38.59-53.05.39-.27,7.26,3.23,7.48,3.59Z"/>
  <path class="cls-3" d="M695.25,473.56c-3.07,9.52-8.33,18.37-14.68,26.02-5.12,6.16-11.63,12.87-19.15,15.85-2.2-5.02,2.91-7.95,5.78-11.39,8.64-10.34,16.45-21.48,21.41-34.11l6.64,3.63Z"/>
  <path class="cls-3" d="M676.38,461.93c1.13.42,4.56,2.28,4.66,3.32.1,1.05-2.67,7.38-3.34,8.72-2.88,5.74-9.79,15.33-15.25,18.64-3.4,2.05-4.33,1.87-3.47-2.58,7.04-8.56,12.59-18.13,17.41-28.09Z"/>
  <path class="cls-1" d="M661.39,344.38c-18.97-21.4-47.83-29.6-75.86-27.76-57.72,3.78-99.98,52.84-106.44,108.49-4.84,41.69,23.2,82.1,62.51,94.45,97.46,30.64,188.64-97.51,119.79-175.18ZM610.13,437.58c-7.5,9.79-14.35,17.39-28.18,14.84-31.76-5.87-22.43-56.55,8.93-59.53,25.11-2.38,32.82,26.98,19.25,44.68Z"/>
  <path class="cls-4" d="M751.42,650.76s-24-7.11-36.89,6.22c-12.89,13.33,15.11,42.22,15.11,42.22,0,0-39.56,50.22,4,62.22,43.56,12,67.56,2.22,67.56,2.22,0,0,4.89,9.78,18.67,8.44,13.78-1.33,41.78-32,19.56-93.78,0,0-19.11,12.89-48.89,2.22-29.78-10.67-39.11-29.78-39.11-29.78Z"/>
  <path class="cls-4" d="M777.65,641.43s-7.11-12.89-14.67-12-13.33,9.78-11.11,17.78c2.22,8,15.56,26.22,38.22,30.67,22.67,4.44,41.33,3.11,51.56-4.44,10.22-7.56,5.78-33.78-13.78-35.56,0,0-14.67,29.78-30.67,24.89s-19.56-21.33-19.56-21.33Z"/>
  <path class="cls-4" d="M175.43,633.43s-25.33,4-24.89,19.11c.44,15.11,18.22,33.78,53.33,33.33,35.11-.44,52.44-12,52-30.22s-23.56-14.22-23.56-14.22c0,0,2.22,24.89-28,20.89-30.22-4-28.89-28.89-28.89-28.89Z"/>
  <path class="cls-4" d="M145.65,671.21s-23.11,17.33-28,44.89c-4.89,27.56-3.56,48.89,10.22,52.44,13.78,3.56,25.78-7.11,25.78-7.11,0,0,1.33,21.78,19.11,21.78s30.22-21.78,30.22-21.78c0,0,3.56,41.33,32.44,32.44,28.89-8.89,20.44-63.11,20.44-63.11,0,0,37.78-14.67,35.56-37.33-2.22-22.67-35.11-26.67-35.11-26.67,0,0-10.67,25.78-52.89,23.56-42.22-2.22-57.78-19.11-57.78-19.11Z"/>
  <g>
    <path class="cls-5" d="M454.79,158.16c-43.62,28.57-82.14,63.43-110.19,107.72-10.02,15.82-20.07,34.14-27.73,51.23-48.5,108.3-23.54,246.54,71.94,320.32l15.35,11.41c-54.48-27.79-92-80.75-108.74-138.83-38.75-134.44,35.08-291.21,159.37-351.85Z"/>
    <path class="cls-5" d="M376.28,596.2c-31.01-22.45-53.18-55.27-63.9-92-13.76-47.14-9.64-100.57,13.51-143.98.78-.11.42,1.02.44,1.55.6,16.22-4.57,34.31-6.63,50.48-2.04,16.04-1.33,32.85-.5,49,1.75,34.32,18.23,69.84,35.16,99.11l21.93,35.83Z"/>
    <path class="cls-5" d="M387.44,573.45c-.77.78-5.96-2.47-6.92-3.11-9.65-6.45-18.92-20.49-24.82-30.49-19.17-32.49-28.44-72.49-23.95-110.2,1.21-10.15,6.54-35.64,13.34-42.87,4.27-4.54,3.76,3.15,3.57,6.25-.51,8.27-3.32,16.99-4.03,25.41-3.96,46.75,6.86,88.72,28.91,129.44,3.8,7.01,9.56,14.69,12.8,21.55.63,1.34,1.4,2.4,1.11,4.02Z"/>
    <path class="cls-5" d="M805.84,406.17c-.81-.17-.83-.88-.9-1.54-1.33-11.9.64-25.08.93-37.02,1.08-45.01-10.5-86.52-35.52-123.77l-21.59-32.16c34.55,22.73,55.66,61.53,63.12,101.7,5.72,30.76,4.32,63.2-6.04,92.8Z"/>
    <path class="cls-5" d="M368.99,395.5c.84-.15,1.45,1.19,1.65,1.82,1.46,4.7-2.32,20.4-2.82,26.47-2.92,35.26,3.74,68.15,18.79,99.86,3.62,7.62,9.58,16.19,12.5,23.63.25.64,1.38,2.75.14,2.98-.77.14-5.64-2.95-6.61-3.65-14.17-10.14-27.47-40.43-32.19-57.02-7.45-26.2-8.12-58.84,2.11-84.43.76-1.91,4.51-9.32,6.42-9.66Z"/>
    <path class="cls-5" d="M783.03,388.24c-1.58.92-2.03-2.4-2.16-3.71-.35-3.64.32-7.24.44-10.71,1.4-43.3-7.83-80.75-28.91-118.28-3.65-6.49-9.93-14.36-12.81-20.65-.41-.9-.82-1.64-.65-2.69,11.24,4.09,19.54,16.89,25.61,26.8,20.41,33.36,29.35,74.53,23.4,113.43-.48,3.15-1.05,6.52-2.05,9.55-.32.97-2.36,5.96-2.87,6.26Z"/>
    <path class="cls-5" d="M392.18,401.74c2.3-.41,2.02,5.66,1.94,6.88-.3,4.84-1.81,10.15-2.22,15.18-2.38,29.19,2.6,56.99,14.64,83.49,2.57,5.66,6.69,11.91,8.76,17.55,1.34,3.66-.32,2.89-2.85,1.51-10.74-5.86-20.37-26.29-24.46-37.55-7.96-21.91-10.17-44.84-4.54-67.66.85-3.45,5.08-18.76,8.72-19.41Z"/>
    <path class="cls-5" d="M761.7,381.19c-1.83-1.26-.33-20.31-.43-23.88-.93-30.6-8.42-57.97-22.69-84.81-2.73-5.14-7.84-11.97-9.84-16.92-.33-.81-.65-1.49-.49-2.41,8.38,2.48,14.42,11.68,18.92,18.77,17.87,28.18,25.84,64.75,19.82,97.81-.34,1.86-.71,4.07-1.29,5.84-.36,1.1-2.48,6.63-3.98,5.6Z"/>
    <path class="cls-5" d="M709.95,271.46c8.67,2.07,15.64,11.05,20.43,18.15,14.88,22,22.4,48.15,18.74,74.79-.63,4.6-1.5,10.5-3.71,14.58-2.99,5.53-4.38,2.86-4.68-2.02-.14-2.22.44-3.9.46-5.78.28-33.35-6.01-57.08-23.03-85.41-2.14-3.56-5.94-8.1-7.56-11.62-.42-.9-.82-1.63-.65-2.69Z"/>
    <path class="cls-5" d="M414.49,407.99c2.1-.38,1.6,6.31,1.49,7.76-1.36,19.14-3.16,33.51,1.12,52.87,3.14,14.21,8.87,24.7,13.95,37.79,1.25,3.23,1.22,4.13-2.26,2.26-10.29-5.54-18.67-27.74-21.5-38.72-4.46-17.27-4.27-37.76,2.11-54.55.61-1.6,3.48-7.14,5.09-7.42Z"/>
    <path class="cls-5" d="M693.89,291.53c5.72.56,10.63,5.45,14.26,9.6,15.23,17.37,25.56,46.94,19.96,69.9-.33,1.33-2.28,6.81-4.12,4.82-1.67-1.8-1.25-10.83-1.56-13.61-2.23-20.42-7.68-37.69-18.54-55.06-2.61-4.17-7.57-9.7-9.48-13.72-.31-.65-.68-1.14-.52-1.93Z"/>
    <path class="cls-5" d="M444.98,490.48c-4.66-.3-8.36-6.02-10.49-9.8-9.86-17.45-13.16-45.33-4.45-63.8,3.46-7.34,5.68-3.67,5.08,2.85-.83,9.03-1.81,17.06-1.31,26.38.83,15.45,6.43,29.86,11.17,44.36Z"/>
    <path class="cls-5" d="M708.11,371.32c-3.12,1.79-2.96-7.58-3.12-8.59-2.62-16.44-7.25-28.85-15.99-42.89-.61-.98-5.65-7.56-4.92-8.24,4.39.02,8.64,4.4,11.38,7.58,7.74,8.98,14.17,24.06,14.93,35.92.17,2.62-.18,15.01-2.28,16.22Z"/>
    <path class="cls-5" d="M452.08,419.6c.33.22.5,2.27.51,2.85.11,4.53-.92,10.15-.94,14.71-.04,11.36,3.23,22.19,4.92,33.25-5.45-1.51-8.15-9.29-9.59-14.27-2.51-8.72-3.1-17.94-.9-26.77.42-1.69,3.16-11.67,5.99-9.77Z"/>
    <path class="cls-5" d="M685.89,374.92c-1.75-6.1-2.81-12.4-5.05-18.37-1.43-3.82-3.55-7.88-5.45-11.5-.62-1.18-4.98-7.71-4.24-8.46,3.58.2,6.39,3.41,8.46,6.03,6.1,7.7,9.84,18.69,8.95,28.56-.15,1.67-.46,4.04-2.67,3.75Z"/>
  </g>
  <g>
    <path class="cls-4" d="M656.86,295.1c-3.78-2.54-6.89-6.06-10.5-8.9-36.87-29.08-89.41-14.95-128.19,2.7,5.15,13.87-1.04,30.5-15.64,34.75-.79-1.04,4.33-6.17,5.27-7.44,6.89-9.39,7.76-18.09,2.39-28.54-5.91-11.5-17.07-18.01-27.87-24.22l-.3-1.36c5.01-.54,10.05,1.84,14.44,4.08,8.01,4.09,14.48,10.11,19.24,17.74,11.68-6.1,23.79-11.9,36.47-15.69,28.48-8.51,65.13-10.2,90.15,8.22,6.04,4.45,12.91,11.19,14.57,18.66Z"/>
    <path class="cls-4" d="M527.06,209c1.4-1.44,4.17,4.56,4.48,5.55,2.98,9.33-3.24,16.81-10.76,21.4-16.97,10.35-41.7,7.12-58.85-1.29-4.62-2.27-9.98-5.07-12.92-9.38.43-.63.84-.67,1.55-.71,2.65-.15,9.89,3.85,12.93,4.95,16.5,5.97,43.46,9.82,57.98-2.25,1.77-1.47,5.59-5.47,5.59-7.79v-10.48Z"/>
    <path class="cls-4" d="M612.7,214.36c1.03-.16,1.67.35,2.45.89,3.19,2.24,6.99,8.07,10.25,11.16,13.72,13.02,39.24,26.73,53.68,7.27,1.85-2.5,3.13-5.39,5.22-7.72,1.64-.34,1.13,4.05.99,5.01-1.17,8.52-9.96,16.62-18.16,18.42-21.08,4.63-42.83-10.3-52.56-28.21-1.19-2.19-2.22-4.22-1.87-6.82Z"/>
  </g>
  <g>
    <path d="M852.02,716.03c-.18-1.26-.33-2.45-.45-3.57.35-.75.39-1.9,0-2.68.59-9.98-3.24-19.82-8.05-28.39,15.36-14.59,7.12-43.29-13.56-47.96,15.6-42.77.2-89.52-22.96-126.43,24.05-53.18,33.21-113.18,25.38-171.03-.22-1.62-3.98-25.59-6.44-26.68-1.66-.74-2.5.92-2.44,2.35-7.12-45.77-24.87-87.91-55.67-123.1-43.9-50.16-110.08-78.02-176.25-78.64,1.81-3.1,3.02-7.44,3.97-11.09,13.98-53.4-34.98-46.67-60.67-20.6-10.69-25.5-27.29-57.45-59.23-56.13-1-.13-2.04-.28-3.12-.45h-11.15c-1.24.14-2.43.29-3.57.45-10.15-.4-20.29,1.87-30.03,4.74-20.45,6.02-41.91,16.62-55.71,33.24-10.95,13.19-14.32,34.39-6.78,49.8-33.79,6.98-64.63,39.03-43.73,73.81,8.31,13.82,22.1,21,36.69,26.6,1.91-.46,1.82-.17-.27.87-37.37,41.2-62.67,90.11-75.69,144.08-10.67,44.22-17.25,90.8-6.39,135.59-36.31,16.38-68.12,49.05-87.47,84.99-8.1,15.05-14.82,32.05-15.22,49.21-5.51-1.51-12.65,1.14-17.56,4.16-13.65,8.4-20.95,24.71-12.99,39.46-20.15,15.37-32.79,41.99-33.99,66.89-.27-.5-.37-.02-.47.56v8.92l.33.79c-1.04,20.58,17.97,37.31,39.22,29.35,10.29,16.01,36.2,22.86,51.07,9.05,19.94,29.61,64.99,20.82,69.08-16.16,1.2-10.81-1.05-21.85-3.72-32.25,11.46-5.46,23.03-13.74,28.94-25.3,12.21-23.87-7.99-40.98-30.19-44.85,4.55-16.34-8.79-34.6-26.62-27.74,6.6-36.34,27.1-71.68,56.12-94.73,29.12,71.98,90.38,125.85,165.36,146.18,16.83,16.87,32.71,34.65,47.9,52.99-30.29,16.26-67.33,21.58-101.12,16.2-8.03-.5-17.4-.66-18.81,9.16-5.96,41.24,1.52,80.93,39.3,103.65,19.45,11.7,47.52,16.14,69.34,9.84,15.59-4.51,25.35-18.81,11.58-31.04-11.14-7.93-22.71-15.31-34.71-22.15-17.78-10.88-35.5-25.39-38.2-47.39-1.12-1.62-.99-1.78.4-.49,31.37,7.23,64.51,3.18,93.77-9.8,19.04,25.2,36.47,51.56,52.71,78.65,15.19,25.65,30.54,51.19,46.08,76.63,1.44,2.3,6.96,8.99,9.07,10.7,1.57,1.27,3.03,2.23,5.13,1.82.54.16,1.13.31,1.78.45h2.23c.64-.14,1.24-.29,1.78-.45,7.64-.08,15.37-5.63,21.5-10.09,23.65-17.19,47.71-45.14,64.74-68.71,18-24.89,35.92-53.3,41.29-83.71,8.82,2.78,20.17,1.19,27.86-4.23,30.02,21.26,51.38-15.06,50.17-41.97.38-.78.35-1.93,0-2.68.12-1.16.27-2.35.45-3.57v-7.14ZM258.71,674.53c8.04,1.65,17.48,5.52,22.74,12.06,12.37,15.38-11.13,32.31-23.87,37.24-1.51.59-8.58,2.27-8.88,3.19,1.46,13.66,6.98,26.43,4.75,40.4-2.73,17.06-19.25,25.03-34.35,16.31-9.98-5.76-11.93-16.22-14.14-26.67-.7-.12-1.03.07-1.58.43-1.56,1-6.23,6.13-7.79,7.81-2.68,2.89-7.11,9.68-10.59,10.82-8.61,2.81-20.15-1.45-25.45-8.65-1.14-1.55-4.48-9.28-5.26-9.43-.7-.13-8.51,3.33-10.33,3.8-9.27,2.44-16.82,1.9-20.95-7.78-7.35-17.24.25-43.67,9.18-59.29,3.1-5.43,9.9-15.92,14.33-20.01.32-.3.89-.98,1.35-.65.05.03.09.73.44,1.1,23.09,24.31,79.81,28.52,104.81,5.37,2.06-1.91,3.48-4.38,5.58-6.05ZM240.42,642.86c6.99-.02,11.89,6.67,12.28,13.17,1.46,24.08-37.21,27.82-54.2,26.11-13.11-1.32-39.93-8.86-44.07-23.27-2.86-9.96,9.91-21.82,19.74-20.41-.04,1.97.96,3.74,1.32,5.59,1.01,5.13.27,5.78,4.06,10.21,9.78,11.44,27.18,13.67,41.11,9.92,2.05-.55,10.52-3.56,11.45-5.05.74-1.18.3-2.55.68-3.77.68-2.15,4.1-4.22,2.87-7.72-.38-1.07-2.4-.21-1.71-1.82.51-1.19,5.03-2.95,6.44-2.95ZM826.16,330.71c-.13.25-.28.24-.45,0,.06-.34.08-.68.07-1.02.1.38.23.73.37,1.02ZM825.62,328.55c-.09-.33-.2-.65-.35-.97.07-.32.1-.66.1-1,.09.35.2.69.35,1-.08.29-.11.62-.09.97ZM824.37,313.32l.45,3.12c-.84.38-.71,1.3,0,1.78-.09,1.86.05,3.49.45,4.91-.1.67-.14,1.4-.1,2.11-.09-.27-.2-.54-.35-.77.33-1.63.18-2.97-.45-4.01v-.45c-.31-.53-.45-1.13-.45-1.78l.29-1.7c-.19-1.41-.4-2.81-.61-4.21.13.47.38.85.77,1.01ZM751.69,214.31c7.63,3.48,21.8,18.83,27.19,25.66,33.15,41.99,46.53,113,27.21,163.44-.33.6-.62.75-.89.45-.76-13.29.57-25.06.91-38.11.72-27.55-4.35-58.24-14.97-83.62-10.66-25.47-25.84-44.95-40.34-67.8-.58-1.09.29-.89.89,0ZM739.2,232.6c8.07,2.99,13.74,10.48,18.64,17.25,24.77,34.21,36.15,81.06,29.45,122.94-.8,5.03-1.77,10.97-5.06,14.99-.94-.83-1.03-2.16-1.13-3.32-.84-9.17.88-20.26.48-29.92-1.7-40.93-14.15-74.91-35.06-109.43-.9-1.48-8.11-11.69-7.32-12.52ZM676.28,598.94c33.32-24.26,62.03-57.31,78.58-94.27,0,0,9.3,3.56,9.3,3.56-4.96,15.67-19.81,38.43-30.32,51.01-13.32,16.5-29.65,30.54-47.86,41.36-1.16.63-8.6,4.54-9.22,3.94.24-1.63-1.43-4.36-.49-5.6ZM662.02,510.63c.74-1.7,7.96-8.8,9.83-11.13,6.92-8.62,13.08-18.44,16.96-28.75l5.69,3.33c-6.28,16.02-17.22,31.57-32.23,40.37-1.15-.99-.78-2.61-.25-3.81ZM659.38,493.04l.24-2.65c4.61-6.17,9.27-12.38,12.92-19.19,1.37-2.56,2.27-5.45,3.68-7.91.18-.32-.09-.83.72-.53.62.23,3.38,2.22,3.39,2.84.02,1.09-3.58,8.43-4.39,9.91-3.59,6.58-9.64,14.47-16.57,17.54ZM685.65,373.34c-1.28-2.91-2.12-9.51-3.31-13.19-2.7-8.41-7.04-15.37-10.92-23.19,1.22-1.16,6.73,4.56,7.57,5.58,6.22,7.64,10.44,19.97,8.9,29.84-.25,1.61-1.32,3.05-2.24.96ZM667.64,528.73c14.69-14.49,27-29.94,35.22-49.07.8-1.4,5.15,2.21,6.03,2.46-2.06,12.48-12.95,25.63-21.19,35.46-6.41,7-14.13,14.14-22.97,17.83-1.5-4.5.5-4.3,2.91-6.68ZM667.81,553.91c21.83-17.39,40.21-40.19,51.76-65.58.89-.57,5.66,2.85,7.11,2.98-.3,4.63-5.74,11.51-6.93,15.57-10.04,17.26-17.62,26.52-37.75,42.91-2.11,1.02-16.14,11.58-14.19,4.13ZM692.61,559.98c18.14-17.28,32.87-37.92,43.12-59.48.45-1.16.05-4.05,2.15-3.69.61.1,7.58,3.42,7.81,3.8-1.25,5.72-6.54,13.33-8.29,18.53-10.7,18.43-26.36,38.01-49.37,54.75-.3.5-14.39,7.51-15.73,7.46l-.24-3.57s18.87-16.8,20.54-17.8ZM704.19,601.41c21.27-17.1,35.58-31.31,52.78-55.8,0,0,17.89-32.74,17.89-32.74l9.37,3.39c-18.86,47.08-54.9,89.62-103.01,108.14l-.79-4.61s23.45-18.42,23.76-18.38ZM728.5,253.56c6.26,2.09,10.69,7.83,14.44,12.98,20.4,28.02,31.05,72.56,22.8,106.54-.25,1.04-2.5,7.27-2.91,7.58-.47.36-1.01-.32-1.28-.72-.92-1.4-.53-11.29-.52-13.79.14-35.72-5.83-63.15-22.65-94.6-2.69-5.04-7.27-11.13-9.39-16.03-.28-.65-.63-1.2-.49-1.96ZM723.82,281.65c19.85,22.53,32.56,65.2,22.39,94.21-.39,1.1-2.83,6.71-4.33,5.7-.2-.13-.87-3.98-.91-4.67-.17-2.59.46-4.79.48-7.13.16-18.36-2.28-37.95-8.61-55.21-5.65-15.42-14.39-28.92-23.08-42.7,5.48.86,10.48,5.74,14.05,9.8ZM709.76,303.74c14.06,17.67,21.85,42.04,18.24,64.6-.21,1.29-1.65,7.13-2.85,7.41-2.91.68-2.29-11.57-2.45-13.15-1.97-19.63-7.73-38.96-18.54-55.49l-9.99-15.2c6.32.96,11.78,7.03,15.59,11.83ZM698.28,323.7c8.13,11.81,13.63,28.46,11,42.87-.6,3.26-2.55,6.88-3.67,1.54-1.16-5.5-1.32-11.51-2.74-17.33-3.55-14.56-10.29-26.47-18.51-38.79,5.74.77,10.77,7.13,13.93,11.71ZM613,214.76c1.13-1.27,7.14,6.89,7.8,7.59,11.67,12.24,33.54,28.2,50.92,18.35,7.05-3.99,7.36-8.45,11.82-13.6.4-.46.43-.94,1.26-.74,1,12.04-10.09,22.29-21.61,23.2-18.95,1.5-35.64-9.46-45.82-24.67-2.02-3.01-4.65-6.26-4.36-10.13ZM637.05,273.44c7.85,4.73,15.9,12,19.21,20.7-.84.19-1.06-.47-1.56-.89-2.23-1.84-4.38-4.32-6.7-6.23-34.64-28.56-83.1-18.57-121.05-2.45-1.49.63-8.31,3.33-8.94,4-.28.3-.42.4-.43.86-.03,1.2,1.59,5.16,1.77,7.17.97,10.83-5.39,23.54-16.49,26.08,4.09-4.88,8.94-10.44,10.49-16.93,3.4-14.19-7.81-27.76-18.64-35.34-4.07-2.85-8.77-4.62-12.36-7.92,1.92-2.34,16.08,5.12,18.51,6.67,6.41,4.09,10.47,8.96,14.76,15.14,16.67-9,34.45-16.46,53.22-19.83,22.3-4,48.42-2.94,68.21,8.97ZM532.73,84.98c9.26-8.03,33.36-19.24,45.66-17.79,15.67,1.84,9.29,26.09,5.39,35.62-.5,1.23-2.46,6.07-3.11,6.7-1.11,1.1-17.83,1.11-20.96,1.33-13.23.94-26.61,3.15-39.56,5.93-5.36,1.15-10.62,2.74-15.97,3.88-.39-.13-.38-.28,0-.45,6.01-3.76,11.44-9.17,16.04-14.51,3.28-3.8,12.73-14.93,14.67-18.78.41-.81.64-1.46.51-2.39-.24-.26-1.85.66-2.23.89-.67.39-.87.25-.45-.45ZM495.7,115.96c-14.57,6.45-31.1,8.64-46.82,5.82-16.78-3.01-32.86-10.72-49.94-12.72,9.44-6.38,20.68-11.3,31.43-15.17,29.43-10.59,64.5-15.69,92.98.23-8.33,8.58-16.54,16.91-27.65,21.84ZM374.04,76.35c4.45-9.65,16.4-18.73,25.39-24.11,22.01-13.18,74.84-27.44,96.7-10.26,12.08,9.5,20.07,26.91,25.9,40.77-39.71-17.73-88.69-3.19-123.93,18.55-1.69,1.04-9.21,6.7-10.08,6.87-4.07.78-10.08-.66-14.46.89-3.68-10.19-4.1-22.75.49-32.7ZM329.16,167.93c-7.96-33.68,37.21-50.46,63.77-48.61,18.73,1.3,37.34,9.99,55.81,12.42,7.56,1,15.32.52,22.9.06l-11.75,5.41c-33.05,15.54-63.54,36.46-89.34,62.3-16.71-4.14-37.01-13.07-41.39-31.59ZM390.92,640.66c-84.5-53.03-117.1-157.04-101.54-252.96,15.03-92.65,71.21-175.71,152.38-222.45.92-.31,1.22-.16.89.45-57.39,39.46-100,90.27-127.62,154.45-46.82,108.8-20.59,248.25,76.78,320.07.48.62.18.77-.89.45ZM427.03,301.49c-8.35,9.76-26.23,18.24-35.85,5.55-13.45-17.74,15.47-36.24,26.5-46.11,8.04-7.2,15.47-15.51,19.62-25.65.58-.14.67.75.67,1.11-.04,2.68-1.09,6.5-1.13,9.35-.33,19.67,4.57,38.96-9.81,55.75ZM372.85,547.46c4.63,8.59,10.31,16.62,14.5,25.41-1.07.8-5.77-2.48-6.83-3.2-7.18-4.87-12.71-12.32-17.61-19.4-26.9-38.79-38.63-89.69-27.96-136.17,1.72-7.48,4.35-18.54,8.6-24.85.56-.83,2.93-4.51,4.11-3.69,1.09.76.6,7.17.45,8.69-.85,8.32-3.36,16.58-4,24.98-3.59,46.59,6.9,87.66,28.75,128.22ZM317.77,437.99c.76,18.88,1.53,36.33,6.39,54.71,9.44,35.67,29.71,68.57,49.37,99.36.34.94.19,1.24-.45.89-65.23-50.51-86.69-145.79-52.7-221.06,1.49-3.3,3.33-7.11,5.43-9.96-.28,25.66-9.07,50.23-8.04,76.06ZM388.85,542.84c-18.37-18.02-32.25-58.98-33.62-84.34-.84-15.49,1.93-45.6,10.35-58.81.79-1.24,3.14-4.97,4.33-3.15,1.98,3.02-2.22,22.19-2.62,27.16-2.41,30.05,2.28,60.3,13.61,88.06,5.29,12.96,12.33,24.97,18.49,37.47-1.39,1.26-9.25-5.13-10.54-6.4ZM415.45,526.94c-9.31-3.36-15.7-14.04-20.14-22.44-13.14-24.89-18.48-55.19-11.75-82.81.79-3.23,5.3-19.03,8.54-19.58,2.16.46,1.62,4.61,1.52,6.45-.31,5.31-1.85,10.68-2.24,16.04-2.07,28.18,2.11,53.7,13.29,79.46,3.01,6.92,7.96,14.52,10.43,21.23.21.56.48,1.01.35,1.65ZM417.16,494.24c-9.91-17.95-14.88-41.17-11.9-61.56.75-5.1,3.94-18.2,6.88-22.11.82-1.09,2.3-3.1,3.23-1.51,1.47,2.52-.97,12.46-1.25,15.97-1.31,16.34-.17,33.98,4.14,49.82,3.23,11.9,8.49,22.94,13.25,34.24-6.51-1.73-11.22-9.2-14.34-14.86ZM432.46,475.81c-7.62-16.82-10.6-42.43-1.92-59.33.44-.86,2.43-4.08,3.64-3.27,1.43.96-.78,14.3-.91,16.7-.76,15.05,1.15,29.63,5.59,43.95,1.68,5.41,4.17,10.55,5.57,16.05-5.77-1.38-9.66-8.99-11.98-14.11ZM456.03,469.85c-2.79-1.08-4.33-3.62-5.66-6.15-5.85-11.08-7.09-29.04-2-40.54.71-1.6,1.32-2.93,2.99-3.7,1.54,2.39.25,5.29.2,7.78-.19,9.47-.16,18.2,1.5,27.53.38,2.11,3.54,14.32,2.98,15.08ZM449.34,225.02c.64-.12,1-.27,1.68-.15,3.62.63,8.65,3.72,12.36,5.06,15.55,5.58,41.27,9.15,55.66-.54,2.53-1.7,8.33-6.79,8.33-9.95v-10.03c.66-.76,2.4,2.55,2.61,2.96,6.07,11.76-4.88,21.82-14.98,25.92-17.65,7.16-40.4,3.04-56.61-6.06-3.38-1.9-6.96-3.85-9.06-7.21ZM481.22,417.22c10.71-54.04,49.83-97.22,107.16-100.21,27.25-1.42,54.8,7.74,73.01,28.4,57.85,65.62-.39,170.22-81.62,177.5-59.75,5.35-110.45-45.63-98.55-105.7ZM536.91,719.54l-24.69-22.24c13.26.79,26.5.35,39.69-.67-3.28,8.57-8.88,16.16-15,22.91ZM707.02,782.18c-17.53,30.17-31.63,62.2-47.86,93.06-11.71-25.05-28.1-47.39-45.28-68.89-11.48-14.38-23.31-28.8-35.23-42.81-4.49-5.28-9.3-10.35-14.06-15.4-.29-.34-.18-.54,0-.89.37-.74,6.98-5.7,8.28-6.91,16.61-15.39,30.14-33.34,37.56-54.97,68.9-20.86,126.39-67.26,166.45-126.31.65-.03,3.3,11.17,3.57,12.47,4.55,21.56,4.16,44.88-3.57,65.55-1.77-2.31-3.47-2.62-3.68.79-.12,2.09,1.22,4.2,1.24,5.67.05,3.33-2.85,4.39-1.13,9.6,2.69,8.15,14.93,12.83,22.74,13.82,9.74,1.25,27.62-1.45,28.33-14.03.07-1.25-.48-2.98-.28-3.82.05-.2,1.93-3.39,2.11-3.49,2.24-1.32,8.03,4.52,9.2,6.5,4.61,7.77,4.18,16.74-4.07,21.62-13.89,8.2-38.25,3.84-52.19-2.81-10.51-5.02-27.59-17.82-21.17-31.3,1.86-3.89,7.14-8.56,11.51-5.43.85.61,1.76,3.43,2.89,1.99,2.89-3.67-2.21-8.62-5.89-9.25-10.07-1.7-17.39,7.29-19.18,16.29-.2,1.03.23,3.88-.77,4.05-.36.06-5.85-1.49-7.21-1.65-10.38-1.22-22.94.7-29.07,10.06-9.37,14.31.82,34.21,11.43,44.96-14.92,17.26-26.7,46.79-3.06,62.25-3.53,6.48-7.88,12.81-11.65,19.29ZM842.59,729.56c-1.77,10.77-7.87,31.6-19.55,35.3-8.3,2.63-15.49-5.25-21.26-9.97-.9-.07-5.78,4.82-7.13,5.66-5.39,3.38-14.84,4.58-20.55,1.55-1.27-.68-1.16-4.38-1.59-6.02-.97-3.73-2.74-7.53-4.86-10.75-3.15-4.82-7.1-9.28-13.11-10.08-11.55-1.54-21.48,9.8-28.1,17.77-8.31-3.8-10.33-13.04-8.43-21.38,2.26-9.94,9.04-17.57,14.24-25.9.61-.97,4.28-6.9,4.28-7.33.01-1-4.93-4.16-6.02-5.13-7.1-6.36-17.23-21.97-12.45-31.61,4.52-9.12,20.99-9.14,29.51-6.85.96.49,3.01,5.71,3.93,7.22,7.52,12.38,23.23,21.22,36.86,25.13,15.89,4.55,34.62,5.62,49.39-2.79,4.84,14.64,7.37,29.8,4.84,45.19Z"/>
    <g>
      <path d="M572.86,470.31c.99,1.5-2,2.05-2.95,2.17-11.26,1.38-28.22-.94-40.06-1.3-2.17-.07-6.55.99-8.27-.21-2.1-1.45,2.01-2.46,3.1-2.7,9.99-2.17,26.44-1.34,36.76-.14,1.51.17,11.03,1.6,11.42,2.18Z"/>
      <path d="M570.64,484.13c.79,1.21-1.15,1.92-2.11,2.12-9.3,1.88-26.79,1.39-36.45.55-1.55-.13-10.93-.81-10.92-2.45,2.38-2.4,6.46-1.36,9.6-1.54,11.1-.65,24.63-1.08,35.65.43.66.09,4.12.71,4.24.89Z"/>
      <path d="M542.45,459.73c6.03-.22,24.33-1.05,28.95,1.56,2.65,1.5-.72,2.16-2.33,2.32-11.04,1.1-31.64,1.92-42.35.45-1.84-.25-6.79-.9-3.48-3.02,6.4-.4,12.81-1.07,19.21-1.3Z"/>
      <path d="M540.67,490.06c5.43-.48,15.23-.07,20.82.32,1.39.1,5,.51,6.13,1.01,2.23.99,2.16,2.6-.35,2.98-9.67,1.46-23.75,1.16-33.42-.42-1.6-.26-.97-1.39.06-2.18,1.59-1.22,4.78-1.53,6.76-1.71Z"/>
      <path d="M553.15,475.33c4.08-.43,14.84-.32,18.1,2.16,2.16,1.65-.54,2.5-2.15,2.64-6.64.6-13.73-.89-20.43-.58-5.85-2.19,1.88-3.95,4.47-4.23Z"/>
      <path d="M522.03,479.66c-.1-3.17,5.77-3.9,8.23-4.02,2.25-.11,12.03.59,13.41,1.78,2.67,2.29-2.9,3.04-4.46,3.16-1.99.15-16.69-.18-17.18-.91Z"/>
      <path d="M531.26,491.84c3.98,4.73-11.68,3.25-11.93.53-.34-3.67,9.96-2.87,11.93-.53Z"/>
    </g>
    <path d="M433.29,263.81c.12,3.51,1.03,7.48.91,10.95-.27,8.05-5.93,21.53-13.09,25.71-1.29.75-3.62,2.16-3.88-.32-.21-2.04,9.63-18.5,11.23-22.21,2.12-4.91,2.75-8.37,3.94-13.46.16-.69-.3-.78.88-.67Z"/>
    <path d="M637.06,378.18c-4.24,1.06-19.09,12.05-16.03-.64,4.47,1.76,12.58-2.44,14.81-6.37,2.2-3.88,1.76-9.97-3.72-9.86-5.72.11-12.97,6.88-15.18,11.91-.69,1.57-1.17,5.21-1.67,5.92-.22.32-6.15,3.99-6.61,4.11-2.71.72-2.01-3.07-1.67-4.81,5.95-6.48,11.89-13.03,16.34-20.67,2.33-4,6.8-11.18,4.32-15.63-2.27-4.08-6.47-2.61-9.26-.01-3.6,3.35-10.61,19.42-12.75,24.71-2.3,5.67-1.84,9.3-7.15,13.36-1.88,1.44-6.7,3.65-6.43-.15.32-4.54,6.05-12.65,10.23-14.34.61-.25,3.35-.4,1.35-1.78-3.11-2.13-9.28,3.54-11.08,5.88-1.61,2.09-2.7,5.48-4.08,7.07-.69.79-7.06,5.5-7.58,5.12-3.05-5.51,5.89-15.09,5.78-18.98-.04-1.32-3.48-2.07-4.63-2.46-4.38,6.93-9.36,13.55-13.09,20.87l-.1,2.35c3.24-.4,4.4-3.6,6.68-5.35-.39,5.15,2.1,9.54,7.83,7.6,2.16-.73,3.05-2.95,5.1-3.59,1.46,6.52,10.29,4.11,14.04.89,2.88,7.31,8.48,3.26,12.93,0,3.81,9.58,17.83,3,22.08-2.9.67-.94,1.6-2.77-.46-2.25ZM632.17,366.39c.25,5.1-5.71,7.56-9.81,8.92-1.31-1.35,7.6-9.35,9.81-8.92ZM613.89,361.48c.44-.88.92-1.79,1.34-2.68,1.53-3.27,2.62-6.86,4.55-9.95.31-.5,2.74-4.19,3.48-3.43-1.55,5.2-4.67,9.78-7.58,14.27-.47.72-.85,1.51-1.34,2.23-.51.75-.93,1.83-1.78,2.23-.17-1.12.95-1.91,1.33-2.68Z"/>
    <path d="M574.19,335.85c-5.97-7.11-16.21-1.76-17.63,6.43-1.06,6.13.99,11.56,2.42,17.35-2.56,1.6-14.21,8.69-14.65,11.01-.07.36,0,.74,0,1.1.73.83,14.33-7.52,16.04-8.47,3.06,8.87,5.33,19.19-2.21,26.55-7.27,7.09-20.65,2-16.6-7.68.66-1.58,1.93-2.19,2.32-3.7-2.94-.57-5.7,3.58-6.13,6.12-2.09,12.33,14.23,16.68,22.87,9.49,10.5-8.73,8.53-22.19,4.38-33.69,7.18-5.28,16.67-15.62,9.2-24.51ZM563.51,355.68c-1.31-4.64-3.51-10.7-.65-15.14,1.49-2.32,4.77-3.93,7.08-1.77,4.31,4.03.58,10.02-2.43,13.56-.5.59-3.41,3.79-3.99,3.36Z"/>
    <path d="M591.96,391.94c-25.74,1.08-41.75,38.65-21.32,55.85,8.58,7.22,28.62,7.87,34.3-2.76.45-.84.12-1.66.29-1.94.41-.68,4.27-3.59,5.33-4.89,14.09-17.2,6.62-47.31-18.6-46.26ZM603.96,441.9c-.31.58.06,1.34-.13,1.65-.87,1.45-9.71,4.82-11.68,5.23-7.52,1.56-15.54-.99-20.41-7.02-12.03-14.91.2-41.78,18.86-44.03,19.45-2.34,25.91,17.42,20.06,33-1.8,4.8-4.63,7.29-6.71,11.17Z"/>
    <path d="M591.02,343.29c-1.01.23-4.48,2.3-5.43,3.04-7.64,5.94-4.91,15.3,4.67,10.91,7.55-3.46,8.75-15.78.76-13.96ZM586.69,353.01c-.79-1.71,4.51-7.1,5.34-6.24-.27,3.29-2.48,5.11-5.34,6.24Z"/>
    <g>
      <g>
        <path d="M655.83,407.62c-1.39-1.09-4.01-1.98-4.73.22-.41,1.27-2.05,13.79-1.54,14.3,6.79,1.26,10.96-10.82,6.27-14.52Z"/>
        <path d="M650.81,398.62c-28.78,3.47-29.9,54.65,1.61,51.12,28.41-3.18,29.66-54.89-1.61-51.12ZM645.6,442.61l3.97-37.09c12.04-4.2,12.73,11.08,5.36,16.84,9.23,6.01.6,21.57-9.33,20.25Z"/>
      </g>
      <path d="M649.21,424.45c-.95,1.1-.84,13.05-1.85,15.35.03,1.87,3.33.38,4.31-.18,5.35-3.02,7.91-14.89.75-15.7-.6-.07-2.95.22-3.22.52Z"/>
    </g>
  </g>
</svg>