<?xml version="1.0" encoding="UTF-8"?>
<svg id="Graphic_9" data-name="Graphic 9" xmlns="http://www.w3.org/2000/svg" viewBox="0 0 960 960">
  <defs>
    <style>
      .cls-1 {
        fill: #fc5454;
      }

      .cls-2 {
        fill: #f9de3e;
      }

      .cls-3 {
        fill: #f2ead5;
      }
    </style>
  </defs>
  <path class="cls-1" d="M578.79,680.48c-6.56-.62-15.89,1.85-23.25,13.67-.43.68-1.08,1.77-1.87,3.16-12.4-6.64-30.76-18.09-48.86-35.31,8.63-8.01,16.93-17.3,24.08-27.99,25.77-2.86,52.52-5.52,79.16-7.7-21.05,13.71-27.73,35.92-29.26,54.17ZM304.3,590.43c-8.59-13.27-23.25-19.26-30.91-21.59,2.29-10.42-3.1-20.04-12.61-26.46,2.11-3.29,4.45-6.29,6.93-9.02,10.1,17.18,22.6,33.29,37.22,47.55-.19,3.26-.4,6.44-.63,9.52ZM852.36,455.3c-1.28-15.34-9.3-21.59-15.71-23.43.04-3.66-.62-9.16-4.06-14.3-4.09-6.11-10.9-10.07-20.23-11.75-23.68-4.26-42.85,10.64-47.72,14.88-6.93.42-32.76,4.06-35.19,34.41-.46,5.71.05,11.01,1.2,15.89-4.83,4.57-7.3,11.46-6.99,19.72.15,4.19,1.03,8.51,2.54,12.79-4.93,3.51-12.83,7.58-22.86,7.54l27.92-244.17s-61.47-16.04-131.43-31.91c-54.4-41.12-129.22-54.96-195.32-36.65-39.04-5.26-110.44-7.75-110.44-7.75,0,0,2.18,31.71,4.41,71.55-58.1,60.26-77.33,153.35-49.01,231.94-16.73,12.56-25.77,28.67-30.62,41.79-18.73,4.69-31.84,18.26-27.37,34.47-38.89,24.37-35.55,89.89,9.08,99.4,11.65,13.44,35.4,16.64,54.14,8.15,15.52,1.62,40.01-8.33,41.76-32.43,2.45-2.11,6.98-6.6,10.35-13.33,4.9-.15,15.38-.48,30.07-.94l-.25,29.23c.9-.14,45.34-7.6,108.05-16.02,2.18,3.85,4.44,7.56,6.79,11.13-8.12,5.81-17.3,11.31-27.53,15.81-4.59-10.89-16.26-20.74-28.73-10.01-11.37-2.91-30.95-3.15-38.49,13.24l-15.08,1.84c-1.15,2.38-11.41,29.25-13.21,46.22l4.55,4.26c-4.57,48.33,2.81,70.82,59.98,70.19,28.74.75,68.7-9.03,78.76-23.57,2.55-3.06,5.81-12.51-1.68-17.85-3.46-18.19-18.04-34.18-42.23-41.22.92-2.01,1.71-4.57,2.02-7.71,9.21-3.32,23.13-9.06,38.44-17.9,2.13-1.23,4.34-2.56,6.58-3.97,10.83,11.36,21.7,20.35,30.95,27.08,17.72,12.9,32.46,19.93,37.8,22.28.35,2.02.94,3.97,1.85,5.78,2.83,5.65,8.04,9.13,15.51,10.38,1.18,3.56,4.14,9.48,11.47,14.98.21,2.47.83,4.56,1.94,6.13,4.53,6.43,10.98,10.28,19.24,11.56.18.08.36.15.53.22l.05-.13c1.86.26,3.8.39,5.83.39,2.67,0,5.5-.22,8.47-.67,18.54-2.76,35.02-18.19,46.42-43.43l-1.03-10.93c1.31-3.07,7.5-15.17,27.93-28.08,17.12-10.83,26.78-39.07,20.67-60.45-1.61-5.63-5.13-13.4-12.79-19.22l9.22-71.17c4.59.9,8.98,1.31,13.13,1.31,12.23,0,22.45-3.39,29.94-7.07,5.67-2.79,10.29-5.97,13.77-8.73,3.45,1.26,6.91,1.92,10.22,1.92,4.59,0,8.92-1.26,12.6-3.9,1.11-.8,2.11-1.7,3.02-2.68,3.93,1.79,8.39,3.25,13.45,4.14,2.14.38,4.28.57,6.41.57,9.56,0,18.91-3.78,27.38-11.13,6.11-5.3,10.03-10.96,11.43-13.14,15.85-9.58,24.09-20.11,24.51-31.31.46-12.24-8.65-21.09-12.42-24.23Z"/>
  <path class="cls-2" d="M590.43,662.3c-2.79,9.84-4.93,24.04-1.93,40.93,0,0-1.23-.76-2.88-2.37-4.25,2.77-8.02,9.74-8.02,9.74-1.64-4.74.85-12.74,2.57-17.29-.71-1.44-1.35-3.05-1.87-4.82-.44-.06-.92-.09-1.45-.1-3.68-.02-9.31,1.63-14.52,10-7.93,12.75-14.02,29.45-9.74,38.02,1.7,3.39,5.07,5.4,10.24,6.14.8-7.6,5.99-9.35,5.99-9.35-2.49,11.1,1.91,18.34,4.57,21.53,2.4-11.01,8.61-24.73,15.79-36.26,5.77-9.26,6.15-14.67,6.79-23.62.63-8.81,1.49-20.88,8.04-41.84,3.01-9.63,7.46-16.93,12.48-22.49-10.24,5.53-20.58,15.13-26.07,31.8ZM557.21,457.77c4.4-1.14,8.66-4.03,11.99-8.14,3.33-4.11,5.28-8.88,5.48-13.42.18-4.09-1.1-7.47-3.61-9.5-1.69-1.37-3.85-2.07-6.29-2.07-1.19,0-2.45.17-3.75.5-4.4,1.14-8.66,4.03-11.99,8.14-6.48,8-7.33,18.49-1.86,22.92,1.57,1.27,3.55,1.97,5.79,2.06,1.34.05,2.77-.11,4.26-.49ZM434.63,725.23c-18.57-4.28-39.75-3.34-55.65,18.86-.2-8.75,7.27-19.66,16.27-23.75-5.6-6.77-4.7-17.53-.84-22.91-.33,8.24,3.09,15.33,9.77,19.45,3.94-1.09,8.5-1.88,13.77-2.25,1.02-.98,1.68-1.18,3.15-5.02-1.34.41-2.72.79-4.03,1.13-9.03-3.62-12.9-13.45-12.87-22.53.13-4.77-.58-12.44,3.99-15.12l2.27,3.33c1.56-.5,3.09-1.02,4.61-1.57-.63-3.89-4.41-12.71-11.1-8.77-8.77,4.61-11.17,21.1-11.17,21.1,0,0-2.24-4.54-3.02-10.37-1.12,1.12-2.66,2.7-3.62,3.72-.48-4.13,1.41-9,3-12.27-9.83-1.79-22.44.45-25.88,11.3-6.63,16.23-18.27,66.02-5.83,83.68,4,6.72,10.04,10.63,18.47,11.95,30.54,6.32,79.13-4.95,85.84-15.31,2.3-11.6-12.64-28.36-27.13-34.66Z"/>
  <path class="cls-3" d="M475.03,640.42c-2.89.36-5.75.73-8.58,1.09,8.16,11.87,37.52,51.13,80.57,69.88.93-2.46,1.94-4.81,2.94-6.94-6.7-3.57-15.06-8.49-24.22-14.93-14.93-10.49-34.08-26.66-50.71-49.11ZM374.68,783.1c-43.75-6.42-30.98-69.82-20.98-100.14l-6.36.77c-1.98,5.23-6.93,18.86-9.44,30.86h5.29c-3.25,15.41-8.34,51.85,7.15,65.86,6.75,5.49,23.54,8.69,43.22,8.61,26.42.12,65.02-7.53,72.76-22.34-11.53,12.32-61.3,22.59-91.64,16.38ZM332.4,581.35c-20.49-16.61-37.82-37.07-50.81-60.03-2.68,1.84-5.37,3.91-7.99,6.23,15.59,27.21,37.51,51.36,63.03,69.61l-.09-12.53c-1.39-1.07-2.77-2.16-4.14-3.27ZM346.99,244.27c72.01-51.1,179.37-46.38,246.22,8.27,5.92.52,11.73,1.04,17.43,1.56-167.13-149.35-426.89,23.39-354.33,235.3,8.94-5.43,17.7-8.99,28.42-11.74,4.33-21.48,17.21-10.94,22.39,1.96,1.57,2.4,2.41,7.11,4.51,4.9,5.58-5.15,4.28-22.8,13.84-23.51,8.02-.2,8.72,7.33,10.23,12.47l-.69-93.32c-17.63,7.72-10.87-17.12-16.69-23.92-5.63,5.68-8.81,26.47-17.99,27.35-13.96.16-4.57-40.57-12.33-46.87-11.28,5.81-22.24,28.4-29.54,40.49,9.54-48.53,36.91-92.86,75.6-123.46-.02-2.03-.05-6.13-.06-8.16,4.25-.48,8.68-.96,12.96-1.31ZM703.43,519.06c-.33,0-.67-.01-1.01-.02l-.99,8.67c.84.04,1.78.06,2.79.05,7.1-.11,18.16-1.99,29.11-10.67-1.44-2.01-2.73-4.09-3.87-6.2-6.01,3.99-14.95,8.18-26.03,8.18ZM761.23,514.02c-.11,2.56.33,5.04.33,5.04-10.21-5.42-14.58-15.91-16.23-21.45-4.18-4.57-8.51-10.44-11.62-17.53-1.49,2.77-2.2,6.29-2.05,10.34.26,7.22,3.19,15.06,8.23,22.09,7.42,10.33,18.04,16.55,26.5,16.42,2.82-.04,5.4-.79,7.54-2.33.11-.08.22-.18.33-.26-6.03-4.01-10.26-8.62-13.02-12.31ZM812.44,510.27c-5.41-4.13-7.1-10.44-7.61-14.46-2.18-.43-4.24-1.23-6.17-2.39-6.06-3.65-9.16-10-10.49-13.58-23.13-1.87-22.85-27.9-22.85-27.9,8.55,12.89,17.39,20.01,24.22,19.88,1.58-.03,3.05-.45,4.38-1.27,7.05-4.34,7.76-16.54,3.66-23.74-9.7-17.03-29.16-18.09-31.24-18.16h-.2s-.09,0-.17,0c-2.47,0-26.43.67-28.54,27.1-.59,7.35.78,13.97,3.14,19.76,1.21,2.75,12.65,27.37,34.36,27.45,1.45,0,2.94-.1,4.48-.32,0,0-3.67,5.56-11.74,6.66,4.36,5.82,13.32,14.65,28.79,17.38,1.73.31,3.42.44,5.05.44,11.45-.03,20.47-7.09,26.07-13.06-.83.06-1.65.11-2.44.11-5.04,0-9.28-1.3-12.68-3.89ZM593.73,737.32c4.38-7.44,8.91-15.13,11.02-24.72.6-2.74,1.01-6.87,1.48-11.66,1.27-12.96,3.2-32.54,11.84-49.74,5.93-11.81,14.29-20.96,24.92-27.47-1.02.07-2.05.13-3.07.2-10.7,4.08-22.45,12.84-28.26,31.43-6.28,20.08-7.07,31.14-7.7,40.03-.68,9.48-1.17,16.34-7.98,27.28-5.75,9.24-10.62,19.6-13.36,28.42-3.1,10-2.48,14.68-1.72,15.76.67.96,1.41,1.83,2.21,2.62-.61-3.24-.5-7.07.77-11.51,2.18-7.62,6.08-14.24,9.86-20.66ZM668.92,677.13c-1.83,4.92-4.67,9.19-8,12.02-2.78,2.36-5.71,3.58-8.5,3.58-.41,0-.81-.03-1.21-.09-.04,0-.07,0-.11,0-3.98-.55-9.7-3.05-11.59-12.6,0,0,1.18,1.23,2.77,2.55-.02-.13-.06-.25-.08-.38-.68-4.32-.05-9.4,1.77-14.33,3.57-9.64,10.66-15.89,17.06-15.56.91.05,1.81.23,2.69.55,6.99,2.59,9.27,13.25,5.19,24.26ZM673.85,622.01c-1.86.09-3.73.18-5.6.27-47.25,10.42-51.49,53.44-54.05,79.45-.5,5.04-.92,9.39-1.63,12.59-.09.4-.19.78-.28,1.17,13.06,8.35,28.5,9.18,34.57,9.14,2.3-5.04,9.78-17.78,30.71-31.01,13.92-8.8,22.3-33.82,17.25-51.49-2.23-7.79-7.73-16.77-20.96-20.13ZM600.62,741.38c-3.68,6.25-7.16,12.16-9.06,18.79-2.75,9.64,2.18,13.77,4.48,15.12,1.67.19,3.44.26,5.31.2,1.88-.06,3.86-.24,5.96-.56,14.46-2.15,27.71-13.95,37.71-33.42-8.43-.11-23.54-1.86-38.22-11.25-1.93,3.9-4.07,7.53-6.18,11.11ZM807.41,424.76s-5.21,6.72-7.24,11.85c1.56,1.86,3.03,3.92,4.35,6.24,3.23,5.67,4.21,12.4,3.24,18.56,5.77-3.21,14.5-10.59,20.7-27.25.19-1.2.89-7.11-2.58-12.22-2.85-4.2-7.87-6.97-14.95-8.25-2.71-.49-5.36-.67-7.93-.61-11.14.25-20.74,5.02-26.87,9.01,4.84,1.21,10.83,3.43,16.49,7.51,3.02-2.03,7.89-4.36,14.79-4.85ZM507.4,511.1c-6.12-.81-13.18-1.87-21.31-3.27-3.26-.56-6.36-.92-9.32-1.1-1.79,9.91-7.17,38.46-12.63,56.38,6.58,3.69,18.61,9.17,35.1,11.47,5.35-22.78,7.53-52.86,8.16-63.48ZM468.64,506.71c-9.21.62-16.43,3.49-21.27,8.55-6.95,7.25-7.74,17.61-6.16,24.89.97,4.47,6.31,11.7,15.92,18.52,4.83-16.61,9.61-41.56,11.52-51.95ZM548.98,570.85c-.18-21.6-6.7-48.41-9.07-57.46-1,.04-2.23.07-3.71.07-4.43-.01-11.13-.32-20.84-1.39-.66,11.1-2.79,40.2-8.1,63.33,2.26.15,4.59.24,6.98.25,10.38.06,22.01-1.27,34.73-4.79ZM580.3,500.1c-9.42,4.61-20.19,9.17-32.44,12.04,2.53,9.7,8.5,34.66,9.08,56.28,18.17-6.05,31.78-12.99,41.98-19.89-2.91-18.72-14.16-40.39-18.61-48.43ZM804.02,471.48c-1.56,2.4-3.54,4.42-5.91,5.88-.54.33-1.19.68-1.91,1,1.13,2.59,3.21,6.18,6.62,8.22,1.78,1.07,3.74,1.6,5.93,1.6,1.31,0,2.7-.18,4.18-.56,16.03-4.07,28.34-16.06,31.52-30.63-.72-12.49-6.24-16.2-9.56-17.3-10.38,25.3-26.72,30.77-30.87,31.77ZM605.28,373.68c3.24,4.27,5.63,10.21,6.62,17.16l-19.01,7.46,17.37,14.07c-3.32,10.61-10.02,17.38-17.3,17.56,6.83,5.44,15.32,8.68,24.52,8.68,22.49,0,40.79-19.33,40.79-43.08,0-20.84-14.08-38.25-32.72-42.22-6.86,6.52-13.69,14.05-20.28,20.38ZM435.04,446.4c-2.97-.03-5.82-.89-8.48-2.4,9.44,10.73,22.91,17.46,37.85,17.46,28.49,0,51.66-24.46,51.66-54.52,0-5.31-.74-10.43-2.09-15.28-4.41-1.7-8.66-4.68-11.89-8.84-7.86-10.11-16.94-20.54-27.75-29.37-3.21-.67-6.53-1.02-9.92-1.02-9.71,0-18.8,2.85-26.56,7.78,11.38,1.41,21.01,14.64,23.61,32.86l-25.92,10.17,23.69,19.19c-4.62,14.76-14.03,24.09-24.18,23.97ZM245.46,608.09s-1.28,20.26,5.45,31.77c0,0-20.19-10.85-5.45-31.77ZM224.68,608.9s-1.28,20.26,5.45,31.77c0,0-20.19-10.85-5.45-31.77ZM203.9,609.7s-1.28,20.26,5.45,31.77c0,0-20.19-10.85-5.45-31.77ZM301.87,604.61c-4.71-18.59-23.82-26.03-31.59-28.33-16.19,23.4-57.92,23.64-75.15,1.39-29.42,20.2-32.98,69.77,3.43,83.21-.94-7.08,2.13-10.98,2.13-10.98,4.32,25.51,28.54,25.53,44.49,22.11-6.87-5.28-9.53-13.42-7.69-21.07,7.41,24.62,45.15,22.53,50.02-1.66-9.47-6.23-17.1-19.06-10.98-30.79,1.63,7.56,7.09,17.97,15.65,20.12,3.04-3.03,6.77-6.69,7.51-11.24.91-6.85,3.92-15.27,2.19-22.76ZM223.81,560.97c.5.35,1.03.66,1.56.95,7.47-35.18,36.03-64.54,71.57-72.52-.74-2.08-1.9-3.97-3.46-5.49-29.73,5.21-54.5,23.56-65.71,51.12-1.87,6.47-9.41,20.76-3.96,25.94ZM232.24,585.97c26.02.59,46.02-20.97,24.69-36.69-1.58,3.27-2.91,6.77-3.92,10.31,3.49-2.01,5.46-3.9,5.46-3.9,3.36,10.32-11.65,17.77-20.72,17.13-9.98-.51-33.49-5.87-27.87-19.55,1.26,1.06,2.54,2.08,3.84,3.05.32-3.55,1.01-6.54,2.21-11.31-31.49,11.4-15.58,42.03,16.3,40.97ZM617.12,484.38c-5.47-.17-13.06,3.41-25.11,9.73-1.47.77-2.99,1.57-4.55,2.38,4.48,8.08,14.75,27.94,18.62,46.77,14.22-11.4,19.74-22.09,21.83-27.86,3.34-9.25,2.72-17.92-1.8-25.07-2.5-3.95-5.25-5.83-8.99-5.95ZM412.34,684.23c-.12,1.34-.2,3.17-.08,5.17,13.43-2.42,26.54-8.6,38.25-16.04-1.21-1.99-2.24-3.84-3.07-5.4-3.86,2.4-7.92,4.71-12.18,6.88-7.3,3.71-14.97,6.89-22.92,9.39ZM850.55,464.61c-5.5,14.78-18.87,26.52-35.65,30.78-.67.17-1.33.3-1.99.42.45,2.57,1.59,6,4.41,8.13,1.88,1.42,4.41,2.16,7.5,2.2,3.09.05,6.75-.59,10.89-1.91,13.66-8.17,20.75-16.58,21.07-25,.23-6.15-3.21-11.31-6.24-14.62Z"/>
  <path d="M835.72,504.23c-4.14,1.32-7.8,1.96-10.89,1.91-3.09-.05-5.62-.78-7.5-2.2-2.83-2.14-3.96-5.56-4.41-8.13.66-.12,1.32-.25,1.99-.42,16.78-4.25,30.15-15.99,35.65-30.78,3.02,3.31,6.47,8.47,6.24,14.62-.32,8.43-7.41,16.84-21.07,25ZM801.5,527.11c-1.64,0-3.32-.13-5.05-.44-15.47-2.73-24.43-11.56-28.79-17.38,8.07-1.11,11.74-6.66,11.74-6.66-1.54.23-3.03.33-4.48.32-21.71-.09-33.15-24.7-34.36-27.45-2.36-5.79-3.73-12.41-3.14-19.76,2.11-26.43,26.07-27.11,28.54-27.1.08,0,.14,0,.17,0h.2c2.08.07,21.54,1.13,31.24,18.16,4.1,7.21,3.39,19.4-3.66,23.74-1.33.82-2.8,1.24-4.38,1.27-6.83.13-15.67-7-24.22-19.88,0,0-.28,26.03,22.85,27.9,1.34,3.58,4.44,9.93,10.49,13.58,1.93,1.17,3.99,1.96,6.17,2.39.51,4.03,2.2,10.33,7.61,14.46,3.4,2.59,7.64,3.89,12.68,3.89.79,0,1.61-.04,2.44-.11-5.59,5.97-14.62,13.03-26.07,13.06ZM773.92,526.59c-2.14,1.54-4.72,2.28-7.54,2.33-8.46.13-19.08-6.08-26.5-16.42-5.04-7.03-7.97-14.87-8.23-22.09-.15-4.05.57-7.57,2.05-10.34,3.11,7.09,7.44,12.96,11.62,17.53,1.66,5.54,6.02,16.04,16.23,21.45,0,0-.44-2.48-.33-5.04,2.76,3.69,7,8.3,13.02,12.31-.11.09-.21.18-.33.26ZM704.22,527.76c-1.01.02-1.95,0-2.79-.05l.99-8.67c.34,0,.68.02,1.01.02,11.08,0,20.02-4.19,26.03-8.18,1.14,2.12,2.43,4.19,3.87,6.2-10.95,8.68-22,10.56-29.11,10.67ZM683.55,613.73c-2.77.1-5.57.22-8.36.34-3.68-.87-7.81-1.39-12.49-1.44-.48-.04-1.71-.13-3.5-.13-3.94,0-10.62.42-18.13,2.68-2.19.19-5.08.55-8.42,1.23-126.86,8.34-261.33,28.45-287.64,32.5l-2.94-396.16c16.76-1.67,36.74-2.4,58.67-2.43,118.39-.17,293.29,20.14,321.66,23.53l-38.86,339.88ZM694.81,642.14c5.05,17.67-3.34,42.69-17.25,51.49-20.92,13.23-28.4,25.96-30.71,31.01-6.07.04-21.5-.79-34.57-9.14.09-.39.2-.77.28-1.17.7-3.21,1.13-7.56,1.63-12.59,2.56-26.01,6.8-69.03,54.05-79.45,1.87-.09,3.74-.18,5.6-.27,13.23,3.36,18.73,12.35,20.96,20.13ZM609.69,723.79c.17-.44.33-.9.5-1.35,13.79,8.16,29.03,9.23,36.03,9.23.03,0,.05,0,.08,0l.44,2.84c-7.15.07-22.53-1.09-37.04-10.72ZM607.32,774.93c-2.1.31-4.08.5-5.96.56-1.88.06-3.65,0-5.31-.2-2.3-1.35-7.23-5.48-4.48-15.12,1.9-6.63,5.37-12.54,9.06-18.79,2.11-3.58,4.25-7.21,6.18-11.11,14.68,9.39,29.8,11.13,38.22,11.25-10,19.47-23.25,31.26-37.71,33.42ZM583.1,769.48c-.79-.8-1.53-1.67-2.21-2.62-.76-1.08-1.38-5.76,1.72-15.76,2.74-8.82,7.61-19.18,13.36-28.42,6.81-10.94,7.3-17.8,7.98-27.28.64-8.89,1.43-19.95,7.7-40.03,5.81-18.59,17.56-27.35,28.26-31.43,1.02-.07,2.05-.14,3.07-.2-10.63,6.51-18.99,15.66-24.92,27.47-8.64,17.19-10.56,36.78-11.84,49.74-.47,4.78-.88,8.91-1.48,11.66-2.11,9.59-6.64,17.28-11.02,24.72-3.78,6.41-7.68,13.04-9.86,20.66-1.27,4.44-1.38,8.27-.77,11.51ZM573.4,754.72c-2.66-3.19-7.06-10.43-4.57-21.53,0,0-5.19,1.75-5.99,9.35-5.17-.75-8.55-2.76-10.24-6.14-4.29-8.56,1.8-25.26,9.74-38.02,5.21-8.37,10.84-10.02,14.52-10,.53,0,1.01.04,1.45.1.52,1.78,1.16,3.39,1.87,4.82-1.72,4.55-4.21,12.55-2.57,17.29,0,0,3.77-6.96,8.02-9.74,1.65,1.61,2.88,2.37,2.88,2.37-3-16.89-.86-31.09,1.93-40.93,5.5-16.67,15.83-26.27,26.07-31.8-5.02,5.55-9.48,12.86-12.48,22.49-6.55,20.97-7.41,33.03-8.04,41.84-.64,8.96-1.03,14.36-6.79,23.62-7.18,11.53-13.39,25.25-15.79,36.26ZM504.8,662.01c8.63-8.01,16.93-17.3,24.08-27.99,25.77-2.86,52.52-5.52,79.16-7.7-21.05,13.71-27.73,35.92-29.26,54.17-6.56-.62-15.89,1.85-23.25,13.67-.43.68-1.08,1.77-1.87,3.16-12.4-6.64-30.76-18.09-48.86-35.31ZM547.02,711.4c-43.05-18.75-72.41-58.01-80.57-69.88,2.83-.36,5.69-.73,8.58-1.09,16.63,22.46,35.78,38.62,50.71,49.11,9.17,6.44,17.52,11.35,24.22,14.93-1,2.13-2.01,4.47-2.94,6.94ZM334.02,245.58c.01,2.03.05,6.13.06,8.16-38.69,30.6-66.06,74.93-75.6,123.46,7.06-12.19,18.32-33.77,29.03-40.51,8.94,5.07-1.52,47.21,12.84,46.89,9.16-.87,12.38-21.68,17.98-27.35,5.8,6.78-.91,31.67,16.69,23.92l.69,93.32c-1.5-5.14-2.21-12.68-10.23-12.47-9.56.71-8.26,18.36-13.84,23.51-2.1,2.23-2.95-2.51-4.52-4.9-5.18-12.92-18.08-23.42-22.39-1.96-10.72,2.75-19.48,6.31-28.42,11.74-72.58-212.02,187.34-384.6,354.33-235.3-5.7-.52-11.52-1.05-17.43-1.56-54.72-44.27-138.69-57.4-205.8-29.64-11.85,4.69-23.27,10.47-34.06,17.23-5.46,4.93-12.41,4.73-19.33,5.45ZM308.96,573.67c-13.88-13.9-25.64-29.23-35.36-46.13,2.62-2.32,5.31-4.38,7.99-6.23,13.86,24.49,32.65,46.14,54.95,63.3l.09,12.53c-9.75-6.99-19.01-14.83-27.67-23.48ZM321.73,623.63c-4.88.15-8.89.28-11.89.37,2.04-11.09.96-23.99,2.66-35.96,3.49,3.12,7.06,6.11,10.7,8.99l-1.48,26.6ZM304.3,590.43c-8.59-13.27-23.25-19.26-30.91-21.59,2.29-10.42-3.1-20.04-12.61-26.46,2.11-3.29,4.45-6.29,6.93-9.02,10.1,17.18,22.6,33.29,37.22,47.55-.19,3.26-.4,6.44-.63,9.52ZM302.32,611.03c-1.57,10.67-1.47,20.69-10.15,27.58-8.55-2.14-14.02-12.57-15.65-20.12-6.11,11.74,1.51,24.55,10.98,30.79-4.87,24.2-42.61,26.28-50.02,1.66-1.83,7.66.82,15.79,7.69,21.07-15.96,3.42-40.16,3.39-44.49-22.11,0,0-3.07,3.9-2.13,10.98-36.43-13.47-32.83-63-3.43-83.21,17.23,22.25,58.96,22.01,75.15-1.39,8.29,1.51,33.95,14.99,32.04,34.74ZM215.94,545c-1.2,4.77-1.89,7.75-2.21,11.31-1.3-.97-2.58-1.99-3.84-3.05-5.62,13.68,17.89,19.04,27.87,19.56,9.06.65,24.08-6.81,20.72-17.13,0,0-1.97,1.89-5.46,3.9,1.01-3.53,2.34-7.03,3.92-10.31,21.33,15.73,1.34,37.28-24.69,36.69-31.89,1.06-47.78-29.57-16.3-40.97ZM221.77,556.01c5.36-36.89,34.34-66.14,71.71-72.1,1.56,1.52,2.72,3.41,3.46,5.49-35.54,7.98-64.1,37.34-71.57,72.52-2.3-1.03-4.07-3.22-3.61-5.91ZM306.96,198.39c1.46,0,2.95.01,4.45.03,3.01.04,6.1.11,9.28.22,14.29.48,30.22,1.62,47.69,3.41,5.82.6,11.82,1.27,17.98,2.01-5.73,2.12-11.39,4.41-16.94,6.96-13.47-2.31-37.69-3.21-37.69-3.21l6.47,7.28h-7.28l1.62,5.66-7.68-5.66h0v8.9l-6.07-8.9h0v27.91c-4.35,3.62-8.58,7.45-12.69,11.39-.1-1.7-.2-3.37-.29-5.02-.24-4.11-.47-8.04-.7-11.77-.09-1.49-.18-2.96-.27-4.39-.09-1.43-.17-2.83-.26-4.19-.08-1.36-.17-2.69-.25-3.99-.36-5.83-.69-10.96-.97-15.29-.31-4.81-.57-8.64-.75-11.34,1.42-.01,2.87-.02,4.33-.02ZM803.01,413.08c2.57-.06,5.22.12,7.93.61,7.08,1.27,12.11,4.05,14.95,8.25,3.46,5.11,2.76,11.02,2.58,12.22-6.19,16.66-14.93,24.04-20.7,27.25.97-6.16-.01-12.89-3.24-18.56-1.32-2.32-2.79-4.38-4.35-6.24,2.02-5.13,7.24-11.85,7.24-11.85-6.9.49-11.77,2.82-14.79,4.85-5.66-4.08-11.65-6.3-16.49-7.51,6.13-3.99,15.74-8.76,26.87-9.01ZM834.89,439.7c3.33,1.1,8.85,4.81,9.56,17.3-3.18,14.57-15.49,26.56-31.52,30.63-1.48.38-2.87.56-4.18.56-2.18,0-4.15-.54-5.93-1.6-3.41-2.04-5.49-5.63-6.62-8.22.72-.33,1.37-.67,1.91-1,2.37-1.46,4.35-3.49,5.91-5.88,4.15-1,20.49-6.47,30.87-31.77ZM412.25,689.4c-.12-2-.03-3.82.08-5.17,7.95-2.51,15.62-5.68,22.92-9.39,4.26-2.16,8.31-4.47,12.18-6.88.83,1.55,1.86,3.41,3.07,5.4-11.71,7.44-24.82,13.62-38.25,16.04ZM434.63,725.23c14.49,6.29,29.44,23.1,27.13,34.66-6.84,10.39-55.21,21.63-85.84,15.31-8.43-1.32-14.47-5.23-18.47-11.95-12.44-17.72-.8-67.42,5.84-83.68,3.44-10.84,16.04-13.09,25.88-11.29-1.6,3.27-3.48,8.14-3,12.27.97-1.02,2.5-2.6,3.62-3.72.78,5.82,3.02,10.37,3.02,10.37,0,0,2.39-16.48,11.17-21.1,6.68-3.94,10.48,4.9,11.1,8.77-1.52.55-3.05,1.07-4.61,1.57l-2.27-3.33c-4.57,2.69-3.86,10.34-3.99,15.12-.04,9.07,3.84,18.9,12.87,22.53,1.31-.34,2.69-.72,4.03-1.13-1.48,3.84-2.12,4.04-3.15,5.02-5.27.37-9.83,1.16-13.77,2.25-6.68-4.13-10.1-11.21-9.77-19.45-3.87,5.41-4.74,16.13.84,22.91-9.03,4.13-16.44,14.97-16.27,23.75,15.89-22.19,37.09-23.14,55.65-18.86ZM465.35,768.63c-8.28,12.13-46.37,21.1-71.79,20.43-19.68.08-36.47-3.12-43.22-8.61-15.51-14.04-10.37-50.4-7.15-65.86h-5.29c2.51-12,7.46-25.63,9.44-30.86l6.36-.77c-9.99,30.35-22.77,93.69,20.98,100.14,30.44,6.19,80.02-4.03,91.64-16.38-.31.84-.73,1.56-.97,1.91ZM852.36,455.3c-1.28-15.34-9.3-21.59-15.71-23.43.04-3.66-.62-9.16-4.06-14.3-4.09-6.11-10.9-10.07-20.23-11.75-23.68-4.26-42.85,10.64-47.72,14.88-6.93.42-32.76,4.06-35.19,34.41-.46,5.71.05,11.01,1.2,15.89-4.83,4.57-7.3,11.46-6.99,19.72.15,4.19,1.03,8.51,2.54,12.79-4.93,3.51-12.83,7.58-22.86,7.54l27.92-244.17s-61.47-16.04-131.43-31.91c-54.4-41.12-129.22-54.96-195.32-36.65-39.04-5.26-110.44-7.75-110.44-7.75,0,0,2.18,31.71,4.41,71.55-58.1,60.26-77.33,153.35-49.01,231.94-16.73,12.56-25.77,28.67-30.62,41.79-18.73,4.69-31.84,18.26-27.37,34.47-38.89,24.37-35.55,89.89,9.08,99.4,11.65,13.44,35.4,16.64,54.14,8.15,15.52,1.62,40.01-8.33,41.76-32.43,2.45-2.11,6.98-6.6,10.35-13.33,4.9-.15,15.38-.48,30.07-.94l-.25,29.23c.9-.14,45.34-7.6,108.05-16.02,2.18,3.85,4.44,7.56,6.79,11.13-8.12,5.81-17.3,11.31-27.53,15.81-4.59-10.89-16.26-20.74-28.73-10.01-11.37-2.91-30.95-3.15-38.49,13.24l-15.08,1.84c-1.15,2.38-11.41,29.25-13.21,46.22l4.55,4.26c-4.57,48.33,2.81,70.82,59.98,70.19,28.74.75,68.7-9.03,78.76-23.57,2.55-3.06,5.81-12.51-1.68-17.85-3.46-18.19-18.04-34.18-42.23-41.22.92-2.01,1.71-4.57,2.02-7.71,9.21-3.32,23.13-9.06,38.44-17.9,2.13-1.23,4.34-2.56,6.58-3.97,10.83,11.36,21.7,20.35,30.95,27.08,17.72,12.9,32.46,19.93,37.8,22.28.35,2.02.94,3.97,1.85,5.78,2.83,5.65,8.04,9.13,15.51,10.38,1.18,3.56,4.14,9.48,11.47,14.98.21,2.47.83,4.56,1.94,6.13,4.53,6.43,10.98,10.28,19.24,11.56.18.08.36.15.53.22l.05-.13c1.86.26,3.8.39,5.83.39,2.67,0,5.5-.22,8.47-.67,18.54-2.76,35.02-18.19,46.42-43.43l-1.03-10.93c1.31-3.07,7.5-15.17,27.93-28.08,17.12-10.83,26.78-39.07,20.67-60.45-1.61-5.63-5.13-13.4-12.79-19.22l9.22-71.17c4.59.9,8.98,1.31,13.13,1.31,12.23,0,22.45-3.39,29.94-7.07,5.67-2.79,10.29-5.97,13.77-8.73,3.45,1.26,6.91,1.92,10.22,1.92,4.59,0,8.92-1.26,12.6-3.9,1.11-.8,2.11-1.7,3.02-2.68,3.93,1.79,8.39,3.25,13.45,4.14,2.14.38,4.28.57,6.41.57,9.56,0,18.91-3.78,27.38-11.13,6.11-5.3,10.03-10.96,11.43-13.14,15.85-9.58,24.09-20.11,24.51-31.31.46-12.24-8.65-21.09-12.42-24.23ZM631.75,464.14s30.56,7.62,19.96,44.98c0,0,16.38-16.03,8.36-31.6-9.65-18.71-28.31-13.38-28.31-13.38ZM617.49,438.6c-9.19,0-17.69-3.23-24.52-8.68,7.28-.18,13.98-6.95,17.3-17.56l-17.37-14.07,19.01-7.46c-.99-6.95-3.39-12.89-6.62-17.16,6.59-6.32,13.42-13.86,20.28-20.38,18.63,3.97,32.72,21.38,32.72,42.22,0,23.76-18.3,43.08-40.79,43.08ZM569.2,449.62c-3.33,4.11-7.59,7-11.99,8.14-1.49.39-2.92.55-4.26.49-2.23-.09-4.22-.78-5.79-2.06-5.47-4.43-4.61-14.93,1.86-22.92,3.33-4.11,7.59-7,11.99-8.14,1.3-.34,2.56-.5,3.75-.5,2.44,0,4.61.7,6.29,2.07,2.51,2.04,3.8,5.41,3.61,9.5-.2,4.54-2.15,9.31-5.48,13.42ZM632.68,346.99c6.72-5.45,13.4-9.17,19.82-9.05,2.92.05,5.78.9,8.57,2.74,0,0-5.08-8.74-15.98-9.09-4.95-.16-11.11,1.42-18.53,6.35-23.76,15.76-31.33,39.52-44.66,40.37-.83.05-1.63.08-2.4.08-11.48-.02-15.46-5.73-15.46-5.73,0,0-.49,8.3,5.66,12.6-.65,3.32-1.01,6.75-1.01,10.27,0,8.54,2.02,16.6,5.58,23.68-2.68-1.64-5.76-2.51-9.08-2.57-1.99-.04-4.07.22-6.19.77-6.05,1.57-11.8,5.42-16.2,10.85-9.37,11.56-9.67,26.89-.68,34.17,3.15,2.55,7.03,3.86,11.29,3.86,1.87,0,3.82-.25,5.8-.77,6.05-1.57,11.8-5.42,16.2-10.85,4.4-5.43,6.97-11.86,7.25-18.1.09-2.04-.06-3.98-.45-5.8,8.89,9.75,21.41,15.84,35.27,15.84,26.9,0,48.79-22.92,48.79-51.08,0-22.61-14.11-41.83-33.59-48.53ZM627.91,515.39c-2.08,5.77-7.61,16.46-21.83,27.86-3.88-18.83-14.14-38.69-18.62-46.77,1.56-.81,3.07-1.6,4.55-2.38,12.05-6.33,19.64-9.9,25.11-9.73,3.74.12,6.49,1.99,8.99,5.95,4.52,7.15,5.15,15.82,1.8,25.07ZM556.94,568.42c-.58-21.62-6.55-46.58-9.08-56.28,12.25-2.87,23.02-7.43,32.44-12.04,4.45,8.03,15.7,29.71,18.61,48.43-10.2,6.91-23.81,13.84-41.98,19.89ZM514.25,575.64c-2.4-.01-4.72-.1-6.98-.25,5.31-23.13,7.44-52.23,8.1-63.33,9.71,1.07,16.41,1.38,20.84,1.39,1.48,0,2.7-.02,3.71-.07,2.37,9.06,8.89,35.86,9.07,57.46-12.72,3.52-24.35,4.85-34.73,4.79ZM464.14,563.1c5.46-17.92,10.84-46.47,12.63-56.38,2.96.18,6.06.54,9.32,1.1,8.13,1.4,15.19,2.46,21.31,3.27-.63,10.62-2.81,40.7-8.16,63.48-16.49-2.3-28.52-7.78-35.1-11.47ZM457.12,558.66c-9.61-6.81-14.95-14.04-15.92-18.52-1.57-7.28-.78-17.65,6.16-24.89,4.85-5.06,12.06-7.93,21.27-8.55-1.91,10.4-6.69,35.35-11.52,51.95ZM617.55,476.36c-8.52-.22-18.45,4.99-29.26,10.67-12.35,6.48-27.72,14.55-46.13,18.16-.12.02-1.68.26-5.37.27-7.04.02-21.86-.79-49.35-5.51-4.47-.77-9.45-1.33-14.55-1.35-11.23-.05-23.05,2.51-31.31,11.12-9.11,9.51-10.21,22.83-8.21,32.12,1.95,9.02,11.92,19.66,26.03,27.78,8.87,5.11,28.29,14.04,55.53,14.03,12.59,0,26.86-1.91,42.52-6.98,40.9-13.25,69.32-34.59,77.98-58.56,4.15-11.5,3.24-22.88-2.57-32.07-4.33-6.84-9.49-9.54-15.32-9.69ZM224.68,608.9c-14.74,20.92,5.45,31.77,5.45,31.77-6.73-11.51-5.45-31.77-5.45-31.77ZM662.36,674.7c-1.39,3.76-3.57,7.08-5.96,9.12-1.36,1.16-2.71,1.82-3.8,1.89-.36.02-.7-.02-.99-.13-.86-.32-1.58-1.29-2.05-2.7,3.25-1.46,6.54-5.38,8.47-10.57,1.01-2.74,1.49-5.44,1.51-7.87l2.78.83-.57-1.71,2.06.59c.39,2.74.09,6.42-1.44,10.55ZM663.73,652.87c-.87-.32-1.77-.51-2.69-.55-6.4-.33-13.49,5.93-17.06,15.56-1.83,4.92-2.46,10.01-1.77,14.33.02.13.06.25.08.38-1.59-1.32-2.77-2.55-2.77-2.55,1.89,9.55,7.62,12.06,11.59,12.6.04,0,.07,0,.11,0,.4.05.8.09,1.21.09,2.79,0,5.72-1.22,8.5-3.58,3.33-2.83,6.17-7.1,8-12.02,4.08-11.01,1.8-21.67-5.19-24.26ZM454.17,485.07s-18.64-14.18-37.7,2.61c-15.86,13.98-4.48,39.19-4.48,39.19,4.48-46.66,42.18-41.8,42.18-41.8ZM203.9,609.7c-14.74,20.92,5.45,31.77,5.45,31.77-6.73-11.51-5.45-31.77-5.45-31.77ZM435.04,446.4c10.15.12,19.56-9.21,24.18-23.97l-23.69-19.19,25.92-10.17c-2.59-18.22-12.23-31.46-23.61-32.86,7.77-4.93,16.86-7.78,26.56-7.78,3.39,0,6.71.36,9.92,1.02,10.81,8.84,19.9,19.26,27.75,29.37,3.24,4.17,7.49,7.14,11.89,8.84,1.35,4.85,2.09,9.97,2.09,15.28,0,30.06-23.18,54.52-51.66,54.52-14.94,0-28.41-6.73-37.85-17.46,2.66,1.52,5.51,2.37,8.48,2.4ZM404.75,406.95c0,34.47,26.76,62.52,59.66,62.52s59.66-28.04,59.66-62.52c0-4.68-.5-9.23-1.43-13.61,9.67-.05,17.25-7.04,12.62-22.11,0,0-4.91,9.08-12.56,9.02-2.99-.02-6.41-1.44-10.11-5.35-11.22-11.84-40.61-50.21-68.32-50.79-11.7-.24-23.09,6.25-32.7,24.32,0,0,11.66-11.66,26.94-12.02,4.28-.1,8.84.68,13.51,2.85,3.37,1.57,6.6,3.34,9.71,5.24-31.66,1.47-57,28.91-57,62.44ZM245.46,608.09c-14.74,20.92,5.45,31.77,5.45,31.77-6.73-11.51-5.45-31.77-5.45-31.77Z"/>
</svg>