<?xml version="1.0" encoding="UTF-8"?>
<svg id="Graphic_10" data-name="Graphic 10" xmlns="http://www.w3.org/2000/svg" viewBox="0 0 960 960">
  <defs>
    <style>
      .cls-1 {
        fill: #719e9a;
      }

      .cls-2 {
        fill: #fc5454;
      }

      .cls-3 {
        fill: #f9de3e;
      }

      .cls-4 {
        fill: #f2ead5;
      }
    </style>
  </defs>
  <path class="cls-1" d="M435.07,698.95c-3.01-7.01-5.25-17.03-6.36-22.58.94.24,1.89.43,2.85.58.58,4.11,2.38,11.5,7.65,23.29-1.64-.56-3.36-1.06-4.14-1.29ZM349.66,524.75c-4.09-1.46-8.76-2.1-13.65-1.74,1.67-4.11,7.93-10.61,14.71-16.68-.41,5.69-.79,11.89-1.06,18.42ZM700.09,458.01c-.96-6.54-6.73-12.4-14.05-19.82-8.94-9.07-19.91-20.2-24.37-35.55,10.47-3.87,39.47-16.71,35.55-39.04-1.72-9.79-5.7-15.76-11.83-17.75-2.58-.84-12-2.64-24.63,9.56-1.29,1.25-2.45,2.41-3.52,3.5-6.36,6.42-9.27,9.35-22.55,10.58-2.92.27-5.7.4-8.39.52-11.08.51-20.89.97-28.2,11.33-5.2-2.92-11.05-4.59-17.26-4.59-20.3,0-36.99,17.59-38.48,39.84-7.53,9.14-20.04,24.93-38.61,40.09l.83-4.75c.22-.76.35-1.54.35-2.34,0-2.91-1.48-5.53-4.43-7.89,36.6-22.12,61.12-62.28,61.12-108.08,0-20.29-4.83-39.48-13.37-56.48,5.06-4.91,9.29-12.7,13.07-23.64,5.31-15.37,10.49-21.54,16.49-28.68,3.38-4.03,6.88-8.19,10.72-14.26,7.03-11.14,7.04-25.21.03-32.74-2.53-2.72-9.75-8.33-22.04-1.73-18.53,9.96-35.53,17.57-49.17,22.03-4.93-2.98-10.1-4.54-15.24-4.68.22-14.84-1.45-61-30.5-66.28-9.1-1.65-16.66.06-22.45,5.11-10.02,8.73-11.31,24.85-11.42,30.87-5.42,4-12.05,12.58-9.67,24.63-4.24,1.18-10.44,3.72-14.11,8.92-2.63,3.73-3.54,8.12-2.74,13.06-58.05,11.32-102,62.55-102,123.86,0,40.63,19.3,76.82,49.21,99.92-16.53,3.95-24.6,9.2-24.6,16.04,0,.8.13,1.58.35,2.34l3.94,22.44c-12.33,10.46-38.28,34.66-37.57,52.5.25,6.32,1.87,11.51,4.1,15.74-1.05,2.11-1.79,4.3-2.19,6.49-5.1-2.3-10.91-3.03-16.55,2.97-3.79,4.03-5.62,8.62-5.45,13.65.08,2.4.64,4.65,1.43,6.72-1.19.87-2.34,2.03-3.44,3.52-3.29,4.45-4.57,9.22-3.81,14.19,1.03,6.72,5.67,11.98,8.55,14.67-1.04,4.47-.32,9.78,3.79,15.15,6.62,8.66,25.84,21.39,46.18,21.38.11,0,.22,0,.33,0,12.41-.08,23.11-5.03,31.18-14.31,2.08.76,5.42,1.86,9.98,2.91,1.06,12.44,5.68,59.1,17.45,88.26-9.32,5.11-29.74,19.09-39.18,47.38-5.65,16.93-9.64,22.58-13.12,26.15-4.75,4.89-4.77,12.49-.05,17.31,6.79,6.92,20.27,17.08,40.94,17.08,16.21,0,36.83-6.26,62.08-25.21l11.12,1.47,3.14-1.61c1.09-.56,26.86-14.03,34.1-39.01l.78-2.68-7.16-5.26c.24-1.58.49-3.81.58-6.44,20.88-6.82,46.46-27.69,52.75-87.77l9.21-3.9,1.02-3.38c.38-1.28,9.25-31.56-4.82-56.01l-1.39-2.42-9.51,1.64c-3.94-5.18-15.1-17.85-31.91-21.08-10.09-1.94-20.37-.14-30.65,5.35,3.24-20.58,7.71-46.46,13.13-71.49,34.17-16.92,59.14-42.07,72.22-56.13,6.05,5.94,13.76,9.8,22.25,10.58,15.11,19.42,37.23,36.6,56.48,41.32,3.75.92,7.34,1.38,10.74,1.38,4.95,0,9.5-.97,13.61-2.88l.16.29c.32-.17,1.59-.89,3.14-2.1,2.61-1.65,5.02-3.73,7.18-6.24,3.67-.21,11.13-1.31,15.76-6.61,1.81-2.08,3.74-5.51,3.67-10.67,1.42-.58,3.12-1.42,4.79-2.62,5.46-3.93,7.91-9.82,6.92-16.6Z"/>
  <path class="cls-3" d="M474.23,762.59c1.89-3.88,2.32-9.8,2.41-13.05-4.03.69-7.69.92-10.75.92-.15,0-.31,0-.46,0-5.59-.04-10.27-3.74-11.74-8.84-.04.24-.07.48-.12.72-2.01,10.25-7.87,20.46-16.49,28.77-6.86,6.61-14.87,11.42-23.06,13.93,0,0,0,0,0,0,0,0-24.3,8.86-39.59-8.98,0,0,2.72,1.16,5.65,1.79-8.63-10.11-8.1-26.25.22-40.89-7.38,7.08-15.11,17.23-19.76,31.17-5.81,17.43-10.19,24.28-14.97,29.2-1.7,1.75-1.73,4.44-.08,6.13,6.19,6.32,16.95,13.98,33.04,14.63,18.44.73,39.25-7.82,61.99-25.48,4.98-4,13.55-11.66,20.11-21.61,0,0-1.83,11.27-5.74,18.6l1.55,2.28c6.26-3.93,20.52-14.25,26.18-29.72l-3.17-2.33c-2.48,1.67-5.21,2.76-5.21,2.76ZM533.47,603.49c-.7,3.82-2.87,5.58-2.87,5.58-.93-4.74-6.48-11.25-6.72-11.53-4.53-5.12-13.18-13.05-24.77-15.26-9.9-1.88-20.2.75-30.67,7.8-.35,2.33-.68,4.56-1,6.68,0,0,16.52-5.51,29.99,8.95,0,0-1.44-.22-3.3-.32,9.5,9.31,15.74,24.75,15.74,42.2,0,14.26-4.16,27.19-10.88,36.52,0,0,0,0,0,0,0,0-.36.54-1.07,1.43-2.26,2.9-4.79,5.41-7.51,7.46-6.8,5.42-17.46,10.89-31.32,8.48,0,0,3.91-1.58,6.85-3.42-9.56-2.67-17.79-10.56-23.12-21.45-1.06.2-2.11.36-3.15.46.78,4.25,3.1,12.66,10.04,26.72,9.23,18.71,11.23,27.08,11.46,34.51.07,2.3,1.96,4.12,4.3,4.14.14,0,.27,0,.41,0,9.72,0,23.8-2.53,36.55-14.37,16.14-14.99,25.67-40.71,28.33-76.46.31-4.56.8-14.86-.19-24.71,0,0,5.69,4.4,7.25,19.06l3.65.62c1.66-7.76,4.56-27.33-3.62-43.87l-4.41.76ZM582.72,183.3c-1.53-1.64-3.39-2.26-5.31-2.26-2.45,0-5,1-7.09,2.12-18.99,10.2-36.49,18.03-50.58,22.62-4.02,1.31-6,3.45-6.94,5.56-1.27,5.65-.16,14.38,14.82,20.6,0,0-13.46,4.56-21.96-6.85-5.62,4.15-8.22,9.61-7.73,16.29,1.02,13.79,14.84,29.09,25.61,32.56,13,4.2,21.66,1.77,30.23-23.05,1.28-3.69,2.56-6.92,3.85-9.77-3.58,2.05-6.9,4.03-6.9,4.03,0,0,2.86-7.57,11.45-14.72,1.26-1.05,2.61-2.39,4.01-3.91,1.82-2.43,3.66-4.62,5.53-6.84.66-.78,1.32-1.57,1.98-2.37,4.59-6.15,8.54-12.19,9.76-14.09,3.69-7.98,2.72-16.23-.73-19.93ZM471.19,227.05c-.15-1.91-.08-3.92.25-6.03,1.34-8.4,5.63-15.87,11.73-20.9-5.19-7.08-23.94-35.11-13.84-59.03,0,0,.77,4.78,2.71,11.56,4,1.19,13.57,5.79,21.24,23.05-.3-2.79-.7-5.69-1.24-8.6-4.42-24.01-14.32-30.68-21.85-32.05-6.68-1.22-11.84-.15-15.76,3.27-1.24,1.08-2.3,2.36-3.23,3.78-4.21,7.88-9.53,23.69,1.78,41.72,0,0-8.63-2.6-13.59-11.3-.7.82-1.38,1.79-1.97,2.89-1.94,5.7-2.79,15.05,6.57,24.16,0,0-6.1,2.17-12.56-4.39-3.3.77-8.45,2.62-10.94,6.16-1.55,2.21-1.94,4.89-1.18,8.2,3.08,13.43,26.36,21.06,51.88,17.51ZM479.34,222.28c-.67,4.19.01,7.52,2.08,10.19,2.22,2.87,5.68,4.5,8.52,5.41.63-8.84,5.56-16.27,14.22-21.35-.22-3.51.31-9.15,4.84-13.59-5.24-2-10.62-1.97-15.59.17-7.3,3.15-12.69,10.49-14.07,19.16Z"/>
  <g>
    <path class="cls-2" d="M343.88,460.87l.93,5.32c4.26-2.62,10.66-4.85,19.25-6.75.18-.04.37-.08.55-.12,14.76-3.19,34.17-4.95,54.78-4.95s40.5,1.8,55.33,5.06c7.6,1.67,13.47,3.62,17.67,5.85.67-.47,1.33-.93,1.98-1.4l.53-3.02,1.79-10.21.31-1.75h.06c-1.37-1.53-6.65-4.97-20.87-8.1-15.13-3.33-35.3-5.17-56.81-5.17s-40.79,1.76-55.8,4.96c-.33.07-.68.14-1.01.21-14.09,3.1-19.4,6.51-20.81,8.07l.31,1.76,1.8,10.24Z"/>
    <path class="cls-2" d="M550.18,445.95c-3.51-5.12-6.01-11.13-7.19-17.68-14.11,16.16-41.13,44.71-76.47,61.14l4.12-9.67c-19.82-5.59-58.67-13.58-97.6-4.81-3.87.87-7.74,1.9-11.59,3.12-1.89,15.48-11.1,99.53,5.5,141.28,2.47.91,8.19,2.77,16.77,4.12,15.57,2.44,40.58,3.16,72.84-6.63,1.52-11.6,8.19-60.55,18.18-107.42l-4.76-3.54c36.26-16.36,67.04-45.74,80.2-59.91Z"/>
    <path class="cls-2" d="M328.23,494.98c-12.81,13.22-19.7,24.43-19.42,31.56.51,12.76,8.17,19.66,12.69,22.63,1.22.8,2.76.89,4.1.23,2.07-1.01,5.11-3.17,7.86-7.74.59-.98.39-2.24-.49-3.07-5.34-5.05-7.11-11.35-4.98-17.74,1.69-5.08,7.3-11.83,17.15-20.62,2.3-2.06,4.55-3.97,6.53-5.61.22-2.4.43-4.64.64-6.68-4.73-1.71-8.23-3.62-10.55-5.75-3.83,3.34-8.71,7.8-13.53,12.78Z"/>
    <path class="cls-2" d="M410.25,351.21c3.11.95,7.04.83,10.81-.33,7.84-2.41,12.04-8.19,10.9-11.87-.82-2.65-4.55-4.65-9.5-4.65-1.91,0-4.01.3-6.19.97-3.76,1.16-7.08,3.27-9.12,5.81-.99,1.23-2.53,3.65-1.78,6.06.74,2.42,3.38,3.55,4.89,4.01Z"/>
    <path class="cls-2" d="M441.35,355c1.32-.76,2.66-1.53,4-2.29-4.37-1.01-8.82-.5-13.31,1.55-1.47,1.08-3.12,2.04-4.9,2.85-2.77,1.98-4.41,3.83-4.43,3.85l-1.02,1.17-1.55.03c-7.12.15-12.15,1.95-14.95,5.33-.98,1.18-1.59,2.45-1.97,3.66,14.08-4.72,22.08-7.76,22.88-8.07,4.87-2.1,10.15-5.14,15.26-8.09Z"/>
    <path class="cls-2" d="M425.24,410.8c5.12,2.3,12.98,3.56,23.7-.98,10.75-4.56,14.88-10.86,16.37-15.83-5.46,4.37-11.15,8-16.16,10.26-6.93,3.11-15.35,5.4-23.91,6.56Z"/>
  </g>
  <path class="cls-4" d="M382.13,560.15c-2.83,3.64-11.3,17.36-11.3,17.36-3.52-28.84.42-81.75,2.22-102.57-3.87.87-7.74,1.9-11.59,3.12-1.89,15.48-11.1,99.53,5.5,141.28,2.47.91,8.19,2.77,16.77,4.12-3.9-33.78-1.61-63.3-1.61-63.3ZM343.88,460.87l.93,5.32c4.26-2.62,10.66-4.85,19.25-6.75.18-.04.37-.08.55-.12-.82-6.38-1-13.9-1.02-18.73-.33.07-.68.14-1.01.21-14.09,3.1-19.39,6.51-20.81,8.07l.31,1.76,1.8,10.24ZM340.7,576.69l2.17-3.81c-5.99,3.78-16.71,2.65-21.29,1.93-.31.67-.63,1.47-.91,2.41-1.41,7.16-1.11,20.43,14.98,32.79,0,0-6.48.5-12.1-1.78-.52,2.16-.65,4.44-.65,4.44-2.4-2.57-3.17-5.18-3.41-6.82-.02-.01-.03-.03-.04-.04-3.64-.17-11.01-1.13-17.67-5.79-1.96-1.37-5.62-.33-8.17,2.32-1.62,1.69-4.88,6.31-.06,12.6,5.87,7.68,23.02,18.24,39.9,18.14,10.38-.07,18.97-4.15,25.57-12.12-4.71-12.41-7.73-28.75-9.06-48.83-4.59,2.56-9.26,4.56-9.26,4.56ZM306.52,593.25c2.6,1.82,5.41,2.88,7.87,3.5-1.64-4.04-2.45-7.73-2.72-11.03-5.35-.37-10.16-2.61-14.09-4.46-7.55-3.55-9.76-4.06-12.48-.39-1.96,2.65-2.71,5.28-2.29,8.03.5,3.28,2.55,6.18,4.39,8.22.15-.17.3-.33.45-.49,5.42-5.66,13.54-7.11,18.87-3.37ZM320.97,564.58c5.42,1.47,11.77,1,17.9-1.33,4.08-1.55,7.63-3.82,10.42-6.45-.17-7.33-.14-15.08.07-23.23-2.93-1.58-6.61-2.44-10.62-2.44-.46,0-.93.02-1.4.05.37.46.79.93,1.3,1.41,1.25,1.18,2.16,2.58,2.73,4.09,2.16,3.71,3.67,11.04-7.81,20.79,0,0,.66-1.65.58-3.89-1.8,1.52-3.5,2.56-4.91,3.25-1.76.86-3.63,1.28-5.49,1.28-2.36,0-4.71-.69-6.77-2.04-1.86-1.23-4.14-2.97-6.39-5.31-.33,2.03-.2,4.03.51,5.89,1.43,3.77,4.94,6.58,9.89,7.93ZM301.09,573.79c3.73,1.76,7.34,3.45,11.01,3.72.53-2.69,1.37-4.9,2.2-6.59-5.24-2.44-9.06-6.35-10.95-11.32-.09-.24-.17-.49-.25-.74-6.15-3.76-8.22-4.26-11.17-1.13-2.25,2.39-3.3,4.9-3.21,7.67.05,1.66.51,3.26,1.14,4.74,3.98.24,7.91,2.09,11.23,3.65ZM671.38,469.93c-5.59-3.16-13.06-7.39-20.53-17.36-2.82,2.79-6.44,5.37-11.08,7.12,6,7.4,11.85,10.72,16.71,13.46,4.11,2.32,7.99,4.51,10.44,8.47.97,1.57,1.6,3.22,1.87,4.88,1.4-.11,3.24-.39,5.04-.96,1.45-.85,5.06-3.47,5.81-6.32.19-.74.33-1.91-.69-3.58-1.37-2.21-3.96-3.68-7.56-5.71ZM692.18,459.17c-.58-3.95-5.79-9.24-11.83-15.37-6.02-6.11-12.89-13.1-18.41-21.71,0,0,0,0-.01,0,0,0-.29-.44-.78-1.26-1.86-3.02-3.55-6.23-4.96-9.68-2.9-6.64-5.76-15.46-5.52-24.07,0,0,4.76,4.98,8.24,8.02,8.91-3.32,33.28-13.95,30.43-30.13-.8-4.57-2.57-10.28-6.43-11.53-4.45-1.46-11.55,2.83-16.6,7.7-1.24,1.2-2.36,2.33-3.4,3.37-6.81,6.88-11.31,11.42-27.49,12.92-3.11.29-5.98.42-8.76.55-10.15.47-16.62.77-21.64,7.4,11.51,3.84,15.38,15.2,15.38,15.2-29.64-17.56-48.75,4.72-49.12,5.14-3.62,5.3-4.7,12.29-3.18,20.82,4.31,24.23,38.02,62.4,67.91,69.73,8.38,2.06,15.47,1.32,21.19-2.16,1.5-1.23,3.12-2.94,3.59-4.74.19-.74.33-1.91-.69-3.58-1.37-2.21-3.96-3.68-7.56-5.71-5.79-3.27-13.58-7.67-21.31-18.41-4.45.5-9.54.31-15.39-.88,0,0,31.39-8.06,43.92-22.98,0,0-.97,3.71-3.76,8.22,6.89,9.88,13.75,13.77,19.3,16.9,3.76,2.12,7.07,3.99,9.48,7.1,2.84-.99,8.41-3.84,7.38-10.89ZM566.29,399.09c6.76-8.14,16.94-11.35,23.94-12.63-2.96-1.1-6.11-1.71-9.39-1.71-16.87,0-30.6,15.74-30.6,35.08,0,15.29,8.58,28.32,20.51,33.11-5.34-8.49-9.11-17.08-10.52-24.97-2.1-11.81-.07-21.52,6.05-28.87ZM471.05,351.21c-3.11,0-6.69,1.05-10.77,2.83,1.28,5.29,4.47,16.25,10.33,24.06,5.17-5.69,9.01-11.63,9.94-16.52.58-3.07,0-5.37-1.84-7.24-2.14-2.18-4.68-3.14-7.65-3.14ZM400.92,336.12c3.06-3.8,7.67-6.8,13-8.44,1.37-.42,2.72-.73,4.06-.95-.31-.44-.61-.89-.9-1.34-.23.08-.46.17-.7.24-6.98,2-14.99-1.49-21.04-9.16l12.83-19.54-21.37-3.34c-.67-10.84,3.2-19.96,9.77-23.86-3.72-1.19-7.68-1.84-11.79-1.84-21.4,0-38.82,17.41-38.82,38.82s17.41,38.82,38.82,38.82c4.43,0,8.68-.76,12.65-2.13.48-2.49,1.65-4.98,3.48-7.26ZM407.25,378.24c1.42,5.76,4.94,17.5,11.42,25.19,6.85-.49,14.12-1.84,20.72-4-7.39-9.14-11.13-22.09-12.55-28.07-3.18,1.18-9.76,3.57-19.59,6.89ZM467,309.86l12.83-19.54-21.37-3.34c-.67-10.85,3.21-19.97,9.77-23.87-3.72-1.19-7.69-1.84-11.8-1.84-21.4,0-38.82,17.41-38.82,38.82,0,10.49,4.19,20.01,10.97,27,4.6,1.2,8.27,3.82,10.17,7.54,5.31,2.73,11.31,4.27,17.67,4.27,15.02,0,28.06-8.58,34.51-21.09-.92.5-1.89.91-2.92,1.2-6.98,2-14.99-1.49-21.04-9.16ZM390.72,391.85c-.46,3.03.83,5.72,3.71,7.78,3.32,2.37,8.98,3.67,15.66,3.96-5.12-7.91-8.05-17.32-9.46-22.85-5.51,2.71-9.28,6.83-9.92,11.11ZM445.35,361.93c-3.94,2.27-7.98,4.6-11.97,6.58,1.09,4.91,4.94,19.74,12.94,28.22,6.14-2.85,13.2-7.88,19.33-13.6-6.54-8.29-10.16-19.52-11.81-25.94-2.65,1.41-5.48,3-8.48,4.74Z"/>
  <path d="M684.8,470.07c-2.41-3.1-5.72-4.97-9.48-7.1-5.55-3.13-12.41-7.02-19.3-16.9,2.79-4.51,3.76-8.22,3.76-8.22-12.53,14.91-43.92,22.98-43.92,22.98,5.84,1.19,10.94,1.38,15.39.88,7.73,10.74,15.52,15.14,21.31,18.41,3.6,2.03,6.2,3.5,7.56,5.71,1.03,1.66.89,2.84.69,3.58-.47,1.8-2.09,3.51-3.59,4.74-5.72,3.48-12.81,4.22-21.19,2.16-29.89-7.33-63.6-45.5-67.91-69.73-1.52-8.53-.44-15.52,3.18-20.82.36-.43,19.47-22.7,49.12-5.14,0,0-3.87-11.36-15.38-15.2,5.02-6.63,11.48-6.93,21.64-7.4,2.78-.13,5.65-.26,8.76-.55,16.18-1.5,20.68-6.04,27.49-12.92,1.04-1.05,2.15-2.17,3.4-3.37,5.05-4.88,12.14-9.16,16.6-7.7,3.86,1.25,5.63,6.96,6.43,11.53,2.84,16.18-21.53,26.81-30.43,30.13-3.49-3.04-8.24-8.02-8.24-8.02-.25,8.61,2.62,17.43,5.52,24.07,1.42,3.45,3.11,6.66,4.96,9.68.49.81.78,1.26.78,1.26,0,0,0,0,.01,0,5.52,8.61,12.39,15.6,18.41,21.71,6.04,6.12,11.25,11.41,11.83,15.37,1.03,7.05-4.54,9.91-7.38,10.89ZM679.64,479.22c-.75,2.85-4.36,5.47-5.81,6.32-1.79.58-3.63.85-5.04.96-.27-1.67-.89-3.31-1.87-4.88-2.45-3.96-6.33-6.15-10.44-8.47-4.85-2.74-10.71-6.06-16.71-13.46,4.63-1.75,8.26-4.33,11.08-7.12,7.47,9.97,14.94,14.21,20.53,17.36,3.6,2.03,6.2,3.5,7.56,5.71,1.03,1.66.89,2.84.69,3.58ZM550.25,419.83c0-19.34,13.73-35.08,30.6-35.08,3.28,0,6.43.61,9.39,1.71-7,1.28-17.18,4.5-23.94,12.63-6.11,7.35-8.15,17.07-6.05,28.87,1.41,7.9,5.18,16.49,10.52,24.97-11.93-4.79-20.51-17.82-20.51-33.11ZM469.99,505.86l4.76,3.54c-9.98,46.87-16.65,95.82-18.18,107.42-32.26,9.79-57.27,9.07-72.84,6.63-8.57-1.34-14.3-3.2-16.77-4.12-16.61-41.75-7.39-125.8-5.5-141.28,3.85-1.22,7.72-2.25,11.59-3.12,38.93-8.76,77.79-.77,97.6,4.81l-4.12,9.67c35.34-16.43,62.36-44.98,76.47-61.14,1.17,6.55,3.68,12.56,7.19,17.68-13.16,14.17-43.94,43.55-80.2,59.91ZM499.12,582.29c11.59,2.21,20.23,10.14,24.77,15.26.23.27,5.79,6.79,6.72,11.53,0,0,2.17-1.76,2.87-5.58l4.41-.76c8.19,16.53,5.28,36.11,3.62,43.87l-3.65-.62c-1.56-14.67-7.25-19.06-7.25-19.06.99,9.85.5,20.15.19,24.71-2.66,35.75-12.19,61.47-28.33,76.46-12.75,11.84-26.84,14.37-36.55,14.37-.14,0-.28,0-.41,0-2.34-.02-4.23-1.84-4.3-4.14-.23-7.44-2.23-15.8-11.46-34.51-6.94-14.06-9.26-22.47-10.04-26.72,1.04-.11,2.09-.26,3.15-.46,5.33,10.89,13.56,18.78,23.12,21.45-2.94,1.83-6.85,3.42-6.85,3.42,13.86,2.41,24.51-3.06,31.32-8.48,2.73-2.04,5.25-4.55,7.51-7.46.71-.89,1.07-1.43,1.07-1.43,0,0,0,0,0,0,6.71-9.33,10.88-22.26,10.88-36.52,0-17.45-6.23-32.88-15.74-42.2,1.86.1,3.3.32,3.3.32-13.48-14.46-29.99-8.95-29.99-8.95.31-2.12.64-4.34,1-6.68,10.46-7.05,20.77-9.68,30.67-7.8ZM456.44,791.88l-1.55-2.28c3.91-7.34,5.74-18.6,5.74-18.6-6.56,9.94-15.12,17.6-20.11,21.61-22.74,17.65-43.54,26.21-61.99,25.48-16.08-.65-26.84-8.32-33.04-14.63-1.66-1.69-1.62-4.38.08-6.13,4.78-4.92,9.15-11.77,14.97-29.2,4.65-13.94,12.38-24.08,19.76-31.17-8.32,14.63-8.84,30.78-.22,40.89-2.93-.62-5.65-1.79-5.65-1.79,15.29,17.85,39.59,8.98,39.59,8.98,0,0,0,0,0,0,8.18-2.51,16.19-7.31,23.06-13.93,8.62-8.3,14.48-18.52,16.49-28.77.05-.24.08-.48.12-.72,1.48,5.1,6.15,8.8,11.74,8.84.15,0,.3,0,.46,0,3.06,0,6.72-.23,10.75-.92-.09,3.26-.52,9.17-2.41,13.05,0,0,2.74-1.09,5.21-2.76l3.17,2.33c-5.66,15.47-19.91,25.79-26.18,29.72ZM439.21,700.24c-1.64-.56-3.36-1.06-4.14-1.29-3.01-7.01-5.25-17.03-6.36-22.58.94.24,1.89.43,2.85.58.58,4.11,2.38,11.5,7.65,23.29ZM445.9,627.99c4.98-1.18,10.15-2.6,15.52-4.3l2.44-.77.32-2.54c.03-.21.73-5.78,2.03-14.95,2.22-.85,4.55-1.31,6.94-1.31,15.85,0,28.74,19.5,28.74,43.48s-12.89,43.48-28.74,43.48c-8.87,0-16.8-6.13-22.08-15.71,17.71-7.6,17.71-26.2,17.71-26.2-22,28.99-42.68,17.74-44.18,16.87-.03-.02-.06-.03-.09-.05-11.5-7.28-16.24-24.64-17.89-32.88,8.99-.13,19.24-1.05,30.64-3.24,1.13,5.01,3.66,13.95,7.92,17.04,0,0-.28-12.46.71-18.9ZM396.54,729.01c.17-.16.34-.32.51-.48.26-.25.54-.49.8-.73,5.47,2.58,10.38,2.33,10.38,2.33-5.58-6.16-12.28-25.19-12.76-26.57-7.77-25.77-11.45-59.34-12.63-72.06,4.51.7,9.73,1.25,15.61,1.48,1.49,8.36,6.58,29.44,21,39.2.85,4.3,2.87,13.76,5.48,22.13h0s.04.13.11.36c.29.91.58,1.81.88,2.69,1.27,3.77,3.61,10.26,6.06,14.95l2.34-5.08c2.81,1.11,7.35,3.29,11.53,7.02.45.99.87,1.93,1.28,2.85,1.71,15.61-1.43,26.18-3.73,31.51-.07.06-.14.13-.21.19-2.54,5.89-6.53,11.57-11.67,16.52-7.45,7.18-16.35,11.89-25.06,13.26-8.18,1.29-15.16-.56-19.64-5.21-9.64-10.01-5.28-29.92,9.72-44.37ZM333.45,633.09c-16.87.1-34.02-10.46-39.9-18.14-4.81-6.3-1.56-10.91.06-12.6,2.55-2.65,6.21-3.69,8.17-2.32,6.66,4.66,14.03,5.62,17.67,5.79.01.01.03.03.04.04.24,1.64,1.01,4.25,3.41,6.82,0,0,.12-2.28.65-4.44,5.62,2.28,12.1,1.78,12.1,1.78-16.09-12.36-16.4-25.63-14.98-32.79.28-.93.6-1.74.91-2.41,4.59.72,15.3,1.85,21.29-1.93l-2.17,3.81s4.66-2,9.26-4.56c1.33,20.09,4.36,36.42,9.06,48.83-6.6,7.98-15.2,12.05-25.57,12.12ZM287.65,596.63c-.15.16-.3.32-.45.49-1.84-2.04-3.89-4.94-4.39-8.22-.42-2.75.33-5.38,2.29-8.03,2.71-3.66,4.92-3.16,12.48.39,3.94,1.85,8.74,4.09,14.09,4.46.27,3.3,1.08,6.99,2.72,11.03-2.46-.62-5.27-1.67-7.87-3.5-5.33-3.73-13.44-2.28-18.87,3.37ZM291.94,557.73c2.94-3.13,5.02-2.63,11.17,1.13.08.25.16.49.25.74,1.89,4.98,5.71,8.88,10.95,11.32-.83,1.69-1.67,3.9-2.2,6.59-3.68-.27-7.28-1.96-11.01-3.72-3.31-1.56-7.24-3.41-11.23-3.65-.63-1.48-1.09-3.08-1.14-4.74-.09-2.77.96-5.28,3.21-7.67ZM336.01,523c1.67-4.11,7.93-10.61,14.71-16.68-.41,5.69-.79,11.89-1.06,18.42-4.09-1.46-8.76-2.1-13.65-1.74ZM349.29,556.81c-2.8,2.63-6.35,4.9-10.42,6.45-6.12,2.33-12.48,2.8-17.9,1.33-4.95-1.34-8.46-4.16-9.89-7.93-.71-1.86-.84-3.86-.51-5.89,2.26,2.34,4.53,4.08,6.39,5.31,2.06,1.36,4.4,2.04,6.77,2.04,1.86,0,3.73-.42,5.49-1.28,1.41-.69,3.12-1.72,4.91-3.25.08,2.23-.58,3.89-.58,3.89,11.48-9.75,9.98-17.08,7.81-20.79-.57-1.5-1.48-2.91-2.73-4.09-.51-.48-.93-.95-1.3-1.41.47-.02.94-.05,1.4-.05,4.01,0,7.69.86,10.62,2.44-.21,8.15-.24,15.9-.07,23.23ZM328.23,494.98c4.82-4.98,9.7-9.44,13.53-12.78,2.31,2.13,5.81,4.04,10.55,5.75-.21,2.04-.42,4.28-.64,6.68-1.98,1.64-4.23,3.55-6.53,5.61-9.85,8.8-15.45,15.55-17.15,20.62-2.13,6.39-.36,12.69,4.98,17.74.88.83,1.08,2.09.49,3.07-2.75,4.57-5.79,6.73-7.86,7.74-1.34.66-2.88.57-4.1-.23-4.52-2.98-12.18-9.87-12.69-22.63-.29-7.13,6.61-18.34,19.42-31.56ZM362.58,440.8c.33-.07.67-.14,1.01-.21,15.01-3.2,34.76-4.96,55.8-4.96s41.68,1.83,56.81,5.17c14.22,3.13,19.51,6.57,20.87,8.11h-.06s-.31,1.74-.31,1.74l-1.79,10.21-.53,3.02c-.65.47-1.31.94-1.98,1.4-4.21-2.24-10.08-4.18-17.67-5.85-14.82-3.27-34.47-5.06-55.33-5.06s-40.02,1.76-54.78,4.95c-.18.04-.37.08-.55.12-8.59,1.89-14.99,4.13-19.25,6.75l-.93-5.32-1.8-10.24-.31-1.76c1.42-1.56,6.72-4.97,20.81-8.07ZM352.6,417.87c1.75-.93,2.8-3.82,2.43-7.11-.43-3.83-2.63-6.73-4.91-6.47-2.28.26-3.78,3.56-3.36,7.39-3.36-3.81-6.48-7.83-9.33-12.05,1.29-1.26,2.01-3.77,1.7-6.57-.43-3.83-2.63-6.73-4.92-6.47-1.29.15-2.34,1.27-2.92,2.92-8.97-16.64-14.07-35.67-14.07-55.87,0-22.14,6.12-42.88,16.76-60.61-.17,3.98,1.01,9.96,8.33,14.01-.71,1.53-1.34,3.11-1.89,4.72-3.38-1.01-8.27-3.59-9.98-10.14,0,0-4.34,11.88,8.01,18.39-.27,1.89-.42,3.82-.46,5.78-3.08-.96-6.55-3.1-8.63-7.72,0,0-2.1,11.32,9.22,16.16,3.61,22.25,22.95,39.3,46.2,39.3,4.78,0,9.38-.74,13.72-2.08,1.47,2.92,4.09,5.28,7.54,6.74-2.49,1.24-4.59,2.85-6.26,4.85-3.25,3.93-4.04,8.36-4.15,11.29-7.1,3.92-11.85,9.82-12.83,16.33-.91,6.02,1.64,11.66,6.98,15.48,6.38,4.55,16.18,5.52,23.36,5.52.35,0,.69,0,1.03,0,1.64,1.58,4.44,3.87,8.41,5.62,3.15,1.39,7.4,2.6,12.66,2.6,4.69,0,10.19-.96,16.42-3.6,20.15-8.54,21.67-23.04,21.34-29.09,6.1-5.99,13.68-14.99,15.4-24.1,1.06-5.63-.32-10.58-3.99-14.33-3.1-3.16-6.57-4.79-10.26-5.33,11.33-4.65,20.44-13.62,25.29-24.84,14.25-2.62,13.32-15.59,13.32-15.59-2.89,4.88-7.16,6.46-10.54,6.88.4-1.89.7-3.82.86-5.79,13.5-4.97,10.45-17.54,10.45-17.54-2.32,5.99-7.07,8.11-10.51,8.85-.18-1.79-.47-3.54-.84-5.26,7.73-3.69,8.88-10.16,8.84-13.88,3.34,2.43,6.77,4.28,10.06,5.34,4.16,1.34,7.96,2.03,11.45,2.03,3.28,0,6.3-.61,9.08-1.86,6.58,13.4,10.69,28.22,11.74,43.87-.37-.24-.77-.4-1.2-.44-2.29-.24-4.46,2.68-4.86,6.51-.4,3.84,1.13,7.14,3.42,7.37,1.02.11,2.02-.42,2.85-1.38-1.45,42.86-25.84,79.99-61.25,99.52-3.89-1.55-8.68-2.95-14.4-4.21-15.68-3.45-36.46-5.36-58.53-5.36-18.4,0-35.9,1.33-50.31,3.77-5.9-4.02-11.41-8.55-16.49-13.54ZM456.44,338.91c-6.36,0-12.37-1.55-17.67-4.27-1.9-3.72-5.57-6.33-10.17-7.54-6.78-6.99-10.97-16.52-10.97-27,0-21.4,17.41-38.82,38.82-38.82,4.11,0,8.07.65,11.8,1.84-6.57,3.9-10.44,13.02-9.77,23.87l21.37,3.34-12.83,19.54c6.05,7.67,14.06,11.15,21.04,9.16,1.02-.29,2-.7,2.92-1.2-6.45,12.51-19.5,21.09-34.51,21.09ZM460.27,354.05c4.08-1.78,7.67-2.83,10.77-2.83s5.51.96,7.65,3.14c1.84,1.87,2.42,4.17,1.84,7.24-.92,4.89-4.77,10.82-9.94,16.52-5.86-7.81-9.05-18.78-10.33-24.06ZM446.31,396.73c-8-8.48-11.84-23.31-12.94-28.22,3.99-1.98,8.03-4.31,11.97-6.58,3.01-1.73,5.83-3.33,8.48-4.74,1.66,6.41,5.28,17.65,11.81,25.94-6.13,5.72-13.19,10.75-19.33,13.6ZM449.15,404.24c5.02-2.25,10.7-5.89,16.16-10.26-1.5,4.97-5.63,11.28-16.37,15.83-10.71,4.54-18.58,3.28-23.7.98,8.56-1.16,16.97-3.45,23.91-6.56ZM410.1,403.58c-6.68-.29-12.34-1.58-15.66-3.96-2.89-2.06-4.17-4.75-3.71-7.78.64-4.28,4.41-8.4,9.92-11.11,1.41,5.53,4.34,14.94,9.46,22.85ZM407.25,378.24c9.84-3.31,16.42-5.71,19.59-6.89,1.42,5.99,5.16,18.94,12.55,28.07-6.61,2.16-13.88,3.52-20.72,4-6.48-7.69-9.99-19.43-11.42-25.19ZM420.14,362.16l1.55-.03,1.02-1.17s1.67-1.87,4.43-3.85c1.79-.82,3.43-1.78,4.9-2.85,4.49-2.05,8.94-2.56,13.31-1.55-1.35.76-2.68,1.53-4,2.29-5.11,2.95-10.39,5.99-15.26,8.09-.8.3-8.79,3.35-22.88,8.07.38-1.21.99-2.48,1.97-3.66,2.8-3.39,7.83-5.18,14.95-5.33ZM407.15,341.13c2.03-2.53,5.36-4.65,9.12-5.81,2.18-.67,4.28-.97,6.19-.97,4.96,0,8.69,2,9.5,4.65,1.13,3.68-3.07,9.46-10.9,11.87-3.76,1.16-7.7,1.28-10.81.33-1.51-.46-4.14-1.59-4.89-4.01-.74-2.42.8-4.84,1.78-6.06ZM386.81,293.59l21.37,3.34-12.83,19.54c6.05,7.67,14.06,11.15,21.04,9.16.24-.07.47-.16.7-.24.29.45.59.9.9,1.34-1.34.22-2.7.53-4.06.95-5.33,1.64-9.95,4.64-13,8.44-1.83,2.28-3,4.77-3.48,7.26-3.97,1.38-8.22,2.13-12.65,2.13-21.4,0-38.82-17.41-38.82-38.82s17.41-38.82,38.82-38.82c4.11,0,8.07.65,11.79,1.84-6.56,3.9-10.43,13.02-9.77,23.86ZM413.92,217.41c6.63,11.57,23.76,18.57,44.55,18.56,4.82,0,9.84-.4,14.97-1.18.49.91,1.04,1.79,1.69,2.62,4.39,5.63,11.29,7.98,15.45,8.92,2.36,11.18,10.35,22.1,19.23,28.99-2.64,4.75-6.99,6.42-10.07,6.99-7.01-17.03-23.78-29.04-43.3-29.04-16,0-30.14,8.07-38.59,20.35-8.48-8.48-20.16-13.74-33.07-13.74-15.67,0-29.55,7.74-38.05,19.6-2.74-.47-8.75-2.23-11.38-8.68,17.29-27.44,45.55-47.29,78.57-53.39ZM420.49,201.35c2.48-3.54,7.64-5.39,10.94-6.16,6.45,6.56,12.56,4.39,12.56,4.39-9.36-9.11-8.51-18.45-6.57-24.16.59-1.1,1.28-2.06,1.97-2.89,4.96,8.7,13.59,11.3,13.59,11.3-11.3-18.03-5.99-33.84-1.78-41.72.92-1.42,1.99-2.7,3.23-3.78,3.92-3.42,9.08-4.49,15.76-3.27,7.53,1.37,17.44,8.04,21.85,32.05.54,2.91.94,5.81,1.24,8.6-7.67-17.26-17.23-21.85-21.24-23.05-1.94-6.79-2.71-11.56-2.71-11.56-10.1,23.91,8.64,51.95,13.84,59.03-6.1,5.03-10.4,12.5-11.73,20.9-.34,2.11-.4,4.12-.25,6.03-25.52,3.56-48.8-4.08-51.88-17.51-.76-3.31-.37-5.99,1.18-8.2ZM509.01,202.94c-4.53,4.43-5.06,10.08-4.84,13.59-8.67,5.09-13.59,12.51-14.22,21.35-2.85-.91-6.3-2.54-8.52-5.41-2.07-2.67-2.75-6-2.08-10.19,1.38-8.67,6.78-16.02,14.07-19.16,4.97-2.14,10.35-2.17,15.59-.17ZM512.79,211.36c.94-2.11,2.92-4.25,6.94-5.56,14.1-4.6,31.59-12.42,50.58-22.62,2.09-1.12,4.64-2.12,7.09-2.12,1.92,0,3.78.61,5.31,2.26,3.45,3.7,4.42,11.95.73,19.93-1.22,1.9-5.17,7.94-9.76,14.09-.67.8-1.33,1.59-1.98,2.37-1.87,2.23-3.71,4.42-5.53,6.84-1.39,1.52-2.75,2.86-4.01,3.91-8.59,7.16-11.45,14.72-11.45,14.72,0,0,3.31-1.99,6.9-4.03-1.29,2.86-2.57,6.08-3.85,9.77-8.57,24.82-17.24,27.25-30.23,23.05-10.77-3.48-24.59-18.78-25.61-32.56-.49-6.68,2.11-12.13,7.73-16.29,8.49,11.41,21.96,6.85,21.96,6.85-14.99-6.23-16.09-14.95-14.82-20.6ZM700.09,458.01c-.96-6.54-6.73-12.4-14.05-19.82-8.94-9.07-19.91-20.2-24.37-35.55,10.47-3.87,39.47-16.71,35.55-39.04-1.72-9.79-5.7-15.76-11.83-17.75-2.58-.84-12-2.64-24.63,9.56-1.29,1.25-2.45,2.41-3.52,3.5-6.36,6.42-9.27,9.35-22.55,10.58-2.92.27-5.7.4-8.39.52-11.08.51-20.89.97-28.2,11.33-5.2-2.92-11.05-4.59-17.26-4.59-20.3,0-36.99,17.59-38.48,39.84-7.53,9.14-20.04,24.93-38.61,40.09l.83-4.75c.22-.76.35-1.54.35-2.34,0-2.91-1.48-5.53-4.43-7.89,36.6-22.12,61.12-62.28,61.12-108.08,0-20.29-4.83-39.48-13.37-56.48,5.06-4.91,9.29-12.7,13.07-23.64,5.31-15.37,10.49-21.54,16.49-28.68,3.38-4.03,6.88-8.19,10.72-14.26,7.03-11.14,7.04-25.21.03-32.74-2.53-2.72-9.75-8.33-22.04-1.73-18.53,9.96-35.53,17.57-49.17,22.03-4.93-2.98-10.1-4.54-15.24-4.68.22-14.84-1.45-61-30.5-66.28-9.1-1.65-16.66.06-22.45,5.11-10.02,8.73-11.31,24.85-11.42,30.87-5.42,4-12.05,12.58-9.67,24.63-4.24,1.18-10.44,3.72-14.11,8.92-2.63,3.73-3.54,8.12-2.74,13.06-58.05,11.32-102,62.55-102,123.86,0,40.63,19.3,76.82,49.21,99.92-16.53,3.95-24.6,9.2-24.6,16.04,0,.8.13,1.58.35,2.34l3.94,22.44c-12.33,10.46-38.28,34.66-37.57,52.5.25,6.32,1.87,11.51,4.1,15.74-1.05,2.11-1.79,4.3-2.19,6.49-5.1-2.3-10.91-3.03-16.55,2.97-3.79,4.03-5.62,8.62-5.45,13.65.08,2.4.64,4.65,1.43,6.72-1.19.87-2.34,2.03-3.44,3.52-3.29,4.45-4.57,9.22-3.81,14.19,1.03,6.72,5.67,11.98,8.55,14.67-1.04,4.47-.32,9.78,3.79,15.15,6.62,8.66,25.84,21.39,46.18,21.38.11,0,.22,0,.33,0,12.41-.08,23.11-5.03,31.18-14.31,2.08.76,5.42,1.86,9.98,2.91,1.06,12.44,5.68,59.1,17.45,88.26-9.32,5.11-29.74,19.09-39.18,47.38-5.65,16.93-9.64,22.58-13.12,26.15-4.75,4.89-4.77,12.49-.05,17.31,6.79,6.92,20.27,17.08,40.94,17.08,16.21,0,36.83-6.26,62.08-25.21l11.12,1.47,3.14-1.61c1.09-.56,26.86-14.03,34.1-39.01l.78-2.68-7.16-5.26c.24-1.58.49-3.81.58-6.44,20.88-6.82,46.46-27.69,52.75-87.77l9.21-3.9,1.02-3.38c.38-1.28,9.25-31.56-4.82-56.01l-1.39-2.42-9.51,1.64c-3.94-5.18-15.1-17.85-31.91-21.08-10.09-1.94-20.37-.14-30.65,5.35,3.24-20.58,7.71-46.46,13.13-71.49,34.17-16.92,59.14-42.07,72.22-56.13,6.05,5.94,13.76,9.8,22.25,10.58,15.11,19.42,37.23,36.6,56.48,41.32,3.75.92,7.34,1.38,10.74,1.38,4.95,0,9.5-.97,13.61-2.88l.16.29c.32-.17,1.59-.89,3.14-2.1,2.61-1.65,5.02-3.73,7.18-6.24,3.67-.21,11.13-1.31,15.76-6.61,1.81-2.08,3.74-5.51,3.67-10.67,1.42-.58,3.12-1.42,4.79-2.62,5.46-3.93,7.91-9.82,6.92-16.6ZM542.02,318.69c2.29.24,4.46-2.68,4.86-6.51.4-3.84-1.13-7.14-3.42-7.37-2.29-.24-4.46,2.68-4.86,6.51-.4,3.84,1.13,7.14,3.42,7.37ZM538.02,357.21c2.29.24,4.46-2.68,4.86-6.51s-1.13-7.14-3.42-7.37c-2.29-.24-4.46,2.68-4.86,6.51-.4,3.84,1.13,7.14,3.42,7.37ZM358.64,383.85c-2.28.26-3.79,3.57-3.36,7.4.43,3.83,2.63,6.73,4.92,6.47,2.28-.26,3.79-3.57,3.36-7.4-.43-3.83-2.63-6.73-4.92-6.47ZM526.26,336.52c2.29.24,4.46-2.68,4.86-6.51.4-3.84-1.13-7.14-3.42-7.37-2.29-.24-4.46,2.68-4.86,6.51-.4,3.84,1.13,7.14,3.42,7.37ZM345.79,365.8c-2.28.26-3.79,3.57-3.36,7.4.43,3.83,2.63,6.73,4.92,6.47,2.28-.26,3.79-3.57,3.36-7.4-.43-3.83-2.63-6.73-4.92-6.47Z"/>
</svg>