<?xml version="1.0" encoding="UTF-8"?>
<svg id="Graphic_2" data-name="Graphic 2" xmlns="http://www.w3.org/2000/svg" viewBox="0 0 960 960">
  <defs>
    <style>
      .cls-1 {
        fill: #fc7a3e;
      }

      .cls-2 {
        fill: #719e9a;
      }

      .cls-3 {
        fill: #f2ead5;
      }
    </style>
  </defs>
  <path class="cls-2" d="M582.64,554.02c-1.71,18.71-15.97,33.99-26.35,42.78,5.62-26.04,11.33-52.48,16.23-75.2,7.71,10.68,11.11,21.53,10.12,32.42ZM471.78,816.55c-3.89.07-12.48.36-22.24,2.83-1.1.28-2.15.58-3.2.9-4.14-18.3-8.93-53.03,3.36-86.05,4.82,1.11,9.76,2.01,14.68,2.66,6.19.81,12.5,1.25,18.65,1.31-3.18,16.15-5.01,40.36,1.63,70.3-3.82,1.26-9.43,3.73-12.88,8.06ZM657.92,324.17c-2.93-3.3-7.02-6.51-12.02-9.59-5.1-35-25.88-65.76-55.76-83.78,4.93-3.79,9.62-9.26,11.11-15.55,1.08-4.55.94-11.5-5.86-18.74-3.9-4.15-8.33-6.47-13.13-7.49l-.71-8.19c-.89-10.37-8.72-19.41-19.47-22.52-21.01-6.06-37.9-1.94-48.38,2.58-9.41,4.06-15.32,12.98-15.07,22.8l.37,8.96c-4.63.68-12.5,2.65-16.32,8.26-1.67,2.45-3.23,6.63-1.17,12.59,1.21,3.49,3.61,6.09,6.81,8-29.61,11.17-54.02,34.03-66.74,63.67-5.18,1.59-9.62,3.48-13.12,5.71-4.09,2.61-6.92,5.67-8.21,9.22l-.87,38.9c.49.97,1.07,1.94,1.75,2.9,2.76,3.9,7.1,7.73,12.98,11.48,3.03,15.91,9.31,30.84,18.2,43.96l-3.25,24.73c-.78,5.95,3.62,11.71,13.05,17.2,0,.16-6.44,46.83-13.89,100.87-12.94,7.84-27.86,11.97-38.79,9.05-6.18-1.66-11.26-4.87-15.25-8.29,1.07-1.44,8.74-13.87,8.67-25.55,1.3-2.33,2.33-4.89,2.96-7.69,1.52-6.8,1.5-11.24,1.48-14.81-.03-5.03-.05-8.67,4.46-17.53,6.12-12.03,7.81-20.33,5.31-26.1-1.54-3.56-4.56-6.01-8.95-7.29-4.28-1.24-8.77-.31-12.65,2.61-4.8,3.6-8.28,9.82-9.65,16.77-1.49-.68-3.13-1.32-4.94-1.9-9.34-2.99-17.44-2.64-24.08,1.04-7.52,4.17-10.79,11.41-11.89,14.51-16.64,12.61-23.43,29.96-20.19,51.6,1.61,10.77,7.41,19.19,16.33,23.7,3.24,1.63,6.79,2.69,10.43,3.17,5.16.68,10.49.2,15.36-1.44.45.04,1.03.08,1.72.09,2.42,3.34,9.27,11.81,20.51,18.07,5.4,3.01,12.25,5.72,20.47,6.8,9.63,1.27,21.14.27,34.32-5.12-9.07,65.81-18.12,131.42-18.12,131.42h0s0,.02,0,.03c-1.2,9.12,7.65,17.2,20.87,23.28-5.68,14.51-13.26,42.34-8.62,80.29-3.92.89-9.74,2.8-13.6,6.78-3.88-.3-12.45-.84-22.41.68-21.44,3.27-34.69,14.28-40.85,20.81-1.94,2.05-.72,5.43,2.09,5.78,10.05,1.24,30.55,3.45,48.04,3.45,7.6-.2,14.45-.73,20.57-1.46-.32.39-.63.77-.91,1.14-1.73,2.23-.19,5.48,2.63,5.55,10.13.26,30.74.5,48.15-1.18,29.67-3.66,47.33-11.32,54.13-14.8,1.82-.93,2.63-3.1,1.86-4.99-4.62-11.47-18.91-51.97-9-92.95,11.56-2.78,19.82-7.9,21.05-15.73h0s3.07-14.24,7.79-36.07c4.76,2.24,9.97,3.81,15.38,4.53,3.04.4,6.15.53,9.26.38,16.83-.86,29.29-10.12,34.2-25.42,1.32-4.11.7-8.51-1.64-11.77-.38-.53-.8-1.02-1.24-1.46,1.33-3.14,2.6-7.89.84-12.18-.98-2.39-3.28-5.47-8.63-6.92.13-1.84-.06-3.75-.81-5.58-1.03-2.5-3.49-5.77-9.41-7.13-1.83-.42-3.46-.51-4.93-.37,3.99-3.24,8.91-7.61,13.93-12.97,15.27-16.32,23.96-34.11,25.12-51.44,1.48-22-8.68-43.36-30.2-63.59,4.17-19.3,6.83-31.66,6.85-31.72,10.53-2.86,16.27-7.29,17.05-13.24l3.25-24.72c11.98-10.37,21.9-23.16,28.94-37.74,6.18-1.95,11.08-4.31,14.7-7.09,1.1-.84,2.08-1.72,2.94-2.64l10.07-37.35c-.15-3.83-2-7.6-5.25-11.26Z"/>
  <path class="cls-1" d="M589.56,201.98c-10.5-11.18-28.59-3.36-47.73,4.92-3.04,1.31-6.16,2.73-9.27,3.94-32.88,12.87-37.42-2.88-37.42-2.88,1.46.36,2.93.74,4.53,1.03l-.34-8.31c-3.54.63-8.22,2.01-10.04,4.7-.6.88-1.27,2.41-.22,5.47,3.53,10.22,35.36,7.94,55.71,1.89,0,0,27.6-9.45,40.66,1.98,0,0-2.96,1.33-5.18,2.54.32,4.08-1.96,4.57-4.34,6.86,1.57.7,4.83,1.55,6.36,2.32,4.3-2.58,9.86-7.45,11.18-13.05.92-3.9-.35-7.64-3.91-11.42ZM571.04,188.7c1.05-.13,2.1-.22,3.13-.27l-.6-6.93c-.61-7.09-6.12-13.33-13.72-15.52-18.73-5.4-33.72-1.77-43,2.23-6.39,2.76-10.41,8.72-10.25,15.19l.51,12.22c10.02-3.33,33.12-9.35,63.92-6.93ZM498.41,315.5c-8.3-1.09-12.94,1.36-13.27,2.29.09.94,3.93,4.5,12.24,5.6,8.23,1.08,12.86-1.32,13.27-2.26-.15-1.02-3.99-4.54-12.23-5.62Z"/>
  <path class="cls-3" d="M524.97,557.96l-14.33-13.95-22.27,145.27c8.24,2.07,16.01,4.78,22.55,8.01l4.88-36.13c-5.55-15.37-.53-28.64,5.06-37.42l5.65-41.77,11.62,7.36,28.05-147.75c-1.04-.61-2.12-1.22-3.25-1.81-5.02-2.65-10.85-5.02-17.25-7.05l-20.72,125.25ZM470.04,693.92c-33.51-4.41-55.43,3.08-56.4,10.39h0c-.5,3.85,4.6,9.25,14.43,14.15-3.28-2.71-4.98-5.52-4.62-8.22,1.19-8.9,24.18-13.16,51.34-9.53,23.89,3.19,43.04,11.43,46.51,19.42.28-.52.46-1.05.53-1.57.96-7.31-18.28-20.22-51.79-24.63ZM433.87,817.42s-.17-5.45-4.4-9.47c0,0-6.33-41.36,9.24-80.02.28-.7.12-1.48-.38-2-.16-.17-.36-.32-.6-.42-.01,0-.02-.01-.03-.02-.37-.16-.76-.2-1.12-.13-.24.05-.47.14-.68.28-.31.2-.56.5-.71.88-.08.2-.16.41-.24.63-.17.44-.35.93-.57,1.51-.11.29-.23.61-.37.95-5.53,14.22-13.32,42.46-8.05,80.19,2.85,1.88,3.74,4.45,3.74,4.45-8.94-1.15-18.41,3.97-18.72,4.14,0,0-.02.01-.03.02,2.69,2.65,2.54,5.74,2.54,5.74-2.08-1.35-5.32-2.06-8.35-2.42-2.06-.21-11.37-.98-22.32.53-5.2.72-11.29,2.03-17.24,4.43-1.78.72-3.55,1.53-5.28,2.46-1.73.93-3.41,1.96-5.03,3.12-.22.16-.37.37-.44.59-.11.34-.06.71.12,1.01.12.2.3.36.52.47.11.05.24.08.38.1.72.07,1.48.15,2.26.22,1.56.15,3.24.3,5.01.44.88.07,1.79.14,2.72.21,7.18-4.15,24.45-11.46,52.78-7.73,0,0-.17-4.06-1.86-5.92,0,0,8.8-5.24,17.08-4.23ZM496.46,809.13s-.07-.39-.2-1.11c-.04-.24-.09-.52-.14-.83-.03-.16-.05-.32-.08-.5-.06-.35-.12-.73-.19-1.15-.1-.63-.21-1.32-.33-2.09-.04-.26-.08-.52-.12-.79-.08-.54-.17-1.11-.25-1.71-.26-1.79-.53-3.83-.81-6.07-.14-1.12-.28-2.28-.41-3.49-.09-.81-.18-1.63-.27-2.48-.04-.42-.09-.85-.13-1.28-.09-.86-.17-1.74-.25-2.63-.16-1.78-.31-3.62-.44-5.5-.1-1.41-.19-2.85-.27-4.3-.1-1.94-.19-3.91-.24-5.9-.04-1.49-.07-2.99-.08-4.5-.02-3.51.06-7.05.26-10.52.06-.99.13-1.98.2-2.96.04-.49.08-.98.13-1.47.09-.97.19-1.94.3-2.9.11-.96.24-1.91.38-2.84.14-.94.29-1.86.45-2.77.25-1.37.52-2.71.83-4.01.12-.53-.02-1.04-.33-1.41-.31-.37-.78-.61-1.32-.59-.01,0-.02,0-.03,0-.75.03-1.4.55-1.56,1.29-.08.35-.15.71-.3,1.4-3.42,16.01-5.83,41.41,1.65,72.65,3.02,1.6,4.15,4.07,4.15,4.07-9.01-.29-17.94,5.73-18.23,5.92,0,0-.02.02-.02.02,2.93,2.38,3.08,5.47,3.08,5.47-2.2-1.14-5.5-1.53-8.54-1.61-2.07,0-11.41.12-22.16,2.67-.95.23-1.93.48-2.93.75-7.6,2.09-16.46,5.69-23.52,11.85-.36.31-.45.74-.37,1.14.11.52.53.96,1.16.96,2.27,0,4.83,0,7.61-.05,7.06-4.65,24.89-13.82,54.08-12.32,0,0-.49-4.03-2.32-5.75,0,0,8.35-5.92,16.7-5.57,0,0-.61-5.42-5.13-9.09ZM546.12,604.43c-2.54-.84-6.47-1.15-9.15,3.33-2.14,3.58-.75,8.37.27,10.9,2.64,6.58,8.58,12.8,13.53,14.17,4.98,1.38,9.56.87,11.4-1.26.9-1.04,1.26-2.62,1.1-4.65-1.46-.19-2.8-.48-4.03-.87-5.85-1.5-14.18-5.05-16.06-13.29,0,0,1.77,1.15,3.95,1.41-1.84-4.85-1.79-9.21-1.79-9.26h0s0,0,0,0c.04-.02.32-.2.77-.49ZM566.19,638.68c.21.74.39,1.46.57,2.17.48-.63.96-1.28,1.44-1.94,2.17-3,4.9-6.76,9.47-8.07.1-.88.06-1.71-.22-2.39-.45-1.09-1.73-1.88-3.8-2.36-.96-.22-1.75-.3-2.46-.22.52,5.34-1.09,8.8-2.95,10.94-.62.72-1.31,1.33-2.04,1.87ZM506.42,376.84c3.8-.35,7.88-2.84,11.65-6.01,1.95-9.66,2.22-18.32,2.07-24.11-3.85,1.12-7.55,1.68-11.08,1.68.22,6.6-.06,16.91-2.63,28.44ZM502.01,347.62c-.81-.19-1.62-.4-2.41-.65-.93-.3-1.83-.64-2.68-1.01.07,4.12-.62,8.12-1.27,11.82-1.57,9.05-2.06,13.74,4.01,17.21,2.47-11.28,2.6-21.36,2.35-27.37ZM583.34,655.56c-2.93,1.12-4.2,2.9-5.82,5.16-2.33,3.26-5.16,7.17-12.46,7.34-3.06,4.96-7.03,6.37-7.03,6.37,7-13.91,3.08-26.87.38-32.96-1.94.2-3.92.14-5.84-.11-1.36-.18-2.69-.45-3.93-.8-6.91-1.91-14.06-8.74-17.97-16.96-5.7,6.99-13.63,20.67-6.46,37.09,5.36,12.26,21.48,20.9,37.5,20.09,7.83-.4,21.74-3.51,26.98-19.87.54-1.7.35-3.44-.52-4.65-.5-.69-1.43-1.99-4.84-.69ZM571.02,656.07c1.81-2.54,4.29-6.01,9.48-7.98,1.95-.74,3.82-1.09,5.57-1.06.83-1.96,1.49-4.46.82-6.06-.45-1.09-1.73-1.88-3.8-2.36-3.91-.9-5.21.58-8.41,5-1.63,2.26-3.54,4.88-6.27,7.01.26,3.29.14,6.15-.24,8.62,1.06-.69,1.84-1.75,2.85-3.17ZM326.05,534.41c-7.79-8.21-.34-17.71,5.92-17.17,0,0-1.38-2.37-1.97-7.52,0,0,7.81,10.18,18.75,11.62,0,0-6.59,4.06-14.77-.11,0,0-7.31,3.09-4.89,7.23,2.41,4.14,22.89,6.03,26.02-5.59,3.13-11.63-13.88-24.62-13.88-24.62,0,0,13.55,2.79,18.46,13.47,1.91-1.07,4.95-3.52,5.7-8.52.15-1.49.15-2.9.1-4.09,0,0,0,0,0,0-.97-10.89-20.27-15.15-20.27-15.15,0,0,14.66-4.82,24.08,5.91,1.74-2.1,3.48-5.72,3.19-9.67-.54-7.34-7.95-11.21-14.08-13.18-2.12-.68-4.14-1.15-6.06-1.4-4.53-.6-8.45.01-11.71,1.82-4.23,2.35-6.54,6.28-7.64,8.74,4.55.47,6.67,1.74,6.67,1.74-13.46,2.69-23.37,18.99-23.56,19.31-3.98,8.05-5.13,17.38-3.52,28.15,1.56,10.43,7.4,15.4,12.03,17.74,7.06,3.57,16.1,3.51,23.01-.15,4.55-2.41,6.53-6.87,7.44-11.34-8.65,6.91-23.69,8.43-29.04,2.8ZM578.9,501.09c-1.03-1.14-2.8.27-1.93,1.53,8.36,12.03,18,29.84,18.38,48.35.57,27.94-28.75,54.2-37.64,61.5.7,1.21,1.51,2.33,2.38,3.34,9.36-6.81,39.36-31.02,41.49-62.87,1.11-16.65-7.55-35.03-22.68-51.86ZM380.47,479.59c.05.7.05,1.39.03,2.08.78-2.75,2.04-5.96,4.1-10.01,6.01-11.8,6.09-17.01,5.1-19.29-.36-.82-1.14-2-3.84-2.78-1.86-.54-3.74-.09-5.62,1.32-3.8,2.85-6.55,8.84-7.02,15.01,5.56,4.76,6.98,10.17,7.24,13.68ZM529.18,320.85c.58.22,1.19.38,1.8.49,2.76-2.75,7.22-4.46,11.99-5.51,1.67-1.22,3.5-2.27,5.4-3.15.24-.26.49-.52.72-.79-1.16.1-2.3-.03-3.37-.44-4.92-1.89-7.22-8.97-5.62-17.35l12.77-1.25-9.39-8.19c4.39-8.07,11.31-12.43,16.54-10.42.52.2.99.47,1.45.78-.09-1.02-.21-2.01-.38-2.98-1.16-6.58-4.1-11.09-8.28-12.7-.73-.28-1.48-.47-2.25-.57-9.01-1.19-20.67,9.44-26.57,24.8-6.41,16.67-4.03,33.75,5.19,37.29ZM367.95,546.45c-1.12.78-2.25,1.45-3.38,2.04,5.64,6.23,25.6,23.68,61.37,8.05.29-2.13.59-4.26.88-6.38-11.81,6.61-23.18,9.24-33.91,7.83-1.9-.25-3.79-.63-5.65-1.13-7.07-1.91-14.51-6.51-19.31-10.41ZM362.88,520.53c.12.89.22,1.91.3,3.02,5.33-3.17,12.88-9.05,14.81-17.67,1.33-5.92,1.3-9.53,1.28-13.01,0-1.69-.02-3.32.12-5.05-1.28,3.85-3.52,7.15-6.01,9.27.69,7.71-.92,19.28-10.5,23.45ZM359.7,541.95c1.63-.72,3.27-1.68,4.84-2.94,3.56-2.88,6.23-6.95,7.99-12.13-3.79,2.92-7.47,4.88-9.73,5.96-.56,3.44-1.6,6.49-3.1,9.12ZM486.29,308.25c3.66-1.05,8.17-1.34,13.16-.69.4.05.79.12,1.19.19.76-.47,1.52-1,2.28-1.6,3.81-2.97,7.24-7.13,10.04-12.05.03-.17.06-.35.08-.52-10.59-10.66-24.68-13.04-30.8-13.56-1.65,6.26-2.05,12.41-1.11,17.77.83,4.73,2.62,8.33,5.15,10.47ZM496.35,271.69c8.52,3.29,14.08,8.77,17.4,13.13.36.29.73.58,1.09.89.49-1.67,1.05-3.34,1.7-5.02.94-2.44,2-4.76,3.15-6.96.41-3.72.35-7.31-.23-10.59-1.1-6.27-3.89-10.56-7.86-12.08-.67-.26-1.38-.44-2.1-.53-3.54-.47-7.66,1-11.82,4.25-5.36,4.18-9.98,10.71-13.13,18.43,3.84.43,9.31,1.42,15.25,3.71-1.58-2.67-3.44-5.2-3.44-5.2ZM528.06,360.39c5.13-6.33,9.47-13.08,12.17-17.56-1.96-.6-3.83-1.44-5.49-2.58-2.62,1.53-5.18,2.83-7.68,3.93.21,4.29.25,10.65-.58,18.12.56-.66,1.09-1.3,1.58-1.91Z"/>
  <path d="M587.3,353.76c2.6,1.97,5,4.18,7.19,6.44-1.23,1.37-2.52,2.69-3.84,3.95-1.94-2.19-4.03-3.94-6.14-5.33,1.15-1.7,2.07-3.41,2.79-5.06ZM597.97,364.07c1.63,1.93,3.09,3.82,4.34,5.53-1.7,1.76-3.49,3.42-5.31,4.95-.82-2.01-1.74-3.83-2.74-5.47,1.46-1.64,2.68-3.32,3.71-5.01ZM586.94,381.86c-.74-1.87-1.58-3.56-2.48-5.09,2.33-1.26,4.38-2.67,6.17-4.18,1.24,1.5,2.36,2.97,3.38,4.35-2.45,1.87-4.86,3.52-7.07,4.92ZM581.07,372.07c-1.69-1.92-3.5-3.47-5.34-4.71,2.15-1.38,3.98-2.92,5.53-4.52,1.85,1.62,3.59,3.32,5.22,5.04-1.8,1.51-3.62,2.91-5.41,4.2ZM576.19,347.74c2.87.93,5.62,2.32,8.21,3.99-1.3,1.65-2.71,3.22-4.19,4.71-7.69-3.5-14.57-2.98-14.57-2.98,4.04,1.31,7.86,3.44,11.38,6-2.13,1.88-4.32,3.6-6.44,5.14-6.55-2.69-12.18-2.27-12.18-2.27,3.16,1.03,6.16,2.61,8.97,4.5-6.52,4.33-11.78,6.73-11.78,6.73,6.33-.51,11.49-1.89,15.7-3.79,1.99,1.64,3.86,3.41,5.58,5.21-7.3,4.8-13.12,7.46-13.12,7.46,6.52-.52,11.95-1.85,16.5-3.69,1.42,1.69,2.71,3.33,3.83,4.86-4.16,2.45-7.07,3.79-7.07,3.79,3.22-.26,6.13-.74,8.77-1.4,2.47,3.58,3.85,6.08,3.85,6.08-.38-2.45-.9-4.68-1.52-6.74,3.46-1.07,6.41-2.46,8.92-4.06,2.03,3.06,3.14,5.08,3.14,5.08-.35-2.26-.8-4.36-1.34-6.32,2.61-1.92,4.68-4.07,6.31-6.27,1.47,2.28,2.28,3.73,2.28,3.73-.3-1.92-.68-3.7-1.12-5.38,5.11-7.9,5.1-15.85,5.1-15.85-1.59,3.89-3.99,7.49-6.78,10.77-1.2-2.99-2.65-5.52-4.25-7.67,2.97-6.96,2.97-12.77,2.97-12.77-1.4,3.43-3.35,6.67-5.62,9.69-2.91-2.94-6.09-4.88-9.09-6.15,1.34-4.43,1.35-7.71,1.35-7.71-.98,2.38-2.25,4.66-3.73,6.82-5.6-1.82-10.07-1.49-10.07-1.49ZM448.58,358.32c-1.25-2.2-2.37-4.42-3.38-6.61,1.9-1.55,3.83-2.99,5.75-4.3,1.25,2.49,2.74,4.6,4.33,6.41-2.59,1.32-4.81,2.85-6.7,4.5ZM440.86,368.48c-1.64-2.71-3.07-5.5-4.29-8.23,1.2-1.49,2.5-2.91,3.86-4.26,1.16,2.54,2.52,4.77,4.02,6.71-1.5,1.93-2.67,3.89-3.58,5.77ZM459.78,351.89c-1.59-2.42-2.99-4.94-4.22-7.45,7.4-4.48,13.44-6.88,13.44-6.88-6.05.18-11.11,1.18-15.37,2.69-4.02-9.4-5.63-17.53-5.63-17.53-1.22,7.93-.65,14.36.92,19.57-2.3,1.2-4.31,2.55-6.04,4.01-3.7-9.38-5.21-17-5.21-17-1.33,8.65-.78,15.72.85,21.5-1.48,1.87-2.65,3.78-3.58,5.61-3.32-8.38-4.69-15.22-4.69-15.22-1.46,9.52-.36,16.89,1.98,22.57-.65,2.68-.75,4.44-.75,4.44.45-.95.95-1.88,1.49-2.79,1.62,3.37,3.68,6.08,5.86,8.26-1.09,3.63-1.23,6.19-1.23,6.19.78-1.65,1.7-3.24,2.73-4.78,6.01,5.26,12.3,6.76,12.3,6.76-3.79-2.71-7.01-6.29-9.73-10.21,1.51-1.83,3.15-3.56,4.88-5.18,7.14,6.9,15.17,8.81,15.17,8.81-4.47-3.2-8.23-7.46-11.39-12.11,2.55-2.07,5.16-3.92,7.69-5.54,5.62,4.46,11.11,5.76,11.11,5.76-2.98-2.13-5.6-4.8-7.91-7.74,7.04-4.18,12.66-6.41,12.66-6.41-6.04.18-11.09,1.17-15.34,2.68ZM654.67,336.22l-.44,1.62-2.77,10.28c-1.26-1.35-2.72-2.69-4.37-4.03-6.17-4.99-15.01-9.84-26.51-14.53-16.95-6.92-38.31-12.86-61.78-17.29,2.62-3.84,4.88-8.15,6.66-12.79.46-1.19.88-2.39,1.26-3.59,21.3,4.29,40.62,9.81,56.14,16.14,24.2,9.88,32.28,18.92,31.8,24.18ZM499.66,374.99c-6.07-3.47-5.58-8.16-4.01-17.21.64-3.7,1.34-7.7,1.27-11.82.85.37,1.75.71,2.68,1.01.79.25,1.6.46,2.41.65.25,6.01.12,16.09-2.35,27.37ZM509.06,348.4c3.53,0,7.23-.57,11.08-1.68.15,5.79-.12,14.45-2.07,24.11-3.77,3.18-7.85,5.66-11.65,6.01,2.58-11.53,2.86-21.84,2.63-28.44ZM601.28,414.21c-4.08-4.11-10.81-8.1-20.18-11.93-15.47-6.31-36.4-11.42-58.94-14.39-1.73-.23-3.46-.43-5.18-.63,1.04-1.57,1.58-2.7,1.58-2.7-22.03,15.84-32.39-4.26-32.39-4.26,0,0-.15,2.19.56,4.98-9.18-.1-17.72.31-25.23,1.26-10.06,1.27-17.58,3.39-22.58,6.31-13.48-19.9-20.78-42.27-18.81-67.76,11.01-4.02,30.26-7.12,57.04-7,.25,6.31,8,11.75,19.18,13.22,11.77,1.55,20.99-2.15,22.17-8.8,2.1,2.61,4.72,4.61,7.82,5.8.6.23,1.22.43,1.84.59-.12,1.85,1.27,4.87,1.37,5.09-10.57,5.8-19.59,6.89-27.38,5.39-10.33-1.98-19.25-9.76-19.29-9.85,0,0-.69,5.23,5.36,11.51,1.38,4.87.45,10.2-.44,15.37-1.63,9.39-3.66,21.08,11.54,27.27,1.34.55,2.68.9,4.03,1.07,17.18,2.26,35.17-23.57,43.05-36.56,3.54.41,8.63-1.21,8.63-1.21-2.21-.34-4.17-1.59-5.61-2.79,6.79.15,12.56-1.23,12.56-1.23-1.05.25-10.84-3.5-13.87-4.93-2.79-1.31-5.81-2.91-7.86-5.29-6.56-7.6,4.68-9.36,5.88-9.55,15.81-2.58,26.08,4.53,31.38,10.73,0,0-.39-2.01-.52-3.5,29.57,7.15,49.59,15.91,60,23.2-4.69,25.13-17.53,44.85-35.7,60.58ZM597.7,425.91l-.85,6.45c-4.15-3.52-10.26-6.95-18.37-10.26-15.47-6.31-36.4-11.42-58.94-14.39-22.54-2.97-44.08-3.44-60.66-1.35-8.68,1.1-15.47,2.83-20.39,5.16l.87-6.59.42-3.2c3.89-4.56,21.93-9.36,52.01-8.39,2.06,1.63,4.86,2.9,8.69,3.4,3.64.47,6.78-.57,9.37-2.21,3.63.35,7.37.77,11.26,1.28,47.22,6.21,73.28,19.5,77.05,26.56l-.46,3.53ZM585.52,450.09c-5.85-15.56-36.94-27.55-67.4-31.56-18.66-2.46-36.62-2.06-50.56,1.11-11.02,2.51-18.77,6.65-22.65,11.97-5.55-3.41-8.21-6.46-7.94-8.53.82-6.23,29.54-14.28,81.53-7.44,51.98,6.84,77.65,22.04,76.83,28.28-.27,2.06-3.61,4.31-9.81,6.16ZM601.58,552.95c-2.12,31.86-32.13,56.07-41.49,62.87-.87-1.01-1.68-2.13-2.38-3.34,8.88-7.31,38.2-33.57,37.64-61.5-.38-18.52-10.01-36.32-18.38-48.35-.87-1.26.9-2.67,1.93-1.53,15.13,16.83,23.79,35.2,22.68,51.86ZM571.18,625.88c.71-.07,1.51,0,2.46.22,2.07.48,3.35,1.27,3.8,2.36.28.67.32,1.5.22,2.39-4.56,1.31-7.3,5.07-9.47,8.07-.48.66-.95,1.31-1.44,1.94-.18-.71-.36-1.43-.57-2.17.74-.54,1.42-1.15,2.04-1.87,1.85-2.14,3.47-5.6,2.95-10.94ZM583.08,638.61c2.07.48,3.35,1.27,3.8,2.36.66,1.6,0,4.1-.82,6.06-1.75-.03-3.62.32-5.57,1.06-5.18,1.98-7.66,5.45-9.48,7.98-1.01,1.42-1.79,2.48-2.85,3.17.38-2.47.49-5.34.24-8.62,2.73-2.13,4.64-4.75,6.27-7.01,3.2-4.42,4.5-5.9,8.41-5ZM588.19,656.25c.87,1.21,1.06,2.95.52,4.65-5.25,16.36-19.16,19.47-26.98,19.87-16.02.82-32.14-7.82-37.5-20.09-7.17-16.42.76-30.1,6.46-37.09,3.91,8.22,11.06,15.05,17.97,16.96,1.25.34,2.57.62,3.93.8,1.91.25,3.9.31,5.84.11,2.7,6.1,6.63,19.06-.38,32.96,0,0,3.97-1.4,7.03-6.37,7.3-.18,10.13-4.09,12.46-7.34,1.61-2.26,2.89-4.04,5.82-5.16,3.41-1.3,4.34,0,4.84.69ZM572.52,521.6c7.71,10.68,11.11,21.53,10.12,32.42-1.71,18.71-15.97,33.99-26.35,42.78,5.62-26.04,11.33-52.48,16.23-75.2ZM538.14,589.32l-11.62-7.36-5.65,41.77c-5.59,8.78-10.6,22.05-5.06,37.42l-4.88,36.13c-6.54-3.23-14.31-5.94-22.55-8.01l22.27-145.27,14.33,13.95,20.72-125.25c6.4,2.03,12.23,4.41,17.25,7.05,1.13.59,2.21,1.2,3.25,1.81l-28.05,147.75ZM545.35,604.93c0,.05-.05,4.41,1.79,9.26-2.17-.26-3.95-1.41-3.95-1.41,1.88,8.24,10.21,11.79,16.06,13.29,1.23.39,2.57.68,4.03.87.16,2.02-.2,3.61-1.1,4.65-1.84,2.13-6.42,2.64-11.4,1.26-4.95-1.37-10.89-7.59-13.53-14.17-1.02-2.54-2.41-7.32-.27-10.9,2.67-4.48,6.61-4.17,9.15-3.33-.45.29-.73.47-.77.49t0,0h0ZM521.83,718.55c-.07.53-.25,1.05-.53,1.57-3.47-7.99-22.63-16.23-46.51-19.42-27.16-3.63-50.15.64-51.34,9.53-.36,2.7,1.34,5.51,4.62,8.22-9.82-4.89-14.93-10.29-14.43-14.14h0c.97-7.32,22.89-14.81,56.4-10.4,33.52,4.41,52.75,17.32,51.79,24.63ZM484.66,808.49c-3.82,1.26-9.43,3.73-12.88,8.06-3.89.07-12.48.36-22.24,2.83-1.1.28-2.15.58-3.2.9-4.14-18.3-8.93-53.03,3.36-86.05,4.82,1.11,9.76,2.01,14.68,2.66,6.19.81,12.5,1.25,18.65,1.31-3.18,16.15-5.01,40.36,1.63,70.3ZM487.22,829.55c-29.19-1.51-47.02,7.67-54.08,12.32-2.78.04-5.34.06-7.61.05-.62,0-1.05-.45-1.16-.96-.08-.39.01-.82.37-1.14,7.06-6.17,15.92-9.76,23.52-11.85,1-.27,1.98-.53,2.93-.75,10.76-2.55,20.1-2.68,22.16-2.67,3.04.07,6.34.47,8.54,1.61,0,0-.15-3.09-3.08-5.47,0,0,.02-.02.02-.02.29-.2,9.22-6.21,18.23-5.92,0,0-1.13-2.47-4.15-4.07-7.49-31.24-5.08-56.64-1.65-72.65.15-.69.22-1.05.3-1.4.16-.73.8-1.26,1.56-1.29.01,0,.02,0,.03,0,.54-.02,1.01.22,1.32.59.31.37.45.89.33,1.41-.31,1.3-.59,2.64-.83,4.01-.16.91-.32,1.84-.45,2.77-.14.94-.26,1.88-.38,2.84-.11.96-.21,1.92-.3,2.9-.04.49-.09.98-.13,1.47-.08.98-.15,1.97-.2,2.96-.2,3.47-.28,7.01-.26,10.52,0,1.51.03,3.01.08,4.5.05,1.99.14,3.96.24,5.9.08,1.45.17,2.89.27,4.3.13,1.88.28,3.72.44,5.5.08.89.16,1.77.25,2.63.04.43.09.86.13,1.28.09.84.18,1.67.27,2.48.14,1.21.27,2.38.41,3.49.28,2.24.55,4.27.81,6.07.09.6.17,1.17.25,1.71.04.27.08.53.12.79.12.77.23,1.47.33,2.09.07.42.13.8.19,1.15.03.17.06.34.08.5.05.31.1.59.14.83.13.72.2,1.11.2,1.11,4.53,3.68,5.13,9.09,5.13,9.09-8.34-.36-16.7,5.57-16.7,5.57,1.83,1.72,2.32,5.75,2.32,5.75ZM365.86,835.3c-.93-.07-1.84-.14-2.72-.21-1.77-.14-3.44-.29-5.01-.44-.78-.07-1.54-.15-2.26-.22-.14-.01-.26-.05-.38-.1-.23-.1-.4-.27-.52-.47-.18-.3-.23-.67-.12-1.01.07-.22.22-.43.44-.59,1.62-1.16,3.3-2.19,5.03-3.12,1.73-.93,3.5-1.74,5.28-2.46,5.94-2.4,12.04-3.71,17.24-4.43,10.95-1.51,20.26-.73,22.32-.53,3.02.37,6.26,1.07,8.35,2.42,0,0,.15-3.09-2.54-5.74,0,0,.02-.01.03-.02.3-.17,9.77-5.29,18.72-4.14,0,0-.88-2.57-3.74-4.45-5.28-37.74,2.51-65.97,8.05-80.19.13-.34.26-.66.37-.95.22-.58.4-1.07.57-1.51.08-.22.16-.43.24-.63.15-.37.4-.67.71-.88.21-.14.44-.23.68-.28.36-.07.75-.03,1.12.13.01,0,.02.01.03.02.23.1.43.25.6.42.49.52.66,1.3.38,2-15.58,38.66-9.24,80.02-9.24,80.02,4.22,4.02,4.4,9.47,4.4,9.47-8.29-1.01-17.08,4.23-17.08,4.23,1.69,1.86,1.86,5.92,1.86,5.92-28.33-3.73-45.6,3.58-52.78,7.73ZM364.57,548.48c1.13-.59,2.26-1.25,3.38-2.04,4.79,3.9,12.24,8.5,19.31,10.41,1.86.5,3.75.88,5.65,1.13,10.74,1.41,22.11-1.22,33.91-7.83-.29,2.11-.59,4.25-.88,6.38-35.78,15.63-55.73-1.83-61.37-8.05ZM359.7,541.95c1.5-2.62,2.54-5.68,3.1-9.12,2.26-1.07,5.94-3.03,9.73-5.96-1.76,5.18-4.43,9.24-7.99,12.13-1.57,1.27-3.21,2.22-4.84,2.94ZM355.11,522.86c-3.13,11.63-23.61,9.73-26.02,5.59-2.41-4.14,4.89-7.23,4.89-7.23,8.18,4.17,14.77.11,14.77.11-10.94-1.44-18.75-11.62-18.75-11.62.59,5.15,1.97,7.52,1.97,7.52-6.27-.54-13.71,8.96-5.92,17.17,5.35,5.63,20.39,4.11,29.04-2.8-.91,4.47-2.89,8.93-7.44,11.34-6.92,3.66-15.95,3.72-23.01.15-4.63-2.34-10.47-7.31-12.03-17.74-1.61-10.77-.46-20.1,3.52-28.15.19-.31,10.1-16.62,23.56-19.31,0,0-2.13-1.27-6.67-1.74,1.1-2.46,3.41-6.4,7.64-8.74,3.26-1.81,7.18-2.41,11.71-1.82,1.91.25,3.93.72,6.06,1.4,6.12,1.96,13.54,5.84,14.08,13.18.29,3.95-1.45,7.57-3.19,9.67-9.42-10.73-24.08-5.91-24.08-5.91,0,0,19.3,4.26,20.27,15.15,0,0,0,0,0,0,.05,1.19.05,2.61-.1,4.09-.75,4.99-3.79,7.45-5.7,8.52-4.91-10.69-18.46-13.47-18.46-13.47,0,0,17.01,12.99,13.88,24.62ZM380.24,450.9c1.88-1.41,3.77-1.86,5.62-1.32,2.69.78,3.48,1.96,3.84,2.78.99,2.29.91,7.49-5.1,19.29-2.06,4.05-3.32,7.26-4.1,10.01.02-.69.02-1.38-.03-2.08-.26-3.51-1.68-8.92-7.24-13.68.47-6.16,3.22-12.15,7.02-15.01ZM377.99,505.88c-1.93,8.62-9.48,14.5-14.81,17.67-.07-1.11-.18-2.13-.3-3.02,9.58-4.16,11.19-15.74,10.5-23.45,2.49-2.11,4.73-5.41,6.01-9.27-.13,1.73-.13,3.35-.12,5.05.02,3.49.04,7.1-1.28,13.01ZM412.8,313.27c-1.79.8-3.43,1.65-4.91,2.55l.42-14.14c2.91-4.8,13.52-10.23,36.18-13.1,8.62-1.09,18.19-1.7,28.41-1.85-.44,4.34-.34,8.56.35,12.45.31,1.78.75,3.44,1.28,5-11.7.05-22.62.67-32.38,1.91-12.32,1.56-22.12,3.96-29.37,7.18ZM496.35,271.69s1.86,2.53,3.44,5.2c-5.93-2.29-11.4-3.28-15.25-3.71,3.14-7.72,7.77-14.24,13.13-18.43,4.16-3.25,8.28-4.71,11.82-4.25.73.1,1.43.27,2.1.53,3.96,1.52,6.75,5.81,7.86,12.08.58,3.28.64,6.87.23,10.59-1.15,2.2-2.21,4.52-3.15,6.96-.65,1.68-1.2,3.36-1.7,5.02-.36-.3-.72-.6-1.09-.89-3.32-4.36-8.88-9.84-17.4-13.13ZM510.64,321.11c-.4.94-5.03,3.35-13.27,2.26-8.3-1.09-12.15-4.66-12.24-5.6.34-.93,4.97-3.38,13.27-2.29,8.23,1.08,12.08,4.6,12.23,5.62ZM502.92,306.15c-.76.6-1.52,1.12-2.28,1.6-.39-.06-.78-.13-1.19-.19-4.99-.66-9.5-.36-13.16.69-2.53-2.14-4.32-5.74-5.15-10.47-.94-5.36-.54-11.51,1.11-17.77,6.11.52,20.2,2.9,30.8,13.56-.03.17-.06.35-.08.52-2.8,4.92-6.23,9.08-10.04,12.05ZM527.06,344.18c2.5-1.1,5.06-2.4,7.68-3.93,1.66,1.15,3.53,1.98,5.49,2.58-2.7,4.48-7.04,11.23-12.17,17.56-.49.61-1.02,1.25-1.58,1.91.83-7.47.79-13.82.58-18.12ZM552.88,292.83l-12.77,1.25c-1.59,8.38.7,15.46,5.62,17.35,1.07.41,2.2.54,3.37.44-.24.27-.48.53-.72.79-1.89.88-3.72,1.93-5.4,3.15-4.77,1.05-9.23,2.76-11.99,5.51-.62-.11-1.22-.27-1.8-.49-9.22-3.54-11.59-20.62-5.19-37.29,5.9-15.36,17.56-25.98,26.57-24.8.77.1,1.52.29,2.25.57,4.18,1.6,7.12,6.11,8.28,12.7.17.97.29,1.97.38,2.98-.46-.31-.93-.58-1.45-.78-5.23-2.01-12.15,2.34-16.54,10.42l9.39,8.19ZM447.92,258.55c1.77.32,3.48.78,5.11,1.35-6.45,7.95-6.7,16.79-6.7,16.79,2.95-5.89,6.99-10.86,11.18-14.93,1.67.81,3.22,1.69,4.63,2.58-5.45,6.38-5.67,13.69-5.67,13.69,2.29-4.58,5.43-8.45,8.68-11.64,3.31,2.41,5.26,4.41,5.26,4.41-1.19-2.29-2.47-4.2-3.82-5.78,7.14-6.49,14.37-9.71,14.37-9.71-7.96.91-13.33,3.73-16.96,7.08-1.38-1.19-2.77-2.11-4.16-2.8,8.83-7.83,17.55-11.71,17.55-11.71-10.9,1.24-17.97,5.31-22.57,10.01-2.41-.46-4.56-.39-6.13-.19,14.18-15.49,32.65-26.78,53.23-32.18,12.2,1.39,27.09-.79,37.43-3.12,1.5.13,3,.29,4.5.48,13.65,1.8,26.38,6.06,37.82,12.26l.15.42c.11-.04.23-.1.34-.14,10.49,5.76,19.87,13.17,27.84,21.83-.19-.03-.4-.07-.59-.09-2.11-1.27-3.58-1.83-3.58-1.83.56.52,1.1,1.07,1.62,1.63-2.81-.21-5.38-.07-7.71.33-4.09-3.4-7.72-4.77-7.72-4.77,1.75,1.63,3.32,3.47,4.73,5.44-2.01.57-3.81,1.34-5.44,2.21-5.59-7.64-13.1-10.47-13.1-10.47,3.86,3.59,6.85,8.2,9.18,13.05-5.5,4.32-7.84,9.44-7.84,9.44,2.69-2.52,5.9-4.53,9.31-6.14.97,2.37,1.8,4.75,2.51,7.07-3.95,3.8-5.67,7.55-5.67,7.55,1.93-1.81,4.13-3.36,6.48-4.68.93,3.45,1.58,6.67,2.04,9.35-1.62,2.18-2.37,3.81-2.37,3.81.83-.78,1.71-1.51,2.63-2.19.56,3.65.72,5.98.72,5.98.77-2.67,1.29-5.18,1.62-7.56,3.02-1.89,6.33-3.38,9.7-4.54,2.05,8.37,2.49,14.92,2.49,14.92,1.79-6.21,2.32-11.61,1.99-16.29,2.66-.72,5.27-1.26,7.69-1.66,3.47,10.96,4.13,20.76,4.13,20.76,2.5-8.67,2.53-15.75,1.22-21.5.16-.02.31-.03.47-.05,5.78,10.05,10,21.04,12.37,32.61-17.49-8.65-42.01-16.08-68.22-21.44,1.13-6.14,1.25-12.14.3-17.55-1.67-9.46-6.39-16.12-13.29-18.78-9.11-3.5-19.73.9-28.26,10.51-.03-.21-.06-.42-.1-.63-1.61-9.14-6.18-15.59-12.86-18.16-6.69-2.57-14.4-.84-21.72,4.88-6.73,5.26-12.46,13.39-16.11,22.91-.94,2.46-1.72,4.94-2.33,7.41-15.97.17-30.69,1.41-42.76,3.87,4.4-8.81,9.93-16.89,16.38-24.09ZM489.28,205.4c1.82-2.69,6.5-4.08,10.04-4.7l.34,8.31c-1.6-.3-3.07-.68-4.53-1.03,0,0,4.54,15.75,37.42,2.88,3.11-1.22,6.23-2.63,9.27-3.94,19.14-8.28,37.22-16.11,47.73-4.92,3.55,3.78,4.83,7.52,3.91,11.42-1.33,5.6-6.89,10.48-11.18,13.05-1.53-.77-4.79-1.62-6.36-2.32,2.37-2.29,4.66-2.78,4.34-6.86,2.22-1.22,5.18-2.54,5.18-2.54-13.06-11.42-40.66-1.98-40.66-1.98-20.35,6.05-52.18,8.33-55.71-1.89-1.06-3.05-.38-4.58.22-5.47ZM531.27,202.72c-.58.24-1.17.5-1.75.73-9.95,4.09-16.71,5.66-21.83,6.02l-.27-6.51c5.99-2.1,20.71-6.52,41.06-7.56-2.98,1.21-5.96,2.5-8.93,3.78-3.85.31-8.99.9-13.13,1.95,0,0,2.3.72,4.84,1.59ZM516.86,168.22c9.28-4,24.27-7.64,43-2.23,7.6,2.19,13.11,8.43,13.72,15.52l.6,6.93c-1.03.05-2.08.14-3.13.27-30.8-2.42-53.9,3.6-63.92,6.93l-.51-12.22c-.17-6.47,3.86-12.43,10.25-15.19ZM595.95,269.55c-.59-2.01-1.34-3.83-2.21-5.49,1.93-.69,3.87-1.27,5.78-1.76.82,1.47,1.58,2.97,2.27,4.49-2.19.73-4.14,1.69-5.84,2.76ZM596.87,273.7c2.23-.94,4.51-1.73,6.77-2.38.62,1.68,1.17,3.35,1.66,4.98-3.39,1.54-6.06,3.6-8.1,5.62.19-2.99.05-5.72-.34-8.22ZM613.51,265.43c-2.39-.17-4.61-.1-6.65.18-.93-1.6-1.96-3.02-3.04-4.29,2.28-.45,4.45-.79,6.4-1.03,1.2,1.63,2.29,3.36,3.28,5.14ZM617.34,273.81c-2.55-.01-4.88.28-7.01.78-.36-1.64-.82-3.17-1.37-4.6,2.23-.47,4.37-.82,6.32-1.09.76,1.62,1.44,3.26,2.06,4.9ZM657.92,324.17c-2.93-3.3-7.02-6.51-12.02-9.59-5.1-35-25.88-65.76-55.76-83.78,4.93-3.79,9.62-9.26,11.11-15.55,1.08-4.55.94-11.5-5.86-18.74-3.9-4.15-8.33-6.47-13.13-7.49l-.71-8.19c-.89-10.37-8.72-19.41-19.47-22.52-21.01-6.06-37.9-1.94-48.38,2.58-9.41,4.06-15.32,12.98-15.07,22.8l.37,8.96c-4.63.68-12.5,2.65-16.32,8.26-1.67,2.45-3.23,6.63-1.17,12.59,1.21,3.49,3.61,6.09,6.81,8-29.61,11.17-54.02,34.03-66.74,63.67-5.18,1.59-9.62,3.48-13.12,5.71-4.09,2.61-6.92,5.67-8.21,9.22l-.87,38.9c.49.97,1.07,1.94,1.75,2.9,2.76,3.9,7.1,7.73,12.98,11.48,3.03,15.91,9.31,30.84,18.2,43.96l-3.25,24.73c-.78,5.95,3.62,11.71,13.05,17.2,0,.16-6.44,46.83-13.89,100.87-12.94,7.84-27.86,11.97-38.79,9.05-6.18-1.66-11.26-4.87-15.25-8.29,1.07-1.44,8.74-13.87,8.67-25.55,1.3-2.33,2.33-4.89,2.96-7.69,1.52-6.8,1.5-11.24,1.48-14.81-.03-5.03-.05-8.67,4.46-17.53,6.12-12.03,7.81-20.33,5.31-26.1-1.54-3.56-4.56-6.01-8.95-7.29-4.28-1.24-8.77-.31-12.65,2.61-4.8,3.6-8.28,9.82-9.65,16.77-1.49-.68-3.13-1.32-4.94-1.9-9.34-2.99-17.44-2.64-24.08,1.04-7.52,4.17-10.79,11.41-11.89,14.51-16.64,12.61-23.43,29.96-20.19,51.6,1.61,10.77,7.41,19.19,16.33,23.7,3.24,1.63,6.79,2.69,10.43,3.17,5.16.68,10.49.2,15.36-1.44.45.04,1.03.08,1.72.09,2.42,3.34,9.27,11.81,20.51,18.07,5.4,3.01,12.25,5.72,20.47,6.8,9.63,1.27,21.14.27,34.32-5.12-9.07,65.81-18.12,131.42-18.12,131.42h0s0,.02,0,.03c-1.2,9.12,7.65,17.2,20.87,23.28-5.68,14.51-13.26,42.34-8.62,80.29-3.92.89-9.74,2.8-13.6,6.78-3.88-.3-12.45-.84-22.41.68-21.44,3.27-34.69,14.28-40.85,20.81-1.94,2.05-.72,5.43,2.09,5.78,10.05,1.24,30.55,3.45,48.04,3.45,7.6-.2,14.45-.73,20.57-1.46-.32.39-.63.77-.91,1.14-1.73,2.23-.19,5.48,2.63,5.55,10.13.26,30.74.5,48.15-1.18,29.67-3.66,47.33-11.32,54.13-14.8,1.82-.93,2.63-3.1,1.86-4.99-4.62-11.47-18.91-51.97-9-92.95,11.56-2.78,19.82-7.9,21.05-15.73h0s3.07-14.24,7.79-36.07c4.76,2.24,9.97,3.81,15.38,4.53,3.04.4,6.15.53,9.26.38,16.83-.86,29.29-10.12,34.2-25.42,1.32-4.11.7-8.51-1.64-11.77-.38-.53-.8-1.02-1.24-1.46,1.33-3.14,2.6-7.89.84-12.18-.98-2.39-3.28-5.47-8.63-6.92.13-1.84-.06-3.75-.81-5.58-1.03-2.5-3.49-5.77-9.41-7.13-1.83-.42-3.46-.51-4.93-.37,3.99-3.24,8.91-7.61,13.93-12.97,15.27-16.32,23.96-34.11,25.12-51.44,1.48-22-8.68-43.36-30.2-63.59,4.17-19.3,6.83-31.66,6.85-31.72,10.53-2.86,16.27-7.29,17.05-13.24l3.25-24.72c11.98-10.37,21.9-23.16,28.94-37.74,6.18-1.95,11.08-4.31,14.7-7.09,1.1-.84,2.08-1.72,2.94-2.64l10.07-37.35c-.15-3.83-2-7.6-5.25-11.26Z"/>
</svg>