<?xml version="1.0" encoding="UTF-8"?>
<svg id="Graphic_1" data-name="Graphic 1" xmlns="http://www.w3.org/2000/svg" viewBox="0 0 960 960">
  <defs>
    <style>
      .cls-1 {
        fill: #719e9a;
      }

      .cls-2 {
        fill: #fc5454;
      }

      .cls-3 {
        fill: #f2ead5;
      }
    </style>
  </defs>
  <path class="cls-1" d="M775.35,608.1l-62.69-115.98,5.71-2.16,10.96-41.9-9.55-7.93,12.96-5.74.14.12,11.69-44.67-8.87-7.37,12.42-6.19,14.97-57.22c7.19-27.47-1.16-56.66-21.78-76.17l-57.06-54c-17.13-16.21-38.52-26.59-61.87-30.03l-2.67-.39-3.97,9.94-5.54-10.7-48.42-2.58-3.8,9.52-5.47-9.86-48.76-2.74-3.98,9.98-5.85-10.55-34.48-1.79c-3.96-.21-8.01-.17-12.02.13l-2.28.17-.77,2.33c-.02.08-.05.15-.08.22l-3.14,7.86-2.08-.14-8.34-7.99-7.06,2.44c-29.88,10.32-52.49,34.73-60.48,65.29l-11.4,43.58,7.97,14.25-11.57-.46-11.22,42.87,7.95,14.22-11.55-.46-11.53,44.06,7.4,13-10.69-.43-12.39,47.34,7.63,13.52-11.06-.44-12.78,48.85,7.91,14.13-11.49-.46-.92,3.52c-4.16-1.89-7.47-3.51-10.06-4.84.96-6.39.71-11.78.43-14.05,1.3-3.24,2.36-6.83,3.02-10.8,2.38-14.26-.13-27.12-7.06-36.21-5.5-7.22-13.59-11.71-22.78-12.66-5.6-.58-11.83,1.63-17.67,5.43-8.5-3.67-17.46-11.85-27.5-21.04-14.48-13.26-30.9-28.29-52-35.32-23.17-7.72-39.96.64-44.58,12.89-3.77,10.01.49,23.5,18.49,31.09,23.18,9.77,35.51,18.9,40.52,23.17-3.82,4.33-5.5,9.28-6.18,12.02-6.24,3.51-25.85,17.01-16.07,43.75,7.09,19.39,38.4,42.94,66.64,43.12.11,0,.21,0,.32,0,7.4,0,16.13-1.61,24.14-7.14,7.22.15,13.18-.94,18.11-2.89,5.15,2.65,12.99,6.36,24.26,10.95-1.28,20.6,4.23,41.24,15.96,58.61l14.55,21.55c19.44,28.79,50.44,46.98,83.1,49.9l21.41,1.52v-13.18l3.25.1,15.37,14.78,22.61,1.91c.76.75,1.49,1.48,2.18,2.18-18.12,24.01-33.66,49.49-40.62,61.31-3.57-1.38-7.14-1.82-10.49-1.16-2.4-5.25-5.6-7.68-7.98-8.79-4.13-28.51-15.2-49.07-32.91-61.16-22.46-15.32-48.31-12.03-56.03-10.58-6.45-.27-12.82,1.57-18.22,5.4-15.79,11.2-14.24,24.65-14.17,25.21l.24-.03c-.61,3.89-.22,8.63,1.94,14.34,4,10.56,15.29,23.27,28.37,37.99,17.82,20.07,38.03,42.81,45.78,66.44,6.68,20.35,16.52,27.46,24.6,27.46.26,0,.51-.01.76-.03,1.49.38,2.99.55,4.48.55,4.67,0,9.09-1.59,11.9-2.87,4.56-.19,21.65-2.44,29.07-24.97.95.15,1.88.23,2.8.23,2.33,0,4.57-.48,6.66-1.44,5.95-2.75,9.68-8.99,10.5-17.57.65-6.8-.61-14.52-3.55-22.06,5.39-9.25,22.3-37.58,42.08-63.86,15.6,13.75,30.18,24.23,42.17,31.88,11.15,7.12,20.98,12.46,28.86,16.34-2.34,10.24-.9,19.49,4.2,24.97-.19.27-.36.54-.51.8-30.04-1.26-53.34,4.46-69.28,17-13.95,10.98-18.6,24.54-20.13,31.65-.54,2.5.08,5.08,1.68,7.07,1.61,1.99,4,3.13,6.56,3.13h139.83c4.92,0,9.2-3.33,10.41-8.09l21.7-85.39c1.26-4.94-.77-10.04-5.05-12.69-14.8-9.17-31.81-8.42-38.75-7.6-1.49-2.81-3.57-5.04-6.2-6.56-9.02-5.21-21.68-.43-31.65,10.94-17.25-9.55-41.32-24.79-64.93-46.14l32.93,2.49v-14.33l16.67,16.02,35.76,3.02,6.84.29v-13.91l.47.04,15.21,14.62,1.54-.13c24.76-2.11,46.57-15.93,59.32-36.31h72.22c13.82,0,26.31-7.08,33.41-18.94,7.1-11.86,7.44-26.21.92-38.39Z"/>
  <path class="cls-3" d="M439.62,389.07l13.21.53c.6-2.09,1.2-4.18,1.8-6.27l-13.26-.53-1.75,6.28ZM470.92,326.75l-10.78-.43c-.05.53-.13,1.06-.2,1.59-.2,1.59-.45,3.17-.8,4.72l9.97.4c.61-2.12,1.22-4.21,1.81-6.27ZM486.31,273.54l-13.99-.51-2.83,9.14,14.16.56c1.08-3.75,1.99-6.86,2.66-9.19ZM359.99,315.48c2.67-10.6,5.25-20.83,7.71-30.52l-14.31-.57-7.98,30.51,14.58.58h0ZM389.58,202.26c3.41-8.25,14.03-15.73,21.95-20.38l7.14-17.89c-13.56,6.07-25.19,15.39-33.98,26.99-.98,1.29-1.92,2.6-2.82,3.95-1.81,2.69-3.47,5.48-4.98,8.37-.75,1.44-1.47,2.91-2.14,4.4-2.02,4.47-3.69,9.15-4.95,13.99l-9.57,36.57,14.15.56c8.17-31.79,14.02-53.71,15.2-56.57ZM353.44,341.61l-14.86-.59-7.98,30.51,15.26.61c2.54-10.28,5.08-20.49,7.59-30.53ZM339.4,398.28l-15.64-.62-8.97,34.3,16.23.65c2.73-11.25,5.54-22.74,8.39-34.32ZM324.7,458.75l-16.75-.67-9.52,36.4,17.62.68c2.66-11.33,5.57-23.57,8.65-36.4ZM313.67,630.85c13.87,20.54,33.99,35.33,57.11,42.47-51.72-38.54-72.48-87.48-70.79-107.71.41-4.88,4.73-21.16,10.01-44.27l-18.4-.73-4.61,17.61c-6.37,24.33-1.95,50.25,12.13,71.09l14.55,21.55ZM242.34,500.27s7.94.95,11.66,13.61c6.09-4.24,14.9-12.79,17.4-27.74,2.03-12.19.04-22.98-5.61-30.39-4.29-5.62-10.32-9.73-17.56-9.73-22.14,0-30.41,25.54-30.46,25.67-1.8,5.26-1.49,9.78,2.08,10.92,19.35,6.2,30.94-10.84,31.28-11.34,0,0,2.43,8.6-8.8,15.77,3.19.85,8.39,1.59,12.49-.97,0,0-4.83,12.97-21.94,5.35-.84,7.91-5.67,17.01-19.65,25.09-1.27,3.88-4.95,14.3-14.5,16.48-18.38,4.18-26.53-16.25-26.53-16.25,9.76,8,18.1,11.14,24.1,9.1,2.94-1,5.12-3.16,6.68-5.42,0,0,0,0,0,0,0,0,0,0,0,0,.97-1.41,1.71-2.85,2.24-4.08,1.54-5.44.12-16.17-22.66-31.21,0,0,24.87.13,31.54,21.85,6.2-4.47,9.89-9.4,11-14.75-3.02-.27-6.12-1.26-9.25-3.21-6.28-3.92-8.19-11.12-5.22-19.78.42-1.21.92-2.44,1.5-3.67-7.86-6.65-17.54-11.13-24.3-11.49-.55-.03-1.09-.04-1.62-.04-11.42,0-16.05,6.76-17.89,11.4,10.88,1.29,12.91,6.8,12.91,6.8-13.56-3.27-22.51,4.33-24.46,6.2-5.55,5.41-10.99,14.89-5.66,29.44,6.24,17.05,34.96,38.01,59.6,38.16.09,0,.19,0,.28,0,13.91,0,24.43-6.45,31.4-19.16,3.32-6.9,5.11-16.3-.05-26.62ZM359.59,739.74c-17.79.52-37.73,2.23-52.75,3.81,1.64,1.86,3.33,3.76,5.05,5.7,4.59,5.17,9.33,10.51,13.99,16,14.1-1.38,30.96-2.69,45.91-3.19-3.6-7.71-7.7-15.23-12.21-22.32ZM303.58,692.26c-1.39-.28-2.78-.41-4.15-.41-3.87,0-7.56,1.09-10.52,3.16-4.59,3.21-6.35,7.68-5.34,13.56,11.97-1.4,28.82-3,45.22-3.99-8.12-6.25-16.63-10.6-25.2-12.32ZM273.64,520.12c-.6,1.98-1.35,3.97-2.25,5.92l10.47,4.79,1.59-6.08c-3.91-1.76-7.15-3.31-9.81-4.64ZM336.3,711c-18.28.88-37.52,2.73-50.66,4.23,2.78,6.19,8.53,13.63,15.71,22.02,14.86-1.65,35.51-3.47,53.77-4.19-5.8-8.27-12.13-15.77-18.82-22.06ZM252.28,523.64c-2.03,5.03-4.4,9.24-6.99,12.78,4.83-1.75,10.3-4.67,14.67-9.55,3.65-4.08,6.12-9.07,7.39-14.9-5.85,6.68-12.19,10.27-15.08,11.67ZM377.94,840.32c3.25-.88,6.53-5.1,8.08-12.58-7.51.45-15.04,1.03-22.1,1.66,4.82,8.74,10.24,11.96,14.02,10.93ZM498.44,663.8c-1.82-1.19-3.62-2.13-5.03-2.8-28.68,26.23-60.4,77.69-71.26,96.01,1.56,1.14,3.1,2.47,4.58,3.94,10.55-16.02,50.36-75.69,71.7-97.15ZM384.41,798.04c-11.01.4-22.63,1.22-33.3,2.15,3.33,5.97,6.12,12.06,8.16,18.25.51,1.54,1.03,2.99,1.58,4.36,8.31-.75,17.26-1.44,26.03-1.95.3-5.63-.22-12.45-1.93-20.45-.17-.78-.35-1.57-.53-2.36ZM374.8,768.8c-14.28.38-30.05,1.55-43.61,2.82,5.79,7.12,11.29,14.48,16.05,22.05,11.36-1.02,23.85-1.92,35.45-2.39-2.07-7.45-4.73-15.01-7.88-22.47ZM313.23,680.3c-1.58-.49-3.18-.79-4.78-.92-.56.11-.89.19-.92.2l-.06-.25c-4.7-.17-9.34,1.18-13.27,3.97-.84.6-1.61,1.2-2.33,1.8,4.18-1.2,8.74-1.4,13.25-.49,24.38,4.88,43.84,26.23,55.87,43.29,14.74,20.89,26.55,47.39,31.59,70.88,3.59,16.71,2.58,31.16-2.19,40.09,1.29-.59,2.11-1.08,2.14-1.1l.13-.08c.85-.65,15.56-13.2-9.75-81.92-19.5-52.95-52.02-70.01-69.68-75.46ZM417.4,763.19l-4.48-2.53c-1.74-.71-3.41-1.1-4.94-1.1-.27,0-.53.02-.79.04.49,2.46.82,5.28.96,8.49,3.98,1.87,13.09,9.23,19.36,28.57,0,0-1.75-1.08-3.91-1.95,1.48,5.62,2.06,11.9.97,18.67,1.44.13,2.89-.02,4.28-.67,4.49-2.07,5.69-7.92,6-11.22.62-6.46-.91-14.06-4.3-21.39-3.61-7.82-8.41-13.53-13.15-16.92ZM465.62,477.04c-5.32,3.08-10.36,5.99-15.79,8.69,2.48,8.62,8.06,24.95,17.14,35.34,3.08-1.43,6.18-3.1,9.27-5.05,7.89-4.99,14.76-9.91,20.59-14.71-7.92-10.79-12.84-24.76-15.3-33.15-5.91,3.1-10.98,6.03-15.91,8.88ZM418.72,496.78c-2.17.51-4.22,1.02-6.15,1.53,2.56,8.3,7.29,20.97,14.41,30.24,9.56.52,21.2-.36,33.37-4.75-8.8-11.01-14.19-26.22-16.8-35.12-6.96,3.05-14.85,5.77-24.83,8.11ZM405.97,500.19c-9.91,3.08-15.61,6.22-17.29,9.51-.55,1.07-1,2.73.39,6.04.65,1.54,6.21,5.79,16.69,9.09,2.49.78,6.76,1.95,12.28,2.79-5.88-9.32-9.8-20.04-12.07-27.43ZM519.74,463.81h0c-.39-1.86-1.85-3.44-3.73-4.02-1.49-.46-3.67-.88-6.59-.85-4.95.05-12.06,1.42-21.67,6.06,2.18,7.61,6.84,21.48,14.27,31.82,13.48-12.31,19.67-23.65,17.72-33.01ZM575.68,761.55c-37-16.51-65.43-37-86.31-55.77-1.15,1.43-2.3,2.86-3.44,4.32,41.09,36.24,77.72,51.48,86.64,54.86,1.04-.89,2.09-2.07,3.11-3.41ZM637.48,749.62c-1.11-.69-2.23-1.3-3.37-1.86l-20.09,79.98c-1.21,4.8-5.48,8.12-10.41,8.12-.05,0-.1,0-.15,0l-127.46-1.7c-.9,2.38-1.5,4.57-1.9,6.43-.04.19,0,.36.12.51.12.15.28.23.48.23h139.83c1.34,0,2.51-.91,2.84-2.21l21.7-85.39c.41-1.6-.25-3.29-1.59-4.13ZM579.88,781.85c4.07-3.09,8.15-7.65,11.6-13.63,4.04-7,6.25-14.43,6.22-20.92-.02-3.32-.68-9.25-4.96-11.72-4.79-2.77-13.14.04-20.66,7.98,2.85,1.49,5.42,2.78,7.66,3.87,1.59-1,2.54-2.26,4.1-2.49,1.65-1.65,2.32-3.05,2.32-3.05,2.06,21.44-14.93,36.23-20.08,34.86-3.85-1.03-3.57-5.22-3.19-7.27-1.08-.46-2.24-.97-3.49-1.53-1.37,7.45-.11,13.53,2.98,16.54,4.38-2.18,10.23-3.07,17.49-2.65ZM528.8,574.96c2.78,4.01,7.02,6.35,10.86,7.44.96-3.09,2.01-5.6,2.69-7.1-5.17-17.26,3.75-29.22,7.45-33.25-.15-2.16-.24-5.86.3-10.17-7.34,2.36-19.74,8.45-23.4,23.25-2.03,8.23-1.33,14.9,2.09,19.82ZM606.4,598.39c-10.87-19.26-20.25-22.87-20.25-22.87,17.78-1.82,20.25,22.87,20.25,22.87ZM614.63,582.4c-10.87-19.26-20.25-22.87-20.25-22.87,17.78-1.82,20.25,22.87,20.25,22.87ZM622.86,566.4c-10.87-19.26-20.25-22.87-20.25-22.87,17.78-1.82,20.25,22.87,20.25,22.87ZM548.82,568.15c17.42-7.55,24.48,1.75,24.48,1.75-16.19-.12-22.54,6.68-25,11.44-2.23,5.78-5.34,16.63-.87,23.9,2.68,4.35,7.94,6.98,15.69,7.8-.27-1.34-.49-2.61-.66-3.8-2.04-.93-5.13-2.28-5.13-2.28,1.38-1.57,3.29-2.21,4.69-2.47-.33-7.77,1.57-11.36,1.57-11.36,2.19,15.85,11.85,24.86,19.13,29.52,5.92,3.63,13.71,6.96,21.78,6.36,8.23-.62,15.6-5.35,21.89-14.07,12.48-17.27,14.4-43.63,4.89-67.14-8.05-19.91-22.57-33.09-39.84-36.18-11.86-2.12-20.72-.47-26.35,4.91-5.54,5.29-7.13,13.32-7.48,19.15,19.58-3.07,24.02,8.13,24.02,8.13-12.22-3.51-19.74-1.27-24.18,1.75l-1,.89c-.42.37-9.21,8.47-7.63,21.71ZM412.14,327.04c-1.27,1.41-2.54,2.91-3.78,4.5-1.24,1.58-2.47,3.26-3.67,5.02-.6.88-1.19,1.78-1.78,2.71-1.17,1.85-2.31,3.79-3.42,5.82-1.11,2.03-2.17,4.15-3.2,6.36-1.54,3.32-2.97,6.85-4.29,10.6-1.31,3.75-2.5,7.71-3.54,11.89-7.25,29.17-.62,51.38,9.29,57.47,4.17,2.56,8.56,1.89,13.07-2,3.57-3.09,6.38-6.63,8.66-10.46-2.48,2.22-4.81,3.2-6.78,2.62-6.26-1.85-7.14-18.86-2.08-40.28l15.31-4.52-11.93-7.58c1.84-5.73,3.92-11.05,6.09-15.77.54-1.18,1.09-2.32,1.65-3.42,1.11-2.2,2.24-4.25,3.37-6.11.57-.93,1.13-1.82,1.7-2.65.85-1.25,1.69-2.4,2.53-3.42,1.11-1.37,2.21-2.52,3.28-3.44.53-.46,1.06-.86,1.57-1.2.52-.34,1.02-.62,1.51-.83,1.23-.54,2.39-.67,3.45-.36.22.07.44.15.65.26.63.31,1.2.8,1.7,1.44.34.43.64.93.92,1.49.28.56.53,1.19.75,1.88.22.69.42,1.44.58,2.25.5,2.42.74,5.35.72,8.68,1.02-2.41,2.08-4.78,3.16-6.99.36-.74.72-1.46,1.09-2.16.56-1.08,1.07-2.29,1.52-3.57h0c.15-.43.31-.87.45-1.32.28-.91.52-1.86.74-2.82,1.36-5.95,1.52-12.65-.18-17.3-.36-.98-.8-1.87-1.33-2.64-.53-.77-1.13-1.39-1.81-1.86-1.14-.79-2.5-1.17-4.14-1.17-.44,0-.9.03-1.39.08-2.35.27-5.02.97-7.89,2.13-1.72.7-3.52,1.56-5.36,2.59-2.46,1.38-5,3.06-7.57,5.06-.64.5-1.29,1.02-1.93,1.56-2.58,2.16-5.18,4.65-7.72,7.48ZM653.68,589.6c-2.26-4.02-5.85-6.31-8.71-7.58,0,0-.37,39.26-22.11,50.3l-.33-2.21c-4.44,3.31-9.24,5.42-14.38,6.3,2.51,2.75,6.65,4.61,11.5,4.98,10.52.81,24.57-5.29,32.46-24.78,4.65-11.5,5.18-20.59,1.58-27ZM688.45,478.09c-5.46-8.51-11.47-12.6-16.92-11.71,7.5,13.4,50.87,93.81,37.52,137.93-7.46,24.66-29.79,28.32-54.59,24.87-1.63,2.6-3.37,4.92-5.21,6.96,14.39,2.63,47.16,5.48,62.24-18.73,19.95-32.03-3.91-109.5-23.04-139.32ZM188.24,446.55c8.54.45,19.06,5.28,27.75,12.42,2.45-3.53,5.42-6.91,8.69-9.87-8.41-4.58-16.75-12.22-25.95-20.63-13.93-12.75-29.71-27.2-49.29-33.73-18.64-6.21-31.78-.48-35.13,8.39-3.05,8.08,2.59,16.51,14.36,21.47,25.65,10.81,38.63,20.89,43.54,25.28,3.98-2.27,9.19-3.69,16.02-3.32ZM482.06,339.26c-1.17,1.85-2.31,3.79-3.42,5.82-1.11,2.03-2.17,4.15-3.2,6.36-1.54,3.32-2.97,6.85-4.29,10.6-1.31,3.75-2.5,7.71-3.54,11.89-7.25,29.17-.62,51.38,9.29,57.47,4.17,2.56,8.56,1.89,13.07-2,3.57-3.09,6.38-6.63,8.67-10.46-2.48,2.22-4.81,3.2-6.78,2.62-6.26-1.85-7.14-18.86-2.08-40.28l15.31-4.52-11.93-7.58c1.84-5.73,3.92-11.05,6.09-15.77.54-1.18,1.09-2.32,1.65-3.42,1.11-2.2,2.24-4.25,3.37-6.11.57-.93,1.13-1.82,1.7-2.65.85-1.25,1.69-2.4,2.53-3.42,1.11-1.37,2.21-2.52,3.28-3.44.53-.46,1.06-.86,1.57-1.2.52-.34,1.02-.62,1.51-.83,1.23-.54,2.39-.67,3.45-.36.22.07.44.15.65.26,3.16,1.57,4.72,7.42,4.69,15.74.68-1.6,1.38-3.19,2.09-4.73.71-1.54,1.44-3.02,2.17-4.42.76-1.45,1.42-3.11,1.97-4.89,2.02-6.54,2.54-14.72.57-20.12-.36-.98-.8-1.87-1.33-2.64-.53-.77-1.13-1.39-1.81-1.86-1.14-.79-2.5-1.17-4.14-1.17-.44,0-.9.03-1.39.08-2.35.27-5.02.97-7.89,2.13-1.72.7-3.52,1.56-5.36,2.59-2.46,1.38-5,3.06-7.57,5.06-.64.5-1.29,1.02-1.93,1.56-2.58,2.16-5.18,4.65-7.72,7.48-1.27,1.41-2.54,2.91-3.78,4.5-1.24,1.58-2.47,3.26-3.67,5.02-.6.88-1.19,1.78-1.78,2.71Z"/>
  <path class="cls-2" d="M400.94,787.39c6.22,25.55,4.93,39.91,2.13,47.85,4.79-2.86,10.08-8.46,13-19.46,4.41-16.64-4.23-30.73-9.92-37.79-1.61,4.05-3.57,7.2-5.2,9.4ZM359.52,688.55c-10.06-6.87-21.07-9.48-30.36-10.24,18.79,9.34,43.36,29.19,59.76,71.28.02-4.37-.4-8.39-.53-9.52-4.24-23.99-13.92-41.32-28.87-51.51ZM392.81,760.24c2.27,6.52,4.17,12.55,5.75,18.12,3.86-12.22-.66-21.69-2.98-25.44-.79,2.75-1.9,5.42-2.77,7.32ZM605.21,743c.19,1.36.3,2.78.3,4.27.04,7.85-2.55,16.68-7.27,24.86-2.9,5.03-6.33,9.33-10,12.79,5.11,3.24,7.02,9.63,7.02,9.63-14.21-6.66-24.23-4.74-29.77-2.34,14.59,6.08,18.62,17.84,18.62,17.84-12.41-7.89-23.73-11.65-36.94-12.09-6.05.02-11.61.36-16.7.98-3.52.48-7.2,1.11-11.08,1.9-4.65,1.05-8.83,2.36-12.58,3.85-17.1,7.18-25.53,19.41-26.82,21.42-.06.1-.13.19-.18.29l123.78,1.65s.03,0,.04,0c1.35,0,2.51-.91,2.84-2.21l20.33-80.92c-8.6-2.5-16.86-2.34-21.56-1.92ZM454.99,436.67c-2.9-2.72-7.31-4.79-12.1-5.66-1.58-.29-3.22-.43-4.85-.43-6.7,0-13.16,2.41-13.99,6.99-1.04,5.7,7.24,11.31,15.32,12.78,4.79.87,9.64.5,13.32-1.03,1.82-.76,4.97-2.48,5.52-5.53h0c.56-3.05-1.78-5.77-3.22-7.12Z"/>
  <path d="M767.73,642.47c-5.53,9.24-15.16,14.83-25.88,15.11l-21.29-40.52c5.87-12.36,9.9-34.21,1.73-71.86-2.4-11.05-5.75-22.56-9.62-33.43l.73-2.81,55.06,102.81c5.22,9.74,4.94,21.21-.73,30.69ZM724.32,657.61h-51.23c1.12-2.35,2.12-4.76,3-7.23h38.39c5.06,0,6.99-4.01,4.54-8.44l-7.71-12.46c.83-.95,3.68-3.45,4.46-4.49l13.12,25.07c1.8,3.44-.69,7.56-4.57,7.56ZM299.21,501.2l70.37,2.78c-.78,1.93-1.41,4.06-1.8,6.42l-57.81-2.26-1.59,6.3-.62-.02-8.56-13.21ZM413.89,631.31c1.71,3.71,3.4,7.17,5.06,10.42l-14.13-13.59c-20.26-19.24-30.06-47.27-26.23-74.98.24-1.77,1.19-3.29,2.67-4.27,1.47-.98,3.22-1.28,4.93-.83l.47.12c.79.21,1.5.57,2.12,1.05-.95,1.25-1.62,2.75-1.86,4.44-3.94,28.51,5.94,57.47,26.97,77.64ZM610.43,694.77l-73.6-70.75c-15.69-14.91-23.31-36.6-20.4-58.04.89-6.56-3.21-12.75-9.53-14.41l-.47-.12c-1.08-.28-2.17-.42-3.27-.42-2.53,0-5.04.75-7.19,2.18-3.08,2.06-5.14,5.35-5.65,9.02-4.13,29.88,6.45,60.11,28.28,80.86l51.59,49.59-17.55-1.48-75.08-72.18c-15.69-14.91-23.31-36.6-20.4-58.04.89-6.56-3.2-12.75-9.53-14.41l-.25-.07c-2.06-.54-4.22-.65-6.3-.18-5.46,1.25-9.31,5.69-10.03,10.9-4.13,29.88,6.45,60.11,28.28,80.86l23.31,22.41c-2.54,2.55-5.09,5.24-7.63,8.05l-56.72-54.53c-15.69-14.91-23.31-36.6-20.4-58.04.89-6.56-3.2-12.75-9.53-14.41l-.22-.06c-2.06-.54-4.23-.66-6.3-.19-5.48,1.24-9.33,5.68-10.05,10.91-4.13,29.88,6.45,60.11,28.28,80.86l31.29,30.08c5.55,8.32,10.59,14.33,15,19.05l-12.26-1.03-75.07-72.16c-15.69-14.91-23.31-36.6-20.4-58.04.89-6.56-3.2-12.75-9.53-14.41l-.24-.06c-2.06-.54-4.22-.66-6.3-.18-5.46,1.25-9.31,5.69-10.03,10.91-4.13,29.88,6.45,60.11,28.28,80.86l51.56,49.57c-7.42-.71-14.66-2.18-21.62-4.33-23.12-7.15-43.24-21.93-57.11-42.47l-14.55-21.55c-14.08-20.85-18.5-46.76-12.13-71.09l4.61-17.61,18.4.73,58.23,2.32c5.17,21.26,37.46,17.3,37.46,17.3-53.41-13.73-22.21-51.46-22.21-51.46,0,0-6.81,2.18-11.07,7.82l-56.36-2.16-17.62-.68,9.52-36.4,16.75.67,121.25,4.87c-7.83,5.75-15.11,11.67-19.88,14.35,0,0,9.93-1.13,44.01-22.57,26.77-16.84,74.42-21,66.28,12.12-1.01,4.09-2.75,7.97-4.94,11.56-6.61,10.84-25.88,38.41-58.24,53.03,0,0,8.74-.35,17.37-3.58l18.58.74c7.94.32,15.82,1.35,23.55,3.03-5.82,4.57-11.15,11.24-13.55,20.95-2.6,10.5-1.5,19.3,3.26,26.16,4.02,5.79,10.09,9.1,15.49,10.58-.98,6.29-.75,13.39,2.88,19.32,4.67,7.62,13.75,11.59,27,11.81,3.87,3.59,16.37,14.13,31.37,15.59,3,6.96,10.49,11.74,19.93,12.46.79.06,1.59.09,2.4.09,6.48,0,13.76-1.95,20.52-6.67,4.11,1.04,14.01,3.19,25.71,3.19.9,0,1.82-.02,2.75-.04-8.49,26.67-32.06,46.03-60,49.02ZM585.43,695.87l-62.09-57.73c-20.26-19.24-30.06-47.27-26.23-74.98.24-1.77,1.19-3.28,2.67-4.27,1.47-.98,3.22-1.28,4.93-.83l.47.12c.79.21,1.49.57,2.11,1.04-.95,1.26-1.61,2.76-1.84,4.45-3.96,28.65,6.03,57.75,27.26,77.92l46.16,44.53,6.56.53v9.22ZM526.16,690.87l-13.21-10.75c3.39-3.06,6.73-5.76,9.98-8.02l3.23,3.1v15.66ZM505.62,687.22c.79-.81,1.58-1.61,2.37-2.39l2.95,2.84-5.32-.45ZM575.68,761.55c-1.02,1.34-2.07,2.52-3.11,3.41-8.93-3.38-45.55-18.62-86.64-54.86,1.14-1.46,2.29-2.89,3.44-4.32,20.88,18.77,49.31,39.26,86.31,55.77ZM592.74,735.58c4.28,2.47,4.94,8.4,4.96,11.72.03,6.49-2.18,13.92-6.22,20.92-3.45,5.98-7.54,10.53-11.6,13.63-7.26-.42-13.11.47-17.49,2.65-3.09-3.02-4.35-9.09-2.98-16.54,1.25.56,2.41,1.07,3.49,1.53-.38,2.05-.66,6.24,3.19,7.27,5.15,1.37,22.14-13.42,20.08-34.86,0,0-.67,1.39-2.32,3.05-1.56.23-2.52,1.49-4.1,2.49-2.24-1.09-4.81-2.38-7.66-3.87,7.52-7.94,15.87-10.75,20.66-7.98ZM605.51,747.27c0-1.49-.11-2.91-.3-4.27,4.7-.42,12.96-.58,21.56,1.92l-20.33,80.92c-.33,1.31-1.49,2.21-2.84,2.21-.01,0-.03,0-.04,0l-123.78-1.65c.06-.1.12-.19.18-.29,1.29-2.01,9.72-14.23,26.82-21.42,3.76-1.5,7.94-2.8,12.58-3.85,3.88-.79,7.56-1.42,11.08-1.9,5.1-.61,10.66-.95,16.7-.98,13.21.44,24.53,4.2,36.94,12.09,0,0-4.02-11.76-18.62-17.84,5.54-2.4,15.56-4.32,29.77,2.34,0,0-1.91-6.39-7.02-9.63,3.67-3.46,7.1-7.76,10-12.79,4.72-8.18,7.3-17,7.27-24.86ZM637.48,749.62c1.34.83,2,2.53,1.59,4.13l-21.7,85.39c-.33,1.3-1.5,2.21-2.84,2.21h-139.83c-.2,0-.36-.08-.48-.23-.12-.15-.16-.32-.12-.51.4-1.86,1-4.05,1.9-6.43l127.46,1.7c.05,0,.1,0,.15,0,4.94,0,9.21-3.32,10.41-8.12l20.09-79.98c1.13.56,2.26,1.18,3.37,1.86ZM473.45,636.6l17.1,16.49c-.98.86-1.97,1.74-2.95,2.65l-23.51-22.6c-20.26-19.24-30.06-47.27-26.23-74.98.24-1.77,1.19-3.29,2.67-4.27,1.47-.98,3.22-1.28,4.93-.83l.47.12c.78.21,1.49.57,2.11,1.04-.95,1.26-1.61,2.76-1.84,4.45-3.96,28.65,6.03,57.75,27.26,77.92ZM426.74,760.96c-1.49-1.47-3.02-2.8-4.58-3.94,10.85-18.32,42.57-69.77,71.26-96.01,1.41.67,3.21,1.6,5.03,2.8-21.34,21.47-61.15,81.14-71.7,97.15ZM434.84,801.5c-.32,3.3-1.51,9.15-6,11.22-1.39.64-2.85.8-4.28.67,1.1-6.77.51-13.06-.97-18.67,2.17.87,3.91,1.95,3.91,1.95-6.27-19.34-15.38-26.7-19.36-28.57-.14-3.21-.48-6.03-.96-8.49.26-.02.52-.04.79-.04,1.53,0,3.21.38,4.94,1.1l4.48,2.53c4.73,3.39,9.53,9.09,13.15,16.92,3.39,7.33,4.91,14.93,4.3,21.39ZM416.07,815.78c-2.92,11-8.21,16.6-13,19.46,2.8-7.95,4.09-22.3-2.13-47.85,1.63-2.2,3.59-5.35,5.2-9.4,5.69,7.06,14.33,21.15,9.92,37.79ZM441.44,660.94c2.26.48,5.15.95,8.12,1.03,3.52,4.9,8.5,11.37,15.04,18.83-1.29,1.59-2.57,3.19-3.84,4.81-5.88-6.27-11.46-12.38-19.32-24.66ZM407.16,681.84l-61.6-58.69c-20.25-19.24-30.06-47.27-26.23-74.98.24-1.77,1.19-3.29,2.67-4.27,1.47-.98,3.22-1.28,4.93-.83l.47.12c.79.21,1.5.57,2.12,1.05-.95,1.26-1.62,2.75-1.86,4.44-3.96,28.65,6.03,57.75,27.26,77.92l46.97,45.3,5.26.46v9.47ZM281.85,530.83l-10.47-4.79c.91-1.95,1.65-3.94,2.25-5.92,2.66,1.33,5.89,2.88,9.81,4.64l-1.59,6.08ZM259.97,526.87c-4.37,4.88-9.84,7.8-14.67,9.55,2.59-3.54,4.95-7.75,6.99-12.78,2.89-1.41,9.23-5,15.08-11.67-1.28,5.84-3.74,10.83-7.39,14.9ZM210.99,546.05c-.09,0-.19,0-.28,0-24.63-.15-53.36-21.11-59.6-38.16-5.33-14.55.11-24.03,5.66-29.44,1.96-1.88,10.91-9.47,24.46-6.2,0,0-2.03-5.51-12.91-6.8,1.84-4.64,6.47-11.4,17.89-11.4.53,0,1.07.01,1.62.04,6.75.36,16.44,4.84,24.3,11.49-.58,1.23-1.08,2.45-1.5,3.67-2.96,8.65-1.06,15.86,5.22,19.78,3.12,1.94,6.23,2.94,9.25,3.21-1.11,5.35-4.8,10.28-11,14.75-6.67-21.71-31.54-21.85-31.54-21.85,22.78,15.04,24.2,25.76,22.66,31.21-.53,1.23-1.27,2.67-2.24,4.08,0,0,0,0,0,0,0,0,0,0,0,0-1.56,2.26-3.74,4.42-6.68,5.42-6,2.04-14.34-1.11-24.1-9.1,0,0,8.15,20.44,26.53,16.25,9.56-2.18,13.24-12.6,14.5-16.48,13.97-8.08,18.8-17.18,19.65-25.09,17.11,7.61,21.94-5.35,21.94-5.35-4.11,2.57-9.31,1.83-12.49.97,11.23-7.17,8.8-15.77,8.8-15.77-.34.5-11.93,17.55-31.28,11.34-3.57-1.14-3.88-5.66-2.08-10.92.05-.13,8.32-25.67,30.46-25.67,7.24,0,13.27,4.11,17.56,9.73,5.65,7.41,7.64,18.21,5.61,30.39-2.49,14.96-11.3,23.5-17.4,27.74-3.72-12.66-11.66-13.61-11.66-13.61,5.16,10.32,3.36,19.72.05,26.62-6.97,12.71-17.49,19.16-31.4,19.16ZM128.68,424.59c-11.77-4.96-17.4-13.39-14.36-21.47,3.34-8.87,16.48-14.6,35.13-8.39,19.58,6.52,35.36,20.98,49.29,33.73,9.19,8.41,17.54,16.05,25.95,20.63-3.27,2.97-6.25,6.35-8.69,9.87-8.69-7.14-19.21-11.96-27.75-12.42-6.83-.36-12.04,1.05-16.02,3.32-4.91-4.39-17.89-14.47-43.54-25.28ZM323.76,397.66l15.64.62,38.25,1.53c.44,16.1,5.32,28.45,12.09,35.14l-58.73-2.34-16.23-.65,8.97-34.3ZM379.15,380.31c-.37,2.14-.68,4.25-.91,6.31l-37.24-1.49-1.59,6.3-.5-.02-8.33-13.2,48.57,2.09ZM338.58,341.02l14.86.59,38.28,1.53c-4.16,7.94-8,17.51-10.83,28.91-.12.5-.23.98-.35,1.48l-34.69-1.38-15.26-.61,7.98-30.51ZM537.48,335.75c.3-1.01.57-2.04.81-3.09s.44-2.12.61-3.2l17.81.71c3.21.13,6.41.36,9.6.68,3.19.33,6.36.75,9.52,1.27,2.1.35,4.2.74,6.29,1.17,1.04.22,2.09.44,3.12.68,4.16.95,8.27,2.07,12.33,3.35,2.03.64,4.05,1.32,6.05,2.05,2,.72,3.99,1.49,5.97,2.29,1.97.8,3.93,1.65,5.87,2.53,2.91,1.32,5.78,2.73,8.6,4.23,1.88,1,3.75,2.03,5.59,3.11,7.37,4.3,14.39,9.2,20.98,14.67l8.58,7.12c1.92,1.6,2.73,4.19,2.06,6.6-.03.12-.08.22-.12.34l-8.33-6.92c-26.92-22.35-61-35.43-95.96-36.82l-19.37-.77ZM654.46,629.18c24.8,3.44,47.13-.22,54.59-24.87,13.35-44.12-30.02-124.53-37.52-137.93,5.45-.88,11.46,3.2,16.92,11.71,19.13,29.83,43,107.29,23.04,139.32-15.08,24.21-47.85,21.36-62.24,18.73,1.84-2.04,3.58-4.36,5.21-6.96ZM622.53,630.11l.33,2.21c21.73-11.03,22.11-50.3,22.11-50.3,2.86,1.27,6.44,3.56,8.71,7.58,3.61,6.41,3.08,15.5-1.58,27-7.88,19.49-21.94,25.59-32.46,24.78-4.85-.37-8.99-2.23-11.5-4.98,5.14-.88,9.94-2.99,14.38-6.3ZM554.28,518.08c-.9,1.69-1.63,3.44-2.22,5.18-.15.03-.31.07-.47.11-13.43-4.22-27.41-6.7-41.54-7.26h-.4c2.28-1.78,4.59-3.75,6.88-5.93,12.87,1.07,25.56,3.74,37.75,7.9ZM549.35,469.48c22.16,4.49,43.14,14.42,60.6,28.91l4.81,4c3.45,2.87,8.07,3.78,12.35,2.44,2.7-.84,4.99-2.49,6.63-4.68l48.08,86.93c.05-.24.08-.49.12-.73.05,1.71-.03,3.15-.23,4.27-.42,2.26-1.4,3.77-3.08,4.75-.89.52-1.93.87-3.05,1.09l-18.52-15.37c-4.04-4.32-8.96-6.45-12.13-7.45-.51-9.61-2.62-19.41-6.41-28.78-9.08-22.45-25.73-37.37-45.7-40.94-14.47-2.59-25.63-.24-33.16,6.98-.46.44-.89.9-1.31,1.36-9.63-3.42-19.58-5.93-29.69-7.51,5.75-5.11,17.09-17.16,20.69-35.29ZM622.43,483.36l4.81,4c.06.05.11.11.16.16.57,1.7,1.28,3.35,2.11,4.95-.02.5-.08,1-.22,1.49-.03.12-.08.22-.12.34l-4.57-3.79c-22.67-18.82-50.42-31.05-79.49-35.29-.42-2.23-1.18-4.44-2.35-6.63,0,0,0,0,0-.01,29.13,3.88,56.99,15.97,79.66,34.79ZM495.08,435.32c9.66-8.34,14.46-19.27,17.78-30.12l25.8,1.03c29.95,1.19,59.15,12.4,82.22,31.55l9.73,8.08c2.5,2.08,5.61,3.11,8.77,3.02-8.36,6.33-13.78,16.35-13.78,27.62,0,.21.02.43.02.64-25.21-20.53-56.4-33.18-88.74-36.11-11.75-10.89-28.81-9.2-43.5-4.37.57-.42,1.14-.86,1.7-1.34ZM645.15,437.42c-.03.12-.08.22-.12.34l-9.49-7.88c-26.92-22.35-61-35.43-95.96-36.82l-23.17-.84c.56-2.18,1.13-4.31,1.71-6.36l21.32.85c34.22,1.36,67.57,14.16,93.92,36.03l9.73,8.08c1.93,1.6,2.73,4.19,2.06,6.6ZM673.75,545.2c1.96,7.12,3.69,14.03,5.05,20.29l-42.04-76.02c-2.19-3.96-3.35-8.45-3.35-12.97,0-8.26,3.75-15.65,9.64-20.57-5.5,8.81-6.28,20.23-1.04,30.02l31.73,59.25ZM653.16,484.15c.07,1.66-2.15,2.25-2.9.77l-1.35-2.66c-5.76-10.75-1.7-24.18,9.05-29.94,3.22-1.73,6.74-2.61,10.3-2.63h.22c2.12,0,4.19.55,6.33.95,6.57,1.23,18.57,13.23,15.46,14.2-.94.29-7.93-6.81-16.68-6.38-4.13-.12-7.21,1.47-8.87,2.09-8.88,3.35-11.95,14-11.56,23.6ZM467.62,373.94c1.04-4.18,2.23-8.15,3.54-11.89,1.31-3.75,2.75-7.28,4.29-10.6,1.02-2.21,2.09-4.34,3.2-6.36,1.11-2.03,2.25-3.97,3.42-5.82.59-.92,1.18-1.83,1.78-2.71,1.2-1.76,2.42-3.43,3.67-5.02,1.24-1.58,2.51-3.08,3.78-4.5,2.55-2.83,5.14-5.32,7.72-7.48.65-.54,1.29-1.06,1.93-1.56,2.57-2,5.11-3.69,7.57-5.06,1.84-1.03,3.64-1.89,5.36-2.59,2.87-1.16,5.54-1.86,7.89-2.13.48-.05.94-.08,1.39-.08,1.64,0,3.01.38,4.14,1.17.68.47,1.28,1.09,1.81,1.86.53.77.97,1.66,1.33,2.64,1.97,5.4,1.46,13.58-.57,20.12-.55,1.78-1.22,3.44-1.97,4.89-.73,1.4-1.45,2.88-2.17,4.42-.71,1.54-1.41,3.12-2.09,4.73.04-8.32-1.52-14.17-4.69-15.74-.21-.1-.43-.19-.65-.26-1.06-.31-2.22-.18-3.45.36-.49.21-1,.49-1.51.83-.52.34-1.04.74-1.57,1.2-1.07.92-2.16,2.08-3.28,3.44-.84,1.03-1.68,2.17-2.53,3.42-.56.84-1.13,1.72-1.7,2.65-1.13,1.86-2.26,3.91-3.37,6.11-.55,1.1-1.11,2.24-1.65,3.42-2.18,4.72-4.25,10.04-6.09,15.77l11.93,7.58-15.31,4.52c-5.06,21.42-4.18,38.43,2.08,40.28,1.97.58,4.29-.4,6.78-2.62-2.28,3.83-5.09,7.37-8.67,10.46-4.5,3.89-8.9,4.56-13.07,2-9.91-6.09-16.53-28.3-9.29-57.47ZM444.29,423.32c-5.15-.94-10.08-.75-14.34.36l6.02-21.55,20.97.84c1.14,17.43,7.61,30.02,15.87,35.1.12.07.24.14.36.21l-7.98-.32c-.93-2.46-2.56-4.84-4.86-6.99-4.03-3.78-9.73-6.5-16.05-7.65ZM424.05,437.57c.83-4.58,7.29-6.99,13.99-6.99,1.63,0,3.27.14,4.85.43,4.79.87,9.2,2.93,12.1,5.66,1.44,1.35,3.77,4.07,3.22,7.12h0c-.55,3.05-3.7,4.77-5.52,5.53-3.68,1.52-8.53,1.9-13.32,1.03-8.08-1.47-16.36-7.08-15.32-12.78ZM457.8,383.45c-.31,2.15-.55,4.26-.72,6.32l-4.25-.17-13.21-.53,1.75-6.28,13.26.53,3.17.13ZM459.14,332.62c.35-1.54.6-3.13.8-4.72.07-.53.15-1.06.2-1.59l10.78.43,10.17.41c-.73.94-1.47,1.92-2.21,2.95-.74,1.03-1.48,2.1-2.22,3.22l-17.52-.7ZM468.97,346.94c-3.42,7.14-6.54,15.47-8.93,25.11-.39,1.55-.72,3.09-1.04,4.6l-16.54-.66c.19-.42.38-.85.58-1.26l.14-.29.09-.3c.05-.18,4.95-15.9,10.45-27.74l15.24.54ZM355.28,328.48l-1.4,5.57-7.62-12.43,58.16,2.47c-.39.46-.78.94-1.18,1.42-1.18,1.46-2.39,3.04-3.61,4.73l-44.35-1.77ZM315.14,438.66l101.34,4.2-1.75,6.28-88.97-3.55-1.59,6.3-.96-.04.14-.13-8.21-13.06ZM412.71,421.57c1.97.58,4.29-.4,6.78-2.62-2.28,3.83-5.09,7.37-8.66,10.46-4.5,3.89-8.9,4.56-13.07,2-9.91-6.09-16.53-28.3-9.29-57.47,1.04-4.18,2.23-8.15,3.54-11.89,1.31-3.75,2.75-7.28,4.29-10.6,1.02-2.21,2.09-4.34,3.2-6.36,1.11-2.03,2.25-3.97,3.42-5.82.59-.92,1.18-1.83,1.78-2.71,1.2-1.76,2.43-3.43,3.67-5.02,1.24-1.58,2.51-3.08,3.78-4.5,2.55-2.83,5.14-5.32,7.72-7.48.65-.54,1.29-1.06,1.93-1.56,2.57-2,5.11-3.69,7.57-5.06,1.84-1.03,3.64-1.89,5.36-2.59,2.87-1.16,5.54-1.86,7.89-2.13.48-.05.94-.08,1.39-.08,1.64,0,3.01.38,4.14,1.17.68.47,1.28,1.09,1.81,1.86.53.77.97,1.66,1.33,2.64,1.7,4.65,1.54,11.35.18,17.3-.22.96-.46,1.91-.74,2.82-.14.45-.29.89-.45,1.32h0c-.45,1.28-.96,2.49-1.52,3.57-.36.7-.73,1.42-1.09,2.16-1.08,2.21-2.15,4.58-3.16,6.99.01-3.33-.23-6.26-.72-8.68-.17-.81-.36-1.56-.58-2.25-.22-.69-.47-1.32-.75-1.88-.28-.56-.59-1.06-.92-1.49-.5-.64-1.07-1.13-1.7-1.44-.21-.1-.43-.19-.65-.26-1.06-.31-2.22-.18-3.45.36-.49.21-1,.49-1.51.83-.52.34-1.04.74-1.57,1.2-1.07.92-2.16,2.08-3.28,3.44-.84,1.03-1.68,2.17-2.53,3.42-.56.84-1.13,1.72-1.7,2.65-1.13,1.86-2.26,3.91-3.37,6.11-.55,1.1-1.11,2.24-1.65,3.42-2.18,4.72-4.25,10.04-6.09,15.77l11.93,7.58-15.31,4.52c-5.06,21.42-4.18,38.43,2.08,40.28ZM542.36,575.3c-.68,1.5-1.73,4.01-2.69,7.1-3.84-1.09-8.08-3.43-10.86-7.44-3.42-4.93-4.13-11.6-2.09-19.82,3.66-14.8,16.06-20.89,23.4-23.25-.54,4.3-.45,8.01-.3,10.17-3.7,4.03-12.62,15.98-7.45,33.25ZM562.02,604.48c-1.4.26-3.31.91-4.69,2.47,0,0,3.09,1.35,5.13,2.28.17,1.2.39,2.47.66,3.8-7.75-.81-13.02-3.45-15.69-7.8-4.47-7.27-1.36-18.12.87-23.9,2.46-4.76,8.81-11.56,25-11.44,0,0-7.06-9.3-24.48-1.75-1.59-13.25,7.21-21.34,7.63-21.71l1-.89c4.44-3.02,11.95-5.26,24.18-1.75,0,0-4.44-11.2-24.02-8.13.36-5.83,1.95-13.86,7.48-19.15,5.63-5.38,14.5-7.03,26.35-4.91,17.27,3.09,31.79,16.28,39.84,36.18,9.5,23.51,7.58,49.86-4.89,67.14-6.29,8.71-13.66,13.45-21.89,14.07-8.07.61-15.86-2.73-21.78-6.36-7.28-4.66-16.94-13.67-19.13-29.52,0,0-1.9,3.58-1.57,11.36ZM531.4,278.28l1.72-6.28,40.87,1.63c3.21.13,6.41.36,9.6.68,3.19.33,6.36.75,9.52,1.27,2.1.35,4.2.74,6.29,1.17,3.13.65,6.24,1.4,9.33,2.23,1.03.28,2.05.57,3.08.87,2.04.6,4.08,1.24,6.09,1.92,2.02.68,4.02,1.41,6.01,2.17,3.98,1.53,7.89,3.21,11.74,5.05,1.92.92,3.82,1.88,5.71,2.88.94.5,1.88,1.01,2.81,1.53,1.86,1.04,3.7,2.11,5.52,3.22,6.37,3.89,12.47,8.24,18.23,13.03l7.42,6.16c.24.2.46.42.67.64.61.69,1.07,1.49,1.34,2.35.18.57.28,1.17.29,1.78.01.61-.07,1.22-.23,1.82-.03.12-.08.22-.12.34l-3.59-2.98-3.59-2.98c-5.05-4.19-10.35-8.06-15.86-11.58-.92-.59-1.84-1.16-2.77-1.73-2.79-1.7-5.63-3.32-8.52-4.85-1.92-1.02-3.87-2-5.83-2.94-4.91-2.35-9.93-4.46-15.05-6.3-2.05-.74-4.11-1.44-6.19-2.09-2.08-.66-4.16-1.27-6.27-1.84-2.1-.57-4.21-1.1-6.34-1.59-9.55-2.19-19.32-3.5-29.15-3.89l-42.72-1.7ZM515,283.99l2.69-8.84,6.25,1.75-2.28,7.35-6.66-.27ZM469.49,282.17l2.83-9.14,37.48,1.37-2.8,9.26-37.5-1.5ZM361.1,264.99l103.88,4.3-.88,3.14-.88,3.14-46.82-1.87-46.82-1.87-1.29,5.12-7.18-11.96ZM353.4,284.39l14.31.57,205.5,8.19c10.36.41,20.57,1.99,30.45,4.67,3.59.97,7.14,2.09,10.64,3.36.87.32,1.75.64,2.61.97,1.74.67,3.46,1.37,5.17,2.1,3.42,1.47,6.77,3.08,10.06,4.83,1.65.87,3.27,1.78,4.88,2.72,4.03,2.35,7.94,4.92,11.73,7.68,1.51,1.11,3.01,2.25,4.48,3.42.74.59,1.47,1.18,2.19,1.78l7.12,5.91c.65.54,1.34,1.02,2.07,1.43.48.28.98.52,1.49.74.25.11.51.21.77.3.52.19,1.05.34,1.58.46,1.07.24,2.17.36,3.27.33.55-.01,1.1-.06,1.65-.15.27-.04.55-.09.82-.16.27-.06.54-.13.81-.21.6-.18,1.18-.4,1.74-.65.56-.26,1.1-.55,1.61-.87.51-.33,1-.69,1.46-1.08.23-.2.45-.4.67-.61.43-.42.83-.87,1.2-1.35.55-.72,1.04-1.5,1.44-2.32.27-.55.5-1.13.69-1.72.19-.59.34-1.21.45-1.83.1-.59.16-1.18.18-1.77,0-.29,0-.59,0-.88-.02-.58-.09-1.17-.19-1.74-.05-.29-.11-.57-.18-.85-.14-.56-.32-1.12-.53-1.66-.85-2.17-2.26-4.13-4.11-5.66l-7.16-5.94c-11.17-9.27-23.55-16.98-36.7-22.97-2.02-.92-4.07-1.8-6.12-2.64-3.09-1.26-6.21-2.42-9.37-3.49-6.32-2.14-12.77-3.89-19.3-5.25-5.45-1.13-10.95-1.98-16.5-2.55-3.33-.34-6.67-.58-10.01-.71l-199.88-7.97-14.15-.56,9.57-36.57c1.27-4.84,2.93-9.52,4.95-13.99.67-1.49,1.39-2.96,2.14-4.4,1.51-2.89,3.17-5.68,4.98-8.37.9-1.34,1.85-2.66,2.82-3.95,8.78-11.6,20.42-20.92,33.98-26.99l-7.14,17.89-8.98,22.5c-.19.47-.34.95-.46,1.43-.12.48-.2.97-.25,1.46-.05.49-.06.98-.04,1.47.02.49.08.98.17,1.46.09.48.21.96.37,1.42.47,1.4,1.24,2.72,2.29,3.86.62.67,1.32,1.23,2.07,1.7,2.27,1.39,5.04,1.87,7.75,1.51,6.54-.89,13.07-5.74,15.47-11.77l20.13-50.45c.75-.04,1.51-.07,2.26-.08,1.51-.04,3.01-.03,4.51,0,.75.02,1.49.05,2.23.09l21.4,1.14-18.66,46.76c-.56,1.41-.81,2.89-.74,4.36.06,1.47.43,2.92,1.1,4.25.44.89,1.02,1.73,1.73,2.49.93,1,2.04,1.77,3.25,2.32.4.18.82.34,1.24.47.85.26,1.73.43,2.63.5.9.07,1.81.04,2.71-.08.41-.06.82-.13,1.22-.21,1.22-.26,2.44-.65,3.61-1.15.39-.17.78-.35,1.16-.54.77-.39,1.51-.82,2.23-1.3,3.23-2.15,5.89-5.17,7.24-8.56l19.08-47.82,30.22,1.61-16.46,41.26c-.16.41-.31.83-.43,1.25-.72,2.52-.66,5.14.18,7.58.14.41.3.81.49,1.21.18.4.39.78.61,1.15.22.37.46.73.71,1.07.51.68,1.09,1.31,1.72,1.88.64.56,1.33,1.06,2.08,1.49.75.43,1.55.79,2.39,1.07,1.7.57,3.46.77,5.18.65,3.01-.21,5.91-1.41,8.2-3.36.65-.56,1.26-1.18,1.8-1.85.81-1.01,1.49-2.15,1.99-3.4l19.35-48.5,30.22,1.61-16.2,40.59c-.56,1.41-.81,2.89-.74,4.36.06,1.47.43,2.92,1.1,4.25.44.89,1.02,1.73,1.73,2.49.62.67,1.32,1.23,2.08,1.7.38.23.77.44,1.17.62.81.36,1.66.63,2.54.79,1.32.25,2.69.28,4.04.09,6.54-.89,13.06-5.74,15.47-11.77l16.32-40.9c3.1.54,6.17,1.2,9.18,2,9.05,2.39,17.7,5.94,25.77,10.55-1.02.76-2,1.6-2.95,2.52-.64.61-1.26,1.25-1.87,1.93-.3.34-.6.68-.9,1.03-.89,1.05-1.75,2.17-2.59,3.34-.83,1.17-1.64,2.4-2.41,3.67-1.03,1.69-2.02,3.47-2.95,5.3-.93,1.83-1.82,3.72-2.65,5.65-.42.96-.82,1.93-1.22,2.91-.59,1.47-1.16,2.95-1.7,4.43-.18.49-.36.99-.53,1.49-1.4,3.96-2.61,7.93-3.66,11.73-3.94,14.25-5.55,26.08-5.55,26.08,1.85-4.92,3.67-9.51,5.47-13.79,5.4-12.82,10.57-22.79,15.49-30.42.82-1.27,1.63-2.48,2.44-3.62.4-.57.8-1.13,1.2-1.67.8-1.08,1.59-2.1,2.38-3.06,1.57-1.92,3.11-3.6,4.62-5.07.38-.37.75-.72,1.13-1.06,1.12-1.02,2.23-1.91,3.31-2.7,1.09-.78,2.16-1.45,3.21-2.02.9.66,1.78,1.33,2.66,2.02,2.63,2.06,5.18,4.24,7.63,6.56l57.06,54h0c2.94,2.78,5.6,5.78,7.99,8.95.95,1.27,1.86,2.57,2.72,3.89.43.66.85,1.33,1.26,2,.81,1.35,1.58,2.72,2.3,4.11.36.7.71,1.4,1.04,2.11,1.68,3.54,3.06,7.2,4.14,10.96.21.75.42,1.51.61,2.26.38,1.51.71,3.04.99,4.58.7,3.85,1.08,7.76,1.13,11.69.02,1.57,0,3.15-.09,4.73-.25,4.74-.98,9.49-2.21,14.19l-12.25,46.83-23.39-19.42c-3.45-2.86-8.07-3.78-12.35-2.44-4.28,1.34-7.56,4.71-8.77,9.03-1.4,5.01.27,10.38,4.27,13.71l32.87,27.28-7.87,30.07-24.27-20.15c-4.45-3.69-10.83-4.14-15.94-.72-1.03.69-1.96,1.55-2.73,2.53-4.71,5.98-3.5,14.06,1.83,18.48l33.75,28.02-7.87,30.07-12.05-10-6.92-12.91c-.22-.41-.45-.82-.69-1.22-5.15-8.63-14.54-13.82-24.58-14.22l-9.3-.36c-3.69,0-7.24.59-10.58,1.66,1.33-1.8,2.22-3.95,2.5-6.32.52-4.53-1.47-8.99-4.98-11.91l-9.43-7.83c-27.65-22.96-62.1-36.17-98.01-37.61l-19.4-.77c.58-1.54,1.2-3,1.88-4.36l.14-.29.09-.3c.05-.16,4.34-13.95,9.4-25.42l24.11.96c29.95,1.19,59.15,12.4,82.22,31.55l8.58,7.12c4.51,3.75,11.02,4.15,16.16.57.96-.67,1.81-1.48,2.53-2.4,4.69-5.98,3.48-14.04-1.84-18.46l-8.58-7.12c-.86-.71-1.73-1.42-2.6-2.11-1.75-1.39-3.52-2.74-5.32-4.06-.9-.66-1.81-1.3-2.72-1.94-1.83-1.28-3.68-2.51-5.55-3.71-.94-.6-1.88-1.19-2.83-1.77-2.85-1.74-5.75-3.39-8.7-4.96-.98-.52-1.97-1.03-2.96-1.53-1.99-1-3.99-1.96-6.01-2.88-2.02-.92-4.07-1.8-6.12-2.64-2.06-.84-4.13-1.63-6.23-2.39-2.09-.75-4.2-1.47-6.32-2.14-13.78-4.35-28.14-6.9-42.64-7.48l-17.52-.7c0-.75,0-1.5-.04-2.24-.1-2.23-.37-4.39-.85-6.42-.32-1.35-.72-2.65-1.23-3.86-.5-1.21-1.1-2.34-1.81-3.36-1.43-2.09-3.23-3.69-5.33-4.77-.3-.15-.6-.3-.91-.43-.62-.27-1.27-.49-1.93-.67-.33-.09-.67-.17-1.01-.24-.68-.14-1.39-.23-2.11-.28-1.08-.07-2.21-.04-3.37.09-4.65.53-9.59,2.17-14.57,4.77-1.42.74-2.85,1.57-4.27,2.46-.71.45-1.42.92-2.13,1.4-2.12,1.46-4.24,3.08-6.31,4.85-2.08,1.77-4.12,3.7-6.1,5.77-.26.27-.52.54-.78.82l-26.49-1.06c-.04-.61-.09-1.21-.16-1.8-.48-4.15-1.65-7.97-3.68-10.92-1.43-2.09-3.23-3.69-5.32-4.77-.3-.15-.6-.3-.91-.43-.62-.27-1.26-.49-1.93-.67-.33-.09-.67-.17-1.01-.24-.69-.14-1.39-.23-2.11-.28-1.08-.07-2.21-.04-3.37.09-3.71.42-7.61,1.56-11.56,3.32-1.32.59-2.64,1.25-3.97,1.97-1.33.73-2.65,1.52-3.97,2.37-1.32.86-2.64,1.78-3.95,2.76-.66.49-1.31,1-1.96,1.52-1.3,1.04-2.59,2.15-3.86,3.31-.64.58-1.27,1.18-1.9,1.78l-50.57-2.02h0l-14.58-.58,7.98-30.51ZM427.96,159.17l5.13,4.37-19.32,48.33c-.48.08-.95.12-1.42.12-.94,0-1.8-.33-2.47-.94-.22-.2-.42-.43-.6-.69-.18-.26-.32-.53-.42-.81-.31-.84-.3-1.77.04-2.64l11.95-29.96,7.1-17.79ZM492.91,163.72l-.31-.02-.31-.02-9.67,24.1-9.67,24.1c-.11.02-.22.03-.34.04-.34.04-.67.07-1,.07-.94,0-1.8-.33-2.47-.94-.22-.2-.42-.43-.6-.69-.18-.26-.32-.53-.42-.81-.31-.84-.3-1.77.05-2.64l20.38-51.07,4.37,7.87ZM551.79,167.54l-1.73-.11-17.92,44.79c-.06-.02-.12-.03-.18-.05-.39-.13-.76-.3-1.11-.49-.69-.4-1.29-.92-1.76-1.54-.23-.31-.44-.65-.61-1.01-.08-.18-.16-.36-.22-.55-.13-.37-.22-.75-.26-1.14-.07-.58-.05-1.17.06-1.76.07-.39.19-.78.34-1.17l18.36-46.03,5.03,9.07ZM609.54,171.29l-1.73-.11-16.24,40.69c-.24.04-.49.07-.73.09-.24.02-.48.03-.72.03-.94,0-1.8-.33-2.47-.94-.22-.2-.42-.43-.6-.69-.18-.26-.32-.53-.42-.81-.31-.84-.3-1.77.05-2.64l17.98-45.05,4.88,9.43ZM732.85,376.08l1.52-5.9-15.94-13.24c-4.08-1.31-8.09-1.38-11.39,1.29-.93-1.49-1.23-3.32-.74-5.07.59-2.11,2.13-3.69,4.22-4.35,2.09-.66,4.26-.22,5.95,1.18l25.38,20.57-9,5.52ZM718.01,433.5l1.28-4.97-19.1-15.86c-3.28-.07-6.75,1.17-9.19,3.19-1-1.51-1.32-3.41-.82-5.22.59-2.11,2.13-3.7,4.22-4.35,2.09-.65,4.26-.22,5.95,1.18l25.58,21.71-7.92,4.31ZM398.55,778.36c-1.58-5.57-3.48-11.6-5.75-18.12.87-1.9,1.98-4.57,2.77-7.32,2.32,3.76,6.84,13.23,2.98,25.44ZM392.66,837.68l-.13.08s-.84.5-2.14,1.1c4.77-8.93,5.78-23.38,2.19-40.09-5.04-23.49-16.85-49.99-31.59-70.88-12.03-17.06-31.49-38.41-55.87-43.29-4.51-.9-9.07-.7-13.25.49.72-.6,1.49-1.2,2.33-1.8,3.93-2.79,8.57-4.14,13.27-3.97l.06.25s.35-.08.92-.2c1.6.13,3.2.43,4.78.92,17.65,5.45,50.18,22.51,69.68,75.46,25.3,68.72,10.6,81.27,9.75,81.92ZM386.87,820.86c-8.77.51-17.72,1.2-26.03,1.95-.54-1.37-1.07-2.82-1.58-4.36-2.03-6.2-4.83-12.29-8.16-18.25,10.67-.93,22.3-1.74,33.3-2.15.18.79.36,1.58.53,2.36,1.72,8,2.23,14.82,1.93,20.45ZM377.94,840.32c-3.78,1.03-9.2-2.19-14.02-10.93,7.07-.63,14.59-1.21,22.1-1.66-1.56,7.48-4.83,11.71-8.08,12.58ZM331.18,771.62c13.56-1.27,29.33-2.44,43.61-2.82,3.15,7.46,5.81,15.02,7.88,22.47-11.6.47-24.09,1.37-35.45,2.39-4.76-7.57-10.26-14.93-16.05-22.05ZM311.9,749.25c-1.72-1.94-3.41-3.84-5.05-5.7,15.02-1.58,34.95-3.29,52.75-3.81,4.51,7.09,8.61,14.61,12.21,22.32-14.95.51-31.81,1.81-45.91,3.19-4.66-5.5-9.4-10.84-13.99-16ZM301.36,737.25c-7.18-8.38-12.93-15.82-15.71-22.02,13.13-1.5,32.37-3.35,50.66-4.23,6.69,6.29,13.03,13.79,18.82,22.06-18.26.72-38.91,2.54-53.77,4.19ZM288.91,695.01c2.96-2.07,6.65-3.16,10.52-3.16,1.37,0,2.76.14,4.15.41,8.58,1.72,17.08,6.07,25.2,12.32-16.4.99-33.25,2.6-45.22,3.99-1.01-5.88.75-10.35,5.34-13.56ZM359.52,688.55c14.95,10.2,24.63,27.52,28.87,51.51.13,1.13.55,5.15.53,9.52-16.4-42.08-40.96-61.94-59.76-71.28,9.29.76,20.29,3.38,30.36,10.24ZM775.35,608.1l-62.69-115.98,5.71-2.16,10.96-41.9-9.55-7.93,12.96-5.74.14.12,11.69-44.67-8.87-7.37,12.42-6.19,14.97-57.22c7.19-27.47-1.16-56.66-21.78-76.17l-57.06-54c-17.13-16.21-38.52-26.59-61.87-30.03l-2.67-.39-3.97,9.94-5.54-10.7-48.42-2.58-3.8,9.52-5.47-9.86-48.76-2.74-3.98,9.98-5.85-10.55-34.48-1.79c-3.96-.21-8.01-.17-12.02.13l-2.28.17-.77,2.33c-.02.08-.05.15-.08.22l-3.14,7.86-2.08-.14-8.34-7.99-7.06,2.44c-29.88,10.32-52.49,34.73-60.48,65.29l-11.4,43.58,7.97,14.25-11.57-.46-11.22,42.87,7.95,14.22-11.55-.46-11.53,44.06,7.4,13-10.69-.43-12.39,47.34,7.63,13.52-11.06-.44-12.78,48.85,7.91,14.13-11.49-.46-.92,3.52c-4.16-1.89-7.47-3.51-10.06-4.84.96-6.39.71-11.78.43-14.05,1.3-3.24,2.36-6.83,3.02-10.8,2.38-14.26-.13-27.12-7.06-36.21-5.5-7.22-13.59-11.71-22.78-12.66-5.6-.58-11.83,1.63-17.67,5.43-8.5-3.67-17.46-11.85-27.5-21.04-14.48-13.26-30.9-28.29-52-35.32-23.17-7.72-39.96.64-44.58,12.89-3.77,10.01.49,23.5,18.49,31.09,23.18,9.77,35.51,18.9,40.52,23.17-3.82,4.33-5.5,9.28-6.18,12.02-6.24,3.51-25.85,17.01-16.07,43.75,7.09,19.39,38.4,42.94,66.64,43.12.11,0,.21,0,.32,0,7.4,0,16.13-1.61,24.14-7.14,7.22.15,13.18-.94,18.11-2.89,5.15,2.65,12.99,6.36,24.26,10.95-1.28,20.6,4.23,41.24,15.96,58.61l14.55,21.55c19.44,28.79,50.44,46.98,83.1,49.9l21.41,1.52v-13.18l3.25.1,15.37,14.78,22.61,1.91c.76.75,1.49,1.48,2.18,2.18-18.12,24.01-33.66,49.49-40.62,61.31-3.57-1.38-7.14-1.82-10.49-1.16-2.4-5.25-5.6-7.68-7.98-8.79-4.13-28.51-15.2-49.07-32.91-61.16-22.46-15.32-48.31-12.03-56.03-10.58-6.45-.27-12.82,1.57-18.22,5.4-15.79,11.2-14.24,24.65-14.17,25.21l.24-.03c-.61,3.89-.22,8.63,1.94,14.34,4,10.56,15.29,23.27,28.37,37.99,17.82,20.07,38.03,42.81,45.78,66.44,6.68,20.35,16.52,27.46,24.6,27.46.26,0,.51-.01.76-.03,1.49.38,2.99.55,4.48.55,4.67,0,9.09-1.59,11.9-2.87,4.56-.19,21.65-2.44,29.07-24.97.95.15,1.88.23,2.8.23,2.33,0,4.57-.48,6.66-1.44,5.95-2.75,9.68-8.99,10.5-17.57.65-6.8-.61-14.52-3.55-22.06,5.39-9.25,22.3-37.58,42.08-63.86,15.6,13.75,30.18,24.23,42.17,31.88,11.15,7.12,20.98,12.46,28.86,16.34-2.34,10.24-.9,19.49,4.2,24.97-.19.27-.36.54-.51.8-30.04-1.26-53.34,4.46-69.28,17-13.95,10.98-18.6,24.54-20.13,31.65-.54,2.5.08,5.08,1.68,7.07,1.61,1.99,4,3.13,6.56,3.13h139.83c4.92,0,9.2-3.33,10.41-8.09l21.7-85.39c1.26-4.94-.77-10.04-5.05-12.69-14.8-9.17-31.81-8.42-38.75-7.6-1.49-2.81-3.57-5.04-6.2-6.56-9.02-5.21-21.68-.43-31.65,10.94-17.25-9.55-41.32-24.79-64.93-46.14l32.93,2.49v-14.33l16.67,16.02,35.76,3.02,6.84.29v-13.91l.47.04,15.21,14.62,1.54-.13c24.76-2.11,46.57-15.93,59.32-36.31h72.22c13.82,0,26.31-7.08,33.41-18.94,7.1-11.86,7.44-26.21.92-38.39ZM606.4,598.39s-2.47-24.7-20.25-22.87c0,0,9.38,3.61,20.25,22.87ZM614.63,582.4s-2.47-24.7-20.25-22.87c0,0,9.39,3.61,20.25,22.87ZM466.98,521.07c-9.08-10.39-14.67-26.72-17.14-35.34,5.43-2.71,10.47-5.62,15.79-8.69,4.93-2.85,10-5.78,15.91-8.88,2.46,8.39,7.39,22.36,15.3,33.15-5.83,4.8-12.7,9.72-20.59,14.71-3.09,1.96-6.19,3.62-9.27,5.05ZM426.98,528.55c-7.12-9.27-11.85-21.94-14.41-30.24,1.93-.51,3.98-1.02,6.15-1.53,9.97-2.33,17.86-5.06,24.83-8.11,2.61,8.9,8,24.11,16.8,35.12-12.17,4.38-23.81,5.26-33.37,4.75ZM405.75,524.84c-10.49-3.3-16.05-7.55-16.69-9.09-1.39-3.31-.93-4.97-.39-6.04,1.68-3.29,7.38-6.42,17.29-9.51,2.27,7.4,6.19,18.11,12.07,27.43-5.52-.84-9.79-2.01-12.28-2.79ZM509.42,458.94c2.92-.03,5.1.39,6.59.85,1.88.58,3.34,2.16,3.73,4.02h0c1.96,9.35-4.24,20.69-17.72,33-7.43-10.34-12.1-24.21-14.27-31.82,9.6-4.64,16.72-6,21.67-6.06ZM527.39,462.21h0c-.97-4.66-4.45-8.45-9.06-9.88-6.38-1.98-17.63-2.52-35.05,6.16-8.49,4.23-15.44,8.25-21.57,11.79-13.68,7.91-24.48,14.15-44.77,18.9-21.42,5.01-31.63,9.93-35.23,16.97-1.9,3.73-1.86,7.85.14,12.62,2.4,5.73,12.71,10.74,21.56,13.53,4.82,1.52,15.73,4.34,29.57,4.19,13.92-.15,30.81-3.32,47.45-13.85,34.92-22.1,50.73-42.43,46.96-60.41ZM622.86,566.4s-2.47-24.7-20.25-22.87c0,0,9.39,3.61,20.25,22.87Z"/>
</svg>