<?xml version="1.0" encoding="UTF-8"?>
<svg id="Graphic_5" data-name="Graphic 5" xmlns="http://www.w3.org/2000/svg" viewBox="0 0 960 960">
  <defs>
    <style>
      .cls-1 {
        fill: #dc88e5;
      }

      .cls-2 {
        fill: #ff6626;
      }

      .cls-3 {
        fill: #2b2a2a;
      }

      .cls-4 {
        fill: #fdf5ee;
      }
    </style>
  </defs>
  <path class="cls-4" d="M267.49,480l458.6,4.48s33.29-61.38,17.38-117.72c-15.9-56.34-87.64-167.74-243.57-167.74s-220.95,90.25-241.98,145.62,9.57,135.36,9.57,135.36Z"/>
  <path class="cls-4" d="M386.16,431.61c-32.71.37-66.39-18.77-78.54-57.71-5.21-16.69-5.07-33.32.63-49.81,6.74-19.48,17.94-35.74,35.4-47.18,12.79-8.38,26.92-12.9,42.17-14.06,17.95-1.36,34.57,2.74,49.64,12.48,20.6,13.32,32.55,32.34,36.41,56.55,6.78,42.5-21.27,83.67-60.29,95.7-8.52,2.63-17.21,4.28-25.42,4.03Z"/>
  <path class="cls-4" d="M522.72,347.15c.27-20.58,7.57-38.64,20.09-54.67,13.53-17.33,31.56-27.28,53.08-31.03,24.27-4.23,46.27,1.15,65.53,16.51,16.68,13.3,26.18,30.84,29.35,51.94,6.11,40.76-18.99,76.98-49.82,91.07-12.97,5.93-26.59,9-40.85,8.17-33.72-1.96-61.55-22.48-72.8-55.17-2.99-8.68-4.73-17.58-4.56-26.82Z"/>
  <g>
    <path class="cls-1" d="M497.7,465.51c-19.65-.23-37.57-13.08-43.89-31.67-.23-.68-.51-1.36-.63-2.06-.42-2.39.93-4.31,3.33-4.65,1.06-.15,2.16-.08,3.23-.07,14.64.13,29.28.24,43.91.41,11.15.13,22.31.32,33.46.49,4.81.07,6.35,2.17,4.56,6.7-6.59,16.74-18.7,26.88-36.5,30.02-2.47.44-4.99.57-7.49.84Z"/>
    <path class="cls-1" d="M355.06,753.39c22.52,5.18,44.28,10.19,66.24,15.24.65,5.42,1.28,10.61,1.98,16.42-22.6-4.31-44.84-8.56-67.44-12.87-.25-6.18-.5-12.22-.77-18.79Z"/>
    <path class="cls-1" d="M649.3,753.41c-.22,6.49-.41,12.44-.62,18.74-22.38,4.28-44.66,8.54-66.98,12.81-.18-.6-.4-.95-.36-1.26.56-4.87,1.16-9.73,1.8-15.06,21.86-5.03,43.72-10.07,66.17-15.23Z"/>
    <path class="cls-1" d="M584.32,758.98c.46-4.23.95-7.89,1.24-11.57.15-1.95,1.59-2.17,2.9-2.67,7.72-2.96,15.44-5.9,23.16-8.86,11.64-4.46,23.27-8.93,34.9-13.38,1.1-.42,2.24-.71,3.8-1.21-.27,7.65-.53,14.93-.81,22.67-21.56,4.97-43.1,9.93-65.2,15.02Z"/>
    <path class="cls-1" d="M420.12,758.97c-22.04-5.07-43.46-10-65.3-15.02-.19-7.55-.37-14.91-.57-22.77,4.31,1.62,8.11,3.02,11.89,4.47,16.21,6.19,32.4,12.47,48.66,18.54,2.98,1.11,4.49,2.57,4.42,5.89-.06,2.71.53,5.44.91,8.9Z"/>
    <path class="cls-1" d="M232.34,596.38c-8.74-1.63-17.29-3.22-26.22-4.88,2.68-11.8,6.49-22.9,11.54-34.12,7.43,6.02,14.54,11.77,21.69,17.56-2.34,7.16-4.6,14.07-7.01,21.44Z"/>
    <path class="cls-1" d="M776.72,560.67c5.08,11.03,8.35,22.2,11.21,34-8.72,2-17.43,3.06-26.28,4.71-2.25-7.16-4.45-14.18-6.76-21.55,7.08-5.56,14.28-11.22,21.84-17.15Z"/>
    <path class="cls-1" d="M650.67,711.13c-21.27,8.14-42.23,16.16-63.69,24.38.34-2.9.61-5.24.91-7.8,22.93-9.23,43.68-22.09,62.77-38.17v21.59Z"/>
    <path class="cls-1" d="M417.39,735.48c-21.41-8.2-42.3-16.19-63.49-24.3-.2-7.11-.41-14.21-.62-21.84.99.71,1.57,1.06,2.08,1.49,17.67,14.82,37.1,26.77,58.37,35.69,2.17.91,3.41,1.96,3.28,4.41-.06,1.29.21,2.59.39,4.55Z"/>
    <path class="cls-1" d="M243.17,566.22c-7.17-5.81-14.13-11.45-21.29-17.25,4.79-9.53,10.57-18.24,17.22-26.93.58.96,1.07,1.57,1.36,2.26,3.42,8.29,6.81,16.61,10.23,24.9.47,1.14.75,2.12.04,3.37-2.5,4.35-4.87,8.77-7.56,13.65Z"/>
    <path class="cls-1" d="M755.95,525.12c6.44,8.38,11.93,17.28,16.81,26.95-7.18,5.65-14.28,11.24-21.59,16.99-2.65-5.02-5.18-9.73-7.61-14.49-.26-.52-.11-1.42.15-2.01,3.79-8.92,7.63-17.81,11.47-26.71.09-.2.34-.33.77-.73Z"/>
    <path class="cls-1" d="M204.39,600.37c8.61,1.6,17.25,3.2,26.08,4.84-.87,6.07-1.7,11.82-2.53,17.59-2.11.78-22.07.5-26.6-.38-.45-3.76,1.34-16.95,3.06-22.05Z"/>
    <path class="cls-1" d="M765.85,626.49c-.84-6.17-1.62-11.95-2.46-18.12,8.72-1.5,17.29-2.97,26.26-4.5,1.65,7.26,2.33,14.46,2.78,22.16-8.9.48-17.67.3-26.57.46Z"/>
    <path class="cls-1" d="M424.39,794.58c.38,3.58.71,6.74,1.09,10.37-21.96-10.61-45.18-12.61-68.89-13.63-.81-3.14-.54-6.29-.57-9.8,22.94,4.38,45.47,8.69,68.37,13.06Z"/>
    <path class="cls-1" d="M578.93,804.95c.42-3.75.76-6.82,1.15-10.37,22.59-4.32,45.21-8.65,68.1-13.03v9.79c-1.77.06-3.28.11-4.79.18-15.46.73-30.84,2.12-45.77,6.44-5.27,1.52-10.34,3.71-15.5,5.62-.88.32-1.73.74-3.2,1.37Z"/>
    <path class="cls-1" d="M262.31,498.53c.33,5.06.62,9.34.89,13.63.38,5.97.72,11.95,1.14,17.92.12,1.65-.3,3.02-1.3,4.32-1.74,2.26-3.38,4.6-5.34,7.3-.5-.96-.85-1.51-1.09-2.1-3.15-7.64-6.22-15.3-9.45-22.9-.86-2.02-.75-3.45.89-5.06,4.43-4.34,8.66-8.88,14.26-13.11Z"/>
    <path class="cls-1" d="M734.01,501.41c5,4.95,10.01,9.9,15.16,15-4,9.37-7.9,18.49-12.01,28.11-2.26-3.23-4.29-6.01-6.14-8.89-.47-.72-.57-1.82-.5-2.73.66-9.09,1.38-18.17,2.12-27.26.11-1.3.37-2.59.55-3.89.28-.11.55-.23.83-.34Z"/>
    <path class="cls-1" d="M792.94,635.57v7.68c-8.75-.2-17.41-.39-26.36-.59v-6.61c2.4-.77,19.07-1.12,26.36-.47Z"/>
    <path class="cls-1" d="M200.44,631.72c9.04.28,17.61.55,26.34.82v6.82h-26.34v-7.64Z"/>
  </g>
  <g>
    <path class="cls-2" d="M497.65,619.77c-27.47,0-54.95-.06-82.42.03-10.56.03-20.12-2.71-28.53-9.18-13.97-10.76-20.12-28.87-15.63-45.97,4.44-16.88,19.01-29.82,36.37-32.2,2.01-.28,4.07-.33,6.1-.34,56.15-.02,112.29-.09,168.44.03,17.02.04,30.03,7.79,38.4,22.5,15.05,26.47-1.62,60.26-31.69,64.63-3.07.45-6.22.47-9.33.48-27.23.03-54.47.02-81.7.02ZM497.62,602.89c14.91.05,27.09-11.95,27.22-26.8.13-14.76-12.08-27.12-26.87-27.2-14.91-.08-27.04,11.93-27.11,26.84-.07,14.99,11.86,27.11,26.75,27.16ZM420.59,602.89c14.9.02,27.05-12.05,27.08-26.91.04-14.84-12.11-27.05-26.94-27.09-14.89-.03-26.97,12.01-27.02,26.95-.05,14.93,11.97,27.03,26.88,27.05ZM576,602.89c14.87-.05,26.88-12.2,26.81-27.14-.06-14.86-12.26-26.93-27.14-26.86-14.82.07-26.92,12.32-26.85,27.18.07,14.84,12.25,26.86,27.17,26.81Z"/>
    <path class="cls-2" d="M730.93,319.94c.69-1.28,2.3-1.89,4.28-2.1,17.05-1.83,34.11-3.59,51.12-5.69,6.85-.85,12.72.7,18.21,4.74,5.88,4.33,10.77,9.53,14.72,15.63,8.04,12.42,12.56,26.05,14.02,40.75,1.39,14.07.03,27.78-5.23,40.99-3.07,7.69-7.54,14.43-14.01,19.74-7.57,6.2-16.2,8.51-25.87,7.35-11.31-1.35-27.84-2.36-39.17-3.59,8.48-74.16-13.57-103.25-18.08-117.81Z"/>
    <path class="cls-2" d="M247.89,437.27c-6.08.68-12.15,1.39-18.23,2.07-5.72.64-11.46,1.14-17.16,1.92-11.81,1.62-21.75-1.98-30.04-10.42-7.1-7.24-11.36-16.09-13.59-25.79-5.83-25.31-2.45-49.32,11.24-71.61,5.18-8.43,11.96-15.26,20.85-19.86,2.3-1.19,4.66-1.88,7.25-1.64,8.95.83,17.91,1.58,26.86,2.53,9.54,1.01,19.06,2.17,28.58,3.34-8.38,16.79-27.03,58.96-15.76,119.46Z"/>
    <path class="cls-2" d="M787.23,748.08c0-3.36.03-6.72,0-10.07-.05-4.36,1.47-7.8,5.04-10.55,5.95-4.57,9.09-10.77,9.17-18.31.13-12.74-10.54-24.13-23.28-24.88-10.49-.62-18.81,3.15-23.96,12.61-4.54,8.34-3.33,19.77,3.45,26.42,5,4.91,6.86,10.34,6.37,17.12-.37,5.13-.15,10.31-.2,15.47,0,.84-.01,1.68-.07,2.52-.37,5.63-4.3,8.49-9.68,6.65-3.37-1.16-6.72-2.67-9.74-4.56-21.56-13.48-32.23-32.84-29.77-58.37,1.8-18.7,11.54-33.13,27.22-43.23,27.82-17.92,67.35-12.99,88.37,17.39,13.47,19.47,13.26,39.93,3.24,60.68-5.17,10.7-13.51,18.55-23.92,24.13-3.58,1.92-7.36,3.49-11.14,4.99-1.63.64-3.49.98-5.24.96-3.45-.04-5.82-2.25-6.32-5.67-.23-1.53-.24-3.11-.19-4.66.09-2.88.3-5.75.46-8.62.07,0,.14,0,.21,0Z"/>
    <path class="cls-2" d="M229.61,750.32c0-3.24.09-6.48-.02-9.71-.16-4.6,1.33-8.45,4.74-11.57,2.88-2.64,4.96-5.84,6.24-9.53,4.65-13.49-2.89-27.29-16.76-30.71-13.6-3.35-27.48,4.83-30.93,18.42-2.07,8.15-.11,15.44,5.57,21.66,1.21,1.32,2.61,2.47,4,3.61,2.27,1.86,3.53,4.21,3.64,7.13.29,7.79.68,15.58.77,23.37.08,6.48-3.96,9.62-10.11,7.56-22.79-7.65-37.67-22.63-42.54-46.7-7.2-35.54,19.86-62.77,44.88-69.02,21.37-5.33,41.12-1.77,58.28,12.15,30.52,24.75,29.24,70.01-2.29,93.6-4.35,3.25-9.03,5.91-14.07,7.89-1.41.55-3.01.85-4.53.85-4.09,0-6.51-2.32-6.65-6.4-.14-4.19-.03-8.39-.03-12.59-.06,0-.13,0-.19,0Z"/>
    <path class="cls-2" d="M563.11,206.01c-32.25-12.47-103.08-13.48-129.38-1.71-.03-5.09,6.58-17.05,13.88-24.87,12.7-13.6,28.39-21.05,46.96-21.96,17.21-.85,32.65,4.27,46.08,15.09,10.8,8.7,18.17,19.76,22.46,33.45Z"/>
  </g>
  <g>
    <path class="cls-3" d="M504.51,101.74c0,5,.63,47.3,1.15,49.49.96.23,1.96.53,2.98.71,27.6,4.75,46.94,20.04,58.02,45.69,1.08,2.51,2.44,3.63,5,4.3,39.88,10.35,76.33,27.64,108.2,54.03,18.82,15.58,34.87,33.61,47.7,54.45.43.7.92,1.37,1.37,2.03,11.54-1.37,22.95-2.78,34.37-4.05,8.58-.96,17.19-1.68,25.77-2.62,4.82-.53,9.23.31,13.52,2.63,8.75,4.75,15.62,11.47,21.17,19.63,7.82,11.5,12.58,24.22,14.83,37.89,2.59,15.76,1.86,31.32-3.25,46.55-2.98,8.87-7.32,16.95-14.15,23.51-9.26,8.88-20.09,13.18-33.07,11.55-10.59-1.32-21.21-2.42-31.82-3.6-1.65-.18-3.31-.23-5.19-.35-3.56,15.08-8.85,29.3-15.62,43.02.43.47.71.86,1.07,1.15,24.29,19.05,41.49,43.38,53.28,71.7,8.08,19.41,12.87,39.67,14.57,60.61.76,9.32.85,18.69,1.24,28.03.03.59.05,1.19.09,1.96,1.14.59,2.3,1.18,3.44,1.79,17.64,9.45,30.05,23.4,35.48,42.81,6.64,23.72-1.86,58.49-33.38,74.51-3.94,2-8.08,3.65-12.22,5.23-3.45,1.31-7.02,1.47-10.53-.04-4.81-2.06-8.04-5.46-7.98-10.89.1-9.35.36-18.71.9-28.04.25-4.26,2.75-7.6,6.15-10.17,3.04-2.3,5.4-5.11,6.61-8.77,2.83-8.53-1.26-17.83-9.66-22.05-8.85-4.45-19.59-1.6-24.36,6.45-3.78,6.38-3.04,14.52,1.83,20.12.47.54.97,1.06,1.5,1.56,4.84,4.58,6.87,10.25,6.71,16.84-.17,6.96-.46,13.93-.25,20.87.24,7.92-6.78,16.81-18.54,12.42-17.88-6.67-31.01-18.93-38.47-36.69-14.26-33.99,2.02-72.25,36.51-86.23,1.43-.58,2.86-1.14,4.18-1.67,2.66-30.67-11.26-79.3-28-97.3-.44,1.7-.83,3.14-1.18,4.6-7.94,33.47-20.96,64.76-40.63,93.08-5.53,7.96-11.87,15.37-17.95,22.94-1.19,1.48-1.85,2.85-1.9,4.8-1.06,37.9-2.2,75.81-3.32,113.71-.02.7,0,1.4,0,2.49,4.21.43,8.23.85,12.25,1.26,13.25,1.36,26.44,3.14,39.35,6.51,3.58.93,7.16,2.1,10.49,3.67,2.66,1.26,5.24,3,7.33,5.06,6.26,6.15,6.05,15.61-.61,21.34-2.57,2.21-5.74,4.15-8.96,5.1-6.41,1.88-13,3.43-19.62,4.32-26.85,3.62-53.85,3.52-80.85,2.45-12.58-.5-25.14-1.49-37.71-2.34-3.76-.25-7.31-1.43-10.57-3.28-4.54-2.57-7.14-6.41-6.72-11.79.85-10.88,1.67-21.76,2.8-32.61,1.38-13.24,3.07-26.45,4.62-39.67.61-5.24,1.22-10.48,1.81-15.73.13-1.18.24-2.36.42-4.15-48.27,16.14-96.29,15.96-144.86.26.11,1.89.13,3.37.3,4.83,2.35,20.37,4.82,40.73,7.06,61.12.94,8.58,1.45,17.2,2.12,25.8.46,5.92-2.6,9.73-7.56,12.36-4.68,2.48-9.82,3.03-14.97,3.42-23.7,1.81-47.44,2.7-71.21,2.22-17.04-.34-34.05-1.29-50.87-4.27-5.33-.94-10.58-2.26-15.38-4.82-6.05-3.23-9.78-7.97-9.38-15.27.24-4.37,2.08-8,5.5-10.48,2.97-2.15,6.29-3.96,9.69-5.34,7.82-3.17,16.13-4.6,24.44-5.78,10.21-1.45,20.46-2.53,30.7-3.79,1.04-.13,2.08-.35,3.31-.57,0-1.62.04-3.05,0-4.47-1.03-35.86-2.07-71.73-3.09-107.59-.05-1.86-.39-3.38-1.82-4.82-28.42-28.82-48.14-62.9-60.75-101.2-2.66-8.08-4.74-16.34-7.09-24.52-.26-.91-.52-1.82-.97-3.41-22.41,30.56-31.08,64.58-30.65,101.6,1.93.81,3.91,1.58,5.85,2.45,22.18,10.04,36.18,26.84,39.74,51,3.59,24.34-5.02,44.53-23.72,60.43-5.54,4.71-11.85,8.16-18.55,10.87-7.5,3.03-15.52-.02-18.04-6.93-.76-2.09-1.01-4.45-1.06-6.69-.17-6.72-.05-13.44-.2-20.16-.15-6.38,1.97-11.75,6.57-16.14,2.21-2.11,3.92-4.54,4.88-7.45,3.9-11.74-4.73-23.15-17.31-22.92-8.62.16-16.26,5.94-18.43,14.05-1.82,6.78-.24,13,5.19,17.23,6.37,4.95,8.59,11.1,8.43,18.79-.11,5.39.41,10.79.55,16.19.05,2.03-.16,4.07-.33,6.09-.56,6.97-7.87,11.05-13.64,10.67-1.31-.09-2.67-.23-3.9-.64-23.23-7.84-39.72-22.49-46.08-46.81-8.11-31.01,6.38-62.01,35.25-76.14,1.28-.63,2.56-1.25,3.57-1.75-.18-2.98-.52-5.7-.47-8.41.36-22.42,3.12-44.49,9.85-65.95,9.82-31.29,26.03-58.65,50.2-81.04,3.51-3.26,7.36-6.16,11.05-9.22.73-.6,1.45-1.2,2.33-1.93-6.13-12.72-11.45-25.67-14.99-39.48-1.03,0-1.96-.09-2.86.01-10.49,1.16-20.98,2.29-31.46,3.53-14.46,1.71-26.05-3.68-35.48-14.3-7.27-8.19-11.56-17.96-13.84-28.52-5.35-24.76-2.13-48.44,10.13-70.7,6.14-11.15,14.44-20.29,25.99-26.16,3.41-1.73,6.98-2.58,10.77-2.21,10.03.98,20.05,1.98,30.07,3.06,7.15.77,14.3,1.6,21.43,2.58,2.59.36,4.04-.37,5.43-2.7,12.3-20.74,27.86-38.71,46.39-54.11,26.64-22.14,56.77-37.85,89.69-48.3,7.53-2.39,15.21-4.34,22.88-6.24,2.23-.55,3.39-1.51,4.32-3.61,9.05-20.58,24.34-34.42,45.61-41.59,3.72-1.25,7.68-1.82,11.53-2.69,1.04-.24,2.1-.41,3.1-.6.56-2.43,1.62-48.39,1.62-49.65-1.08-.51-2.14-.83-2.99-1.44-2.32-1.66-4.93-3.12-6.74-5.25-5.5-6.47-4.29-15.49,2.5-21.06,7.21-5.92,18.49-6.31,26.22-.91,9.54,6.66,9.49,19.09-.16,25.61-1.77,1.19-3.77,2.04-5.62,3.02ZM271.36,475.43c1.07,0,1.9,0,2.73,0,11.16.15,22.32.32,33.47.44,66.47.74,132.94,1.48,199.4,2.21,64.55.71,129.1,1.43,193.65,2.13,7.08.08,14.16-.05,21.23.1,2.16.05,3.18-.79,4.07-2.64,14.73-30.59,20.05-62.66,14.83-96.27-4.63-29.89-16.69-56.67-35.01-80.65-16.43-21.5-36.38-39.15-59.25-53.52-43.84-27.55-91.99-40.69-143.45-42.45-21.41-.73-42.66.95-63.73,4.92-28.97,5.46-56.48,15-82.23,29.43-29.42,16.48-54.72,37.73-73.73,65.77-28.69,42.3-37.68,88.32-24.67,138.13,2.91,11.16,6.96,21.92,12.69,32.4ZM497.74,618.92c27.23,0,54.46,0,81.69-.01,2.88,0,5.78.03,8.62-.35,31.04-4.24,47.35-39.74,30.16-65.95-8.75-13.35-21.43-19.72-37.42-19.71-55.3.04-110.61.01-165.91.02-2.16,0-4.35-.08-6.47.24-17.7,2.72-30.17,12.36-35.73,29.39-5.61,17.17-1.35,32.52,11.73,45.02,8.35,7.98,18.62,11.41,30.18,11.37,27.71-.09,55.42-.03,83.13-.03ZM753.41,430.97c1.28.2,2.2.38,3.13.5,3.45.41,6.9.83,10.36,1.19,8.47.88,16.93,1.83,25.41,2.54,7.1.6,13.14-2.1,18.44-6.65,5.9-5.06,9.68-11.53,12.3-18.74,3.84-10.54,5.03-21.48,4.31-32.59-1.02-15.75-5.67-30.35-14.79-43.36-3.9-5.57-8.71-10.17-14.58-13.69-2.47-1.48-4.97-2.19-7.86-1.87-15.02,1.63-30.04,3.2-45.06,4.81-3.05.33-6.09.76-9.64,1.2,16.68,33.91,23.13,69.11,17.97,106.66ZM257.93,323.57c-2.21-.31-3.86-.58-5.51-.78-5.23-.64-10.46-1.33-15.7-1.87-9.18-.93-18.37-1.76-27.55-2.65-2.36-.23-4.43.34-6.51,1.51-6.51,3.68-11.75,8.71-15.83,14.89-12.97,19.65-16.93,41.19-12.89,64.25,1.39,7.96,4.04,15.56,8.73,22.25,6.71,9.57,15.43,15.28,27.67,13.93,7.74-.85,15.48-1.69,23.22-2.56,3.07-.34,6.12-.75,9.57-1.18-3.19-18.48-3.6-36.72-1.14-55,2.46-18.31,7.85-35.74,15.94-52.81ZM793.13,762.97c1.56-.43,2.86-.61,4.02-1.14,3.7-1.69,7.47-3.3,11-5.31,11.7-6.65,19.45-16.59,23.34-29.42,4.09-13.48,3.92-26.74-2.93-39.44-17.98-33.3-59.29-39.64-86.61-19.28-14.84,11.06-22.57,26.25-21.46,44.82,1.36,22.6,13.57,38.07,33.97,47.32.81.37,1.76.45,2.6.65.21-.54.37-.76.37-.98.07-7.68.23-15.36.1-23.04-.03-1.53-.96-3.15-1.81-4.54-.73-1.2-1.99-2.07-2.91-3.17-6.97-8.32-9.28-17.77-6.27-28.24,4.43-15.38,19.91-24.06,36.32-20.57,15.94,3.39,26.71,18.64,24.46,34.76-1.02,7.32-4.5,13.42-10.18,18.06-2.69,2.19-3.84,4.58-3.67,8.01.16,3.22-.26,6.47-.32,9.71-.07,3.7-.02,7.41-.02,11.77ZM236.25,761.49c1.55-.56,2.66-.9,3.72-1.37,8.5-3.73,15.68-9.2,21.55-16.39,15.65-19.16,15.43-47.51-.51-66.41-23.98-28.41-68.93-27.12-91.2,2.65-6.25,8.36-10.3,17.63-10.45,28.2-.32,23.68,11.18,44.69,38.18,54.07.83.29,1.75.31,3.05.53,0-1.58.03-2.76,0-3.93-.16-5.52-.49-11.03-.47-16.55.02-3.84-1.13-6.59-4.2-9.27-8.29-7.23-11.62-16.62-9.53-27.52,2.59-13.55,13.15-23.53,26.97-25.34,17.46-2.29,30.92,8.56,34.04,22.66,2.37,10.74-.36,20.24-8.12,28.08-2.58,2.6-3.65,5.42-3.52,9.01.22,5.87.21,11.75.31,17.63.02,1.16.11,2.31.19,3.95ZM552.67,197.57c-8.32-18.14-30.83-36.2-60.04-33.72-20.83,1.77-45.46,18.23-48.51,32.28,36.15-5.83,72.16-5.16,108.55,1.44ZM421.31,768.69c-22.09-5.06-43.89-10.2-66.18-15.15.25,6.53.49,12.47.73,18.63,22.44,4.28,44.68,8.53,67.35,12.86-.66-5.71-1.25-10.8-1.89-16.34ZM648.86,753.57c-21.96,5.05-43.81,10.08-65.72,15.12-.64,5.55-1.23,10.73-1.87,16.34,22.77-4.35,45.05-8.61,67.6-12.92v-18.54ZM354.92,743.96c21.78,5,43.21,9.93,65.14,14.96-.41-3.94-.83-7.36-1.11-10.79-.15-1.81-1.07-2.68-2.7-3.3-19.82-7.53-39.62-15.12-59.43-22.67-.7-.27-1.5-.31-2.59-.52.23,7.53.46,14.7.69,22.31ZM650.27,721.3c-1.83.62-3.06,1-4.26,1.45-11.95,4.57-23.9,9.16-35.85,13.74-7.26,2.78-14.54,5.51-21.78,8.36-1.01.4-2.44,1.23-2.58,2.05-.66,3.83-.93,7.72-1.39,12.04,22.09-5.08,43.59-10.03,65.08-14.98.26-7.64.51-14.8.78-22.66ZM206.08,591.49c9.1,1.68,17.73,3.27,26.25,4.85,2.4-7.35,4.66-14.26,6.99-21.38-7.13-5.78-14.24-11.53-21.6-17.49-5.13,11.05-8.73,22.13-11.64,34.03ZM787.9,594.86c-2.77-11.94-6.22-23.08-11.15-34.18-7.48,5.88-14.69,11.55-21.82,17.16,2.28,7.3,4.47,14.32,6.72,21.52,8.72-1.49,17.29-2.96,26.24-4.5ZM651.16,690.2c-.25-.14-.5-.28-.74-.42-18.89,15.97-39.7,28.77-62.58,38.01-.24,2.63-.44,4.93-.69,7.64,21.4-8.19,42.28-16.19,63.37-24.26.22-7.12.43-14.04.65-20.97ZM353.62,689.71c-.1,1.19-.21,1.86-.19,2.53.1,5.27.38,10.54.28,15.81-.05,2.53,1.02,3.5,3.22,4.33,19.03,7.18,38.01,14.48,57.01,21.74.95.36,1.95.63,3.13,1,0-1.16-.06-1.99.01-2.8.3-3.35-1.31-4.98-4.4-6.27-20.37-8.49-38.92-20.02-55.95-34.03-.88-.72-1.83-1.36-3.11-2.31ZM243.19,566.22c2.27-4.18,4.31-8.22,6.63-12.1,1.2-2.02,1.45-3.69.45-5.93-2.85-6.45-5.41-13.03-8.08-19.56-.85-2.07-1.7-4.14-2.77-6.73-7,8.63-12.56,17.56-17.55,27.03,7.22,5.86,14.18,11.5,21.32,17.29ZM772.77,552.09c-4.98-9.67-10.37-18.61-17.16-27.33-4.16,9.73-8.07,18.87-11.93,28.03-.24.58-.28,1.47,0,2,2.4,4.67,4.9,9.28,7.54,14.25,7.21-5.66,14.24-11.19,21.55-16.94ZM203.9,600.44c-1.06,7.6-2.04,14.67-3.1,22.28h26.96c.83-5.5,1.69-11.26,2.6-17.34-8.68-1.62-17.23-3.22-26.46-4.94ZM765.86,626.41c8.81-.04,17.56-.22,26.3-.42.16-6.24-1.35-17.78-2.76-21.65-4.13,0-23.6,3.49-25.9,4.67.77,5.63,1.53,11.29,2.36,17.4ZM424.34,794.8c-14.59-3.57-65.12-12.86-68.34-12.52.1,2.24.18,4.49.31,6.75.04.69.2,1.38.34,2.27,23.47.99,46.67,2.99,68.78,13.61-.41-3.74-.75-6.89-1.1-10.11ZM578.98,804.98c22.23-10.79,45.48-12.6,69.05-13.73v-9.6c-22.75,4.35-45.2,8.64-67.88,12.97-.38,3.31-.73,6.48-1.18,10.36ZM257.55,541.78c1.94-2.64,3.55-4.98,5.32-7.18,1.2-1.5,1.58-3.07,1.44-4.97-.6-8.59-1.1-17.18-1.66-25.77-.1-1.58-.33-3.16-.55-5.3-6.05,5.06-11.2,9.97-15.98,15.34,3.8,9.28,7.51,18.33,11.43,27.88ZM733.11,501.01c-.91,11.4-1.76,21.91-2.57,32.43-.05.68.03,1.51.39,2.05,1.89,2.88,3.89,5.7,6.19,9.03,4.14-9.7,8.03-18.8,11.89-27.83-4.89-5.59-9.86-10.55-15.9-15.67ZM792.77,643.26v-7.58h-26.18v6.84c8.85.25,17.41.49,26.18.73ZM200.43,639.1c2.48.76,22.84.74,26.35-.09v-6.48c-8.83-.22-17.49-.43-26.35-.65v7.22Z"/>
    <path class="cls-3" d="M385.32,432.13c-38.12-.24-70.2-25.85-79.17-63.36-3.58-14.97-2.97-29.75,2.02-44.3,6.4-18.64,16.71-34.67,33.2-45.81,24.1-16.29,50.51-21.22,78.05-10.97,32.11,11.95,49.68,36.07,53.04,70.14,4.22,42.69-27.71,86.36-74.64,93.04-4.15.59-8.34.84-12.51,1.26ZM384.55,417.89c-2.99-1.97-6.12-3.76-8.96-5.93-22.88-17.48-34.33-41.01-36.26-69.41-1.23-18.1,2.39-35.29,10.6-51.49.27-.53.31-1.18.49-1.93-.56.15-.81.16-1,.28-.51.31-1.02.64-1.49,1.01-22.68,18.02-33.87,41.14-29.57,70.25,4.02,27.22,19.77,45.37,45.68,54.57,6.55,2.32,13.37,3.5,20.5,2.65Z"/>
    <path class="cls-3" d="M691.73,340.16c-.16,42.44-29.57,79.2-70.53,87.52-39.36,8-82.39-12.48-95.42-58.34-4.35-15.3-4.27-30.6.68-45.71,7.69-23.51,21.39-42.38,43.92-53.61,23.37-11.65,47.64-13.86,71.94-3.29,27.66,12.03,43.65,33.52,48.38,63.31.64,4.02.83,8.1,1.03,10.13ZM568.75,286.6c-.96.66-2.02,1.21-2.86,1.99-4.19,3.93-8.79,7.54-12.41,11.96-15.14,18.46-20.67,39.63-15.53,62.97,6.55,29.71,31.78,50.68,62.21,52.58,1,.06,2.01-.13,3.02-.2-22.48-13.22-35.72-33.04-42.24-57.48-6.59-24.71-2.53-48.46,7.81-71.82Z"/>
    <path class="cls-3" d="M541.9,425.98c4.97,0,6.67,2.46,5.02,7.18-7.01,20.1-26.31,33.88-47.64,34.49-21.61.61-42.31-12.73-50.12-34.01-.12-.34-.25-.67-.39-1-2.34-5.47.85-7.92,5.41-7.8,14.61.4,73.09,1.14,87.71,1.15ZM476.57,434.29c0,5.95.02,11.69-.01,17.43,0,1.28.59,2.03,1.71,2.44,3.48,1.28,6.93,2.61,10.45,3.75,1.52.49,3.17.56,4.95.86v-24.48h-17.09ZM518.2,453.79v-19.2h-15.9v24.08c5.84-.63,11.13-2.1,15.9-4.88ZM536.56,434.99c-3.46-.41-6.45-.64-9.42-.1-.66,4.43-.53,9.72.34,12.29,3.79-3.44,6.71-7.36,9.08-12.19ZM467.89,446.65v-12.74h-9.11c2.3,4.79,4.99,8.83,9.11,12.74Z"/>
    <path class="cls-3" d="M603.59,576.04c-.04,15.51-12.47,27.74-28.06,27.64-15.29-.1-27.54-12.52-27.49-27.88.05-15.45,12.56-27.76,28.09-27.67,15.27.1,27.5,12.53,27.46,27.91Z"/>
    <path class="cls-3" d="M420.79,603.67c-15.5.06-28.02-12.4-27.97-27.8.05-15.31,12.43-27.7,27.7-27.74,15.46-.04,28.03,12.45,27.99,27.83-.03,15.28-12.42,27.66-27.72,27.71Z"/>
    <path class="cls-3" d="M497.84,603.67c-15.38.03-27.68-12.15-27.8-27.54-.13-15.49,12.25-27.99,27.73-28.01,15.44-.02,27.95,12.52,27.88,27.93-.07,15.28-12.46,27.59-27.8,27.62Z"/>
  </g>
  <g>
    <path class="cls-2" d="M469.64,138.08c.59,1.92-.59,3.32-1,5.04-.62-.23-1.1-.42-1.7-.64.45-1.17.86-2.24,1.27-3.32q-.86-.23-3.15,2.26c-.93-.61-1.61-1.37-1.76-2.65,1.11-.22,2.16-.44,3.47-.7-.68-.96-1.26-1.77-1.96-2.74.57-.37,1.11-.73,1.61-1.05,1.44,1.09,1.06,3.46,2.85,4.08.15-.1.31-.19.46-.29-.47-1.47-.93-2.94-1.43-4.53.64-.17,1.09-.28,1.73-.45.39,1.44.77,2.8,1.18,4.29-.55.25-1.03.46-1.57.7Z"/>
    <path class="cls-2" d="M531.33,141.28q-2.38-2.4-3.21-2.22c.43,1.08.85,2.13,1.32,3.31-.57.24-1.04.43-1.69.71-.5-1.46-.95-2.79-1.43-4.2,1.98-.94,2-3.08,3.18-4.67.56.31,1.11.61,1.76.96-.68,1-1.26,1.84-2.01,2.94,1.35.09,2.51.17,3.75.25-.06,1.34-.61,2.27-1.67,2.93Z"/>
    <path class="cls-2" d="M498.96,141.65h1.56v4.43h-1.56v-4.43Z"/>
    <path class="cls-2" d="M505.32,146.03c-.08-1.64-.14-2.93-.2-4.4.49-.09.98-.18,1.69-.31.07,1.59.14,3,.21,4.57-.61.05-1.11.09-1.7.13Z"/>
    <path class="cls-2" d="M511.82,130.8c-.13,1.51-.26,2.86-.39,4.34h-1.61c.08-1.49.16-2.95.25-4.6.7.11,1.19.18,1.74.26Z"/>
    <path class="cls-2" d="M519.68,131.54c.74.23,1.17.36,1.69.53-.28,1.49-.55,2.88-.84,4.4-.6-.13-1.03-.23-1.58-.35.24-1.5.46-2.91.72-4.58Z"/>
    <path class="cls-2" d="M476.44,131.71c.26,1.64.47,3.05.71,4.57-.59.11-1.02.2-1.61.31-.27-1.53-.52-2.92-.79-4.43.53-.14.97-.26,1.69-.46Z"/>
    <path class="cls-2" d="M517.45,140.44c.67-.06,1.06-.1,1.61-.15.24,1.5.46,2.89.71,4.43-.59.09-1.08.17-1.74.27-.19-1.54-.37-2.93-.58-4.55Z"/>
    <path class="cls-2" d="M491.1,141.51v4.44h-1.52v-4.54c.63.04,1.08.07,1.52.09Z"/>
    <path class="cls-2" d="M513.32,130.82c.65.06,1.05.09,1.68.15-.17,1.54-.33,3.01-.5,4.61-.62-.08-1.06-.14-1.67-.22.16-1.52.32-2.92.49-4.53Z"/>
    <path class="cls-2" d="M523.55,137.1c-.65-.14-1.04-.23-1.63-.36.3-1.47.59-2.86.91-4.39.52.05.97.09,1.7.15-.33,1.53-.63,2.96-.98,4.59Z"/>
    <path class="cls-2" d="M517.55,136.08c-.7-.19-1.13-.31-1.62-.45.18-1.45.34-2.8.52-4.24h1.74c-.22,1.57-.41,2.96-.64,4.69Z"/>
    <path class="cls-2" d="M510.2,145.65c-.55.1-.98.19-1.69.32-.09-1.6-.18-3.05-.27-4.63.62-.04,1.05-.07,1.64-.11.11,1.53.22,2.92.33,4.43Z"/>
    <path class="cls-2" d="M506.94,130.46h1.68c-.09,1.51-.17,2.92-.26,4.48-.62-.03-1.12-.05-1.72-.08.11-1.55.2-2.96.3-4.4Z"/>
    <path class="cls-2" d="M471.37,139.05c.61.2.98.32,1.5.49-.31,1.44-.6,2.84-.93,4.38-.6-.13-1.1-.23-1.76-.37.39-1.5.75-2.87,1.18-4.5Z"/>
    <path class="cls-2" d="M485.08,141.18c-.13,1.55-.25,2.95-.37,4.4h-1.69c.13-1.51.24-2.91.37-4.49.58.03,1.07.06,1.69.09Z"/>
    <path class="cls-2" d="M486.47,141.25c.61.03,1.06.05,1.66.08-.07,1.53-.14,2.94-.22,4.47h-1.67c.08-1.52.15-2.98.23-4.54Z"/>
    <path class="cls-2" d="M526.09,133.04c.59.15,1.03.27,1.71.44-.49,1.48-.94,2.87-1.41,4.3-.99-.05-1.69-.11-1.29-1.3.37-1.09.64-2.22.99-3.44Z"/>
    <path class="cls-2" d="M473.41,144.29c.3-1.59.56-2.93.83-4.33h1.66c-.26,1.58-.5,3.02-.76,4.58-.62-.09-1.08-.16-1.72-.25Z"/>
    <path class="cls-2" d="M480.34,140.74c.57.04,1.01.07,1.61.11-.13,1.53-.25,2.93-.39,4.48-.66-.05-1.16-.09-1.75-.14.18-1.54.35-2.95.53-4.45Z"/>
    <path class="cls-2" d="M511.68,145.67c-.13-1.58-.25-2.93-.37-4.39.48-.11.91-.22,1.61-.38.16,1.6.3,3.04.45,4.64-.6.04-1.05.08-1.7.13Z"/>
    <path class="cls-2" d="M487.49,130.75c.65-.04,1.1-.07,1.69-.11.09,1.53.17,2.93.26,4.48-.55.07-.98.13-1.65.21-.1-1.52-.2-2.91-.31-4.58Z"/>
    <path class="cls-2" d="M484.69,135.45c-.12-1.56-.24-2.96-.36-4.5.59-.06,1.03-.1,1.68-.16.12,1.51.23,2.91.36,4.46-.58.07-1.07.13-1.68.2Z"/>
    <path class="cls-2" d="M483.26,135.62c-.65.06-1.04.09-1.66.14-.15-1.5-.29-2.9-.44-4.47.54-.08,1.03-.16,1.7-.26.14,1.55.26,2.96.4,4.58Z"/>
    <path class="cls-2" d="M524.98,139.03c.43,1.6.79,2.9,1.18,4.35-.55.2-1.01.37-1.66.61-.36-1.51-.69-2.88-1.05-4.38.52-.2.92-.35,1.53-.58Z"/>
    <path class="cls-2" d="M471.53,132.67c.62-.12,1.06-.21,1.74-.35.29,1.55.57,2.99.85,4.52-.55.11-.94.19-1.54.31-.35-1.5-.69-2.93-1.05-4.48Z"/>
    <path class="cls-2" d="M494.25,146.15c-.69-.04-1.08-.06-1.58-.08v-4.39c.58-.04,1.06-.07,1.58-.1v4.58Z"/>
    <path class="cls-2" d="M480.2,135.97c-.71.05-1.09.08-1.64.12-.21-1.48-.41-2.88-.62-4.37.55-.15.98-.26,1.65-.44.2,1.56.39,3.01.6,4.68Z"/>
    <path class="cls-2" d="M478.35,145.02c-.67-.09-1.12-.16-1.72-.24.22-1.49.42-2.89.65-4.41.53.03.97.06,1.6.1-.18,1.53-.34,2.92-.53,4.56Z"/>
    <path class="cls-2" d="M522.96,144.34c-.73.04-1.18.07-1.74.1-.25-1.49-.48-2.89-.73-4.4.59-.08,1.03-.14,1.61-.22.28,1.49.55,2.88.86,4.52Z"/>
    <path class="cls-2" d="M514.39,140.83c.66-.03,1.09-.06,1.64-.08.19,1.52.37,2.91.55,4.39-.58.09-1.03.16-1.71.27-.17-1.55-.32-2.99-.49-4.57Z"/>
    <path class="cls-2" d="M503.67,141.52v4.48c-.44.04-.88.07-1.48.12v-4.47c.38-.03.81-.07,1.48-.13Z"/>
    <path class="cls-2" d="M495.91,141.62h1.43v4.39c-.41.05-.85.1-1.43.16v-4.55Z"/>
    <path class="cls-2" d="M469.06,116.07c.59,1.92-.59,3.32-1,5.04-.62-.23-1.1-.42-1.7-.64.45-1.17.86-2.24,1.27-3.32q-.86-.23-3.15,2.26c-.93-.61-1.61-1.37-1.76-2.65,1.11-.22,2.16-.44,3.47-.7-.68-.96-1.26-1.77-1.96-2.74.57-.37,1.11-.73,1.61-1.05,1.44,1.09,1.06,3.46,2.85,4.08.15-.1.31-.19.46-.29-.47-1.47-.93-2.94-1.43-4.53.64-.17,1.09-.28,1.73-.45.39,1.44.77,2.8,1.18,4.29-.55.25-1.03.46-1.57.7Z"/>
    <path class="cls-2" d="M530.75,119.27q-2.38-2.4-3.21-2.22c.43,1.08.85,2.13,1.32,3.31-.57.24-1.04.43-1.69.71-.5-1.46-.95-2.79-1.43-4.2,1.98-.94,2-3.08,3.18-4.67.56.31,1.11.61,1.76.96-.68,1-1.26,1.84-2.01,2.94,1.35.09,2.51.17,3.75.25-.06,1.34-.61,2.27-1.67,2.93Z"/>
    <path class="cls-2" d="M498.38,119.64h1.56v4.43h-1.56v-4.43Z"/>
    <path class="cls-2" d="M504.74,124.03c-.08-1.64-.14-2.93-.2-4.4.49-.09.98-.18,1.69-.31.07,1.59.14,3,.21,4.57-.61.05-1.11.09-1.7.13Z"/>
    <path class="cls-2" d="M511.24,108.8c-.13,1.51-.26,2.86-.39,4.34h-1.61c.08-1.49.16-2.95.25-4.6.7.11,1.19.18,1.74.26Z"/>
    <path class="cls-2" d="M519.11,109.53c.74.23,1.17.36,1.69.53-.28,1.49-.55,2.88-.84,4.4-.6-.13-1.03-.23-1.58-.35.24-1.5.46-2.91.72-4.58Z"/>
    <path class="cls-2" d="M475.87,109.7c.26,1.64.47,3.05.71,4.57-.59.11-1.02.2-1.61.31-.27-1.53-.52-2.92-.79-4.43.53-.14.97-.26,1.69-.46Z"/>
    <path class="cls-2" d="M516.88,118.44c.67-.06,1.06-.1,1.61-.15.24,1.5.46,2.89.71,4.43-.59.09-1.08.17-1.74.27-.19-1.54-.37-2.93-.58-4.55Z"/>
    <path class="cls-2" d="M490.52,119.51v4.44h-1.52v-4.54c.63.04,1.08.07,1.52.09Z"/>
    <path class="cls-2" d="M512.74,108.81c.65.06,1.05.09,1.68.15-.17,1.54-.33,3.01-.5,4.61-.62-.08-1.06-.14-1.67-.22.16-1.52.32-2.92.49-4.53Z"/>
    <path class="cls-2" d="M522.98,115.09c-.65-.14-1.04-.23-1.63-.36.3-1.47.59-2.86.91-4.39.52.05.97.09,1.7.15-.33,1.53-.63,2.96-.98,4.59Z"/>
    <path class="cls-2" d="M516.97,114.07c-.7-.19-1.13-.31-1.62-.45.18-1.45.34-2.8.52-4.24h1.74c-.22,1.57-.41,2.96-.64,4.69Z"/>
    <path class="cls-2" d="M509.62,123.65c-.55.1-.98.19-1.69.32-.09-1.6-.18-3.05-.27-4.63.62-.04,1.05-.07,1.64-.11.11,1.53.22,2.92.33,4.43Z"/>
    <path class="cls-2" d="M505.95,108.45h1.68c-.09,1.51-.17,2.92-.26,4.48-.62-.03-1.12-.05-1.72-.08.11-1.55.2-2.96.3-4.4Z"/>
    <path class="cls-2" d="M470.8,117.04c.61.2.98.32,1.5.49-.31,1.44-.6,2.84-.93,4.38-.6-.13-1.1-.23-1.76-.37.39-1.5.75-2.87,1.18-4.5Z"/>
    <path class="cls-2" d="M484.5,119.17c-.13,1.55-.25,2.95-.37,4.4h-1.69c.13-1.51.24-2.91.37-4.49.58.03,1.07.06,1.69.09Z"/>
    <path class="cls-2" d="M485.89,119.24c.61.03,1.06.05,1.66.08-.07,1.53-.14,2.94-.22,4.47h-1.67c.08-1.52.15-2.98.23-4.54Z"/>
    <path class="cls-2" d="M525.51,111.03c.59.15,1.03.27,1.71.44-.49,1.48-.94,2.87-1.41,4.3-.99-.05-1.69-.11-1.29-1.3.37-1.09.64-2.22.99-3.44Z"/>
    <path class="cls-2" d="M472.84,122.28c.3-1.59.56-2.93.83-4.33h1.66c-.26,1.58-.5,3.02-.76,4.58-.62-.09-1.08-.16-1.72-.25Z"/>
    <path class="cls-2" d="M479.76,118.74c.57.04,1.01.07,1.61.11-.13,1.53-.25,2.93-.39,4.48-.66-.05-1.16-.09-1.75-.14.18-1.54.35-2.95.53-4.45Z"/>
    <path class="cls-2" d="M511.11,123.66c-.13-1.58-.25-2.93-.37-4.39.48-.11.91-.22,1.61-.38.16,1.6.3,3.04.45,4.64-.6.04-1.05.08-1.7.13Z"/>
    <path class="cls-2" d="M487.9,108.6c.65-.04,1.1-.07,1.69-.11.09,1.53.17,2.93.26,4.48-.55.07-.98.13-1.65.21-.1-1.52-.2-2.91-.31-4.58Z"/>
    <path class="cls-2" d="M484.69,113.52c-.12-1.56-.24-2.96-.36-4.5.59-.06,1.03-.1,1.68-.16.12,1.51.23,2.91.36,4.46-.58.07-1.07.13-1.68.2Z"/>
    <path class="cls-2" d="M482.68,113.62c-.65.06-1.04.09-1.66.14-.15-1.5-.29-2.9-.44-4.47.54-.08,1.03-.16,1.7-.26.14,1.55.26,2.96.4,4.58Z"/>
    <path class="cls-2" d="M524.4,117.02c.43,1.6.79,2.9,1.18,4.35-.55.2-1.01.37-1.66.61-.36-1.51-.69-2.88-1.05-4.38.52-.2.92-.35,1.53-.58Z"/>
    <path class="cls-2" d="M470.96,110.66c.62-.12,1.06-.21,1.74-.35.29,1.55.57,2.99.85,4.52-.55.11-.94.19-1.54.31-.35-1.5-.69-2.93-1.05-4.48Z"/>
    <path class="cls-2" d="M493.67,124.14c-.69-.04-1.08-.06-1.58-.08v-4.39c.58-.04,1.06-.07,1.58-.1v4.58Z"/>
    <path class="cls-2" d="M479.62,113.96c-.71.05-1.09.08-1.64.12-.21-1.48-.41-2.88-.62-4.37.55-.15.98-.26,1.65-.44.2,1.56.39,3.01.6,4.68Z"/>
    <path class="cls-2" d="M477.78,123.02c-.67-.09-1.12-.16-1.72-.24.22-1.49.42-2.89.65-4.41.53.03.97.06,1.6.1-.18,1.53-.34,2.92-.53,4.56Z"/>
    <path class="cls-2" d="M522.38,122.33c-.73.04-1.18.07-1.74.1-.25-1.49-.48-2.89-.73-4.4.59-.08,1.03-.14,1.61-.22.28,1.49.55,2.88.86,4.52Z"/>
    <path class="cls-2" d="M513.81,118.82c.66-.03,1.09-.06,1.64-.08.19,1.52.37,2.91.55,4.39-.58.09-1.03.16-1.71.27-.17-1.55-.32-2.99-.49-4.57Z"/>
    <path class="cls-2" d="M503.09,119.52v4.48c-.44.04-.88.07-1.48.12v-4.47c.38-.03.81-.07,1.48-.13Z"/>
    <path class="cls-2" d="M495.33,119.62h1.43v4.39c-.41.05-.85.1-1.43.16v-4.55Z"/>
  </g>
</svg>